<svg width="18" height="18" viewBox="0 0 18 18" fill="none" xmlns="http://www.w3.org/2000/svg">
<path d="M14.4617 7.34993H13.077C13.0764 6.81702 12.8574 6.30609 12.4681 5.92926C12.0787 5.55244 11.5507 5.3405 11 5.33997V4C11.9178 4.00106 12.7976 4.35434 13.4466 4.98235C14.0955 5.61035 14.4606 6.4618 14.4617 7.34993Z" fill="#C9C9C9"/>
<path d="M17.3078 6.69979H15.9231C15.9216 5.45639 15.4106 4.26432 14.502 3.3851C13.5935 2.50588 12.3617 2.01131 11.0768 2.00989V0.669922C12.7288 0.671695 14.3126 1.30755 15.4807 2.43799C16.6489 3.56842 17.3059 5.10112 17.3078 6.69979Z" fill="#C9C9C9"/>
<path d="M11.9995 12.3827L13.5504 10.8819C13.758 10.681 14.0219 10.5434 14.3095 10.4862C14.5971 10.4291 14.8957 10.4548 15.1684 10.5603L17.057 11.2919C17.3354 11.3997 17.574 11.5858 17.7421 11.826C17.9102 12.0663 18 12.3498 18 12.64V15.9638C18.0005 16.1613 17.9593 16.3569 17.879 16.5385C17.7986 16.7201 17.6809 16.884 17.5328 17.02C17.3848 17.156 17.2096 17.2614 17.0181 17.3297C16.8265 17.3979 16.6226 17.4276 16.4187 17.417C3.17991 16.6197 0.506125 5.76858 0.00972185 1.61333C-0.0143204 1.41019 0.00635211 1.20442 0.0703798 1.00957C0.134407 0.814709 0.240339 0.635178 0.381208 0.482782C0.522076 0.330385 0.694689 0.208576 0.887693 0.125367C1.0807 0.0421582 1.28972 -0.000565757 1.50101 5.65698e-06H4.87475C5.17457 -3.65987e-06 5.46753 0.0869239 5.71582 0.249575C5.96411 0.412226 6.15634 0.643139 6.26772 0.912526L7.02306 2.74025C7.13206 3.00407 7.15868 3.29305 7.0996 3.57137C7.04053 3.84969 6.89837 4.10512 6.69074 4.306L5.13991 5.80677C5.13991 5.80677 5.99979 11.6571 11.9995 12.3827Z" fill="#C9C9C9"/>
</svg>
