<svg width="18" height="18" viewBox="0 0 18 18" fill="none" xmlns="http://www.w3.org/2000/svg">
<path d="M9 0C4.02942 0 0 3.89936 0 8.70949C0 13.5196 4.02942 17.419 9 17.419C13.9706 17.419 18 13.5196 18 8.70949C18 3.89936 13.9706 0 9 0ZM9 15.7333C4.98876 15.7333 1.74194 12.5919 1.74194 8.70949C1.74194 4.82776 4.98814 1.68571 9 1.68571C13.0112 1.68571 16.2581 4.82713 16.2581 8.70949C16.2581 12.5913 13.0119 15.7333 9 15.7333ZM12.8958 12.184C12.5469 12.5251 11.2435 13.6378 9.11925 13.6378C6.12784 13.6378 4.02104 11.4806 4.02104 8.66612C4.02104 5.88639 6.20844 3.77051 9.09305 3.77051C11.1083 3.77051 12.3134 4.70537 12.6347 4.99191C12.7102 5.05911 12.7587 5.15002 12.7716 5.24852C12.7844 5.34701 12.7608 5.44673 12.705 5.53L12.0461 6.5173C11.9067 6.72626 11.6119 6.77304 11.4111 6.61988C11.0992 6.38192 10.2566 5.82837 9.17169 5.82837C7.41876 5.82837 6.34409 7.06912 6.34409 8.64077C6.34409 10.1013 7.31987 11.5799 9.18479 11.5799C10.3699 11.5799 11.2476 10.9113 11.57 10.6238C11.7613 10.4533 12.0634 10.482 12.2167 10.6849L12.9376 11.639C12.9991 11.7197 13.0286 11.8191 13.021 11.919C13.0133 12.019 12.9689 12.113 12.8958 12.184Z" fill="white"/>
</svg>
