<svg width="119" height="119" viewBox="0 0 119 119" fill="none" xmlns="http://www.w3.org/2000/svg">
<path d="M59.5022 6.61082C49.0418 6.61082 38.8162 9.7127 30.1187 15.5242C21.4212 21.3357 14.6423 29.5958 10.6392 39.26C6.6362 48.9242 5.58882 59.5584 7.62955 69.8178C9.67028 80.0773 14.7075 89.5012 22.1041 96.8978C29.5007 104.294 38.9246 109.332 49.1841 111.372C59.4435 113.413 70.0777 112.366 79.7419 108.363C89.4061 104.36 97.6662 97.5807 103.478 88.8832C109.289 80.1857 112.391 69.9601 112.391 59.4997C112.391 45.4727 106.819 32.0202 96.9003 22.1016C86.9817 12.183 73.5292 6.61082 59.5022 6.61082ZM59.5022 105.777C50.3493 105.777 41.402 103.063 33.7916 97.9783C26.1813 92.8932 20.2498 85.6656 16.7471 77.2095C13.2444 68.7533 12.328 59.4484 14.1136 50.4714C15.8993 41.4944 20.3068 33.2484 26.7789 26.7764C33.2509 20.3043 41.4968 15.8968 50.4739 14.1111C59.4509 12.3255 68.7558 13.242 77.2119 16.7446C85.6681 20.2473 92.8957 26.1788 97.9808 33.7892C103.066 41.3995 105.78 50.3468 105.78 59.4997C105.78 71.7733 100.904 83.5443 92.2255 92.223C83.5468 100.902 71.7758 105.777 59.5022 105.777Z" fill="#12E200"/>
<path d="M92.5559 39.9972C91.9365 39.3815 91.0987 39.0359 90.2255 39.0359C89.3522 39.0359 88.5144 39.3815 87.895 39.9972L51.2034 76.5236L31.37 56.6902C30.7651 56.0371 29.9255 55.651 29.0359 55.6169C28.1464 55.5828 27.2797 55.9035 26.6266 56.5084C25.9734 57.1133 25.5873 57.9529 25.5532 58.8425C25.5192 59.7321 25.8398 60.5988 26.4447 61.2519L51.2034 85.9444L92.5559 44.6911C92.8657 44.3838 93.1116 44.0182 93.2794 43.6153C93.4473 43.2125 93.5337 42.7805 93.5337 42.3441C93.5337 41.9077 93.4473 41.4757 93.2794 41.0729C93.1116 40.6701 92.8657 40.3045 92.5559 39.9972Z" fill="#12E200"/>
</svg>
