<svg width="302" height="89" viewBox="0 0 302 89" fill="none" xmlns="http://www.w3.org/2000/svg">
<path fill-rule="evenodd" clip-rule="evenodd" d="M54.2312 70.1217C100.352 47.9645 87.6213 38.0004 43.1511 0C69.4676 33.0797 79.7864 47.1564 54.2312 70.1217Z" fill="#383838"/>
<path fill-rule="evenodd" clip-rule="evenodd" d="M64.4883 47.5632C64.6217 56.1118 61.5711 62.2474 53.0693 69.882C36.5382 77.2046 24.3246 83.0114 0.0251465 88.846C28.5032 78.6925 58.6205 64.1923 64.4883 47.5632Z" fill="white"/>
<path fill-rule="evenodd" clip-rule="evenodd" d="M77.6914 56.324C87.01 49.5142 83.1592 38.1569 85.9987 35.1922C89.3994 30.2938 94.0448 32.2164 95.6729 34.9192C97.1287 35.2145 98.1512 35.6604 99.4403 36.0895C98.4179 36.9588 97.2343 37.0145 95.734 37.4046C90.8886 37.6387 92.161 49.9154 77.6914 56.324Z" fill="#383838"/>
<path d="M116.846 44.4692H122.166V34.9254H128.737C128.998 34.9254 129.363 34.9123 129.832 34.8863C130.301 34.8602 130.719 34.8211 131.084 34.7689C133.587 34.3778 135.425 33.3478 136.599 31.6789C137.772 29.997 138.359 27.9761 138.359 25.6162C138.359 23.2433 137.779 21.2224 136.618 19.5535C135.458 17.8846 133.613 16.8546 131.084 16.4635C130.719 16.3983 130.301 16.3592 129.832 16.3462C129.376 16.3201 129.011 16.307 128.737 16.307H116.846V44.4692ZM122.166 29.9579V21.2745H128.502C128.776 21.2745 129.076 21.2876 129.402 21.3137C129.728 21.3397 130.028 21.3919 130.301 21.4701C131.019 21.6657 131.573 21.9982 131.964 22.4675C132.355 22.9239 132.622 23.4389 132.766 24.0125C132.922 24.5732 133 25.1077 133 25.6162C133 26.1247 132.922 26.6658 132.766 27.2395C132.622 27.8001 132.355 28.3151 131.964 28.7845C131.573 29.2408 131.019 29.5667 130.301 29.7623C130.028 29.8405 129.728 29.8927 129.402 29.9188C129.076 29.9448 128.776 29.9579 128.502 29.9579H122.166ZM151.408 45.056C153.521 45.056 155.378 44.5866 156.982 43.6478C158.599 42.6961 159.857 41.3857 160.757 39.7169C161.669 38.035 162.126 36.0988 162.126 33.9084C162.126 31.7311 161.676 29.8079 160.776 28.1391C159.877 26.4572 158.618 25.1403 157.002 24.1885C155.398 23.2368 153.534 22.7609 151.408 22.7609C149.322 22.7609 147.477 23.2302 145.874 24.169C144.27 25.1077 143.012 26.4181 142.099 28.1C141.187 29.7688 140.73 31.705 140.73 33.9084C140.73 36.0858 141.174 38.0154 142.06 39.6973C142.96 41.3662 144.211 42.6765 145.815 43.6283C147.419 44.5801 149.283 45.056 151.408 45.056ZM151.408 40.0885C149.753 40.0885 148.494 39.5343 147.634 38.4261C146.786 37.3048 146.363 35.7989 146.363 33.9084C146.363 32.07 146.767 30.5837 147.575 29.4494C148.397 28.3021 149.674 27.7284 151.408 27.7284C153.09 27.7284 154.355 28.289 155.202 29.4103C156.063 30.5316 156.493 32.0309 156.493 33.9084C156.493 35.7207 156.069 37.207 155.222 38.3674C154.388 39.5148 153.116 40.0885 151.408 40.0885ZM174.107 45.056C176.871 45.056 179.035 44.4366 180.599 43.198C182.164 41.9594 182.946 40.2579 182.946 38.0936C182.946 36.4508 182.438 35.1535 181.421 34.2018C180.417 33.25 178.709 32.4612 176.297 31.8354C174.654 31.4181 173.429 31.0792 172.62 30.8184C171.825 30.5576 171.297 30.3034 171.036 30.0557C170.788 29.8079 170.664 29.5016 170.664 29.1365C170.664 28.5237 170.958 28.0543 171.545 27.7284C172.144 27.4024 172.933 27.272 173.911 27.3372C175.984 27.4937 177.118 28.3803 177.314 29.997L182.751 29.0191C182.477 27.1026 181.538 25.5836 179.935 24.4623C178.331 23.328 176.284 22.7609 173.794 22.7609C171.238 22.7609 169.198 23.3606 167.672 24.5601C166.147 25.7596 165.384 27.3763 165.384 29.4103C165.384 31.027 165.912 32.3047 166.968 33.2435C168.024 34.1692 169.843 34.9645 172.425 35.6294C173.95 36.0336 175.071 36.3596 175.788 36.6073C176.519 36.855 176.988 37.1093 177.197 37.37C177.405 37.6177 177.509 37.9502 177.509 38.3674C177.509 39.0324 177.249 39.5539 176.727 39.932C176.206 40.2971 175.462 40.4796 174.498 40.4796C173.324 40.4796 172.353 40.1993 171.584 39.6386C170.827 39.078 170.339 38.3022 170.117 37.3113L164.68 38.1327C165.032 40.3362 166.023 42.0442 167.653 43.2567C169.295 44.4562 171.447 45.056 174.107 45.056ZM199.917 44.4692V40.0493C198.665 40.2188 197.525 40.271 196.494 40.2058C195.464 40.1406 194.715 39.7364 194.245 38.9933C193.998 38.6021 193.861 38.0806 193.835 37.4287C193.822 36.7637 193.815 36.0206 193.815 35.1992V27.4546H199.917V23.3476H193.815V17.4805H188.496V23.3476H184.897V27.4546H188.496V35.5121C188.496 36.7768 188.509 37.9111 188.535 38.915C188.561 39.9059 188.835 40.8838 189.356 41.8486C189.93 42.8786 190.764 43.6283 191.859 44.0977C192.968 44.554 194.219 44.7952 195.614 44.8213C197.023 44.8604 198.457 44.743 199.917 44.4692Z" fill="white"/>
<path d="M204.624 44.4692H217.101C219.983 44.4692 222.121 43.6804 223.516 42.1028C224.924 40.5122 225.628 38.4587 225.628 35.9424C225.628 34.5864 225.296 33.3413 224.631 32.2069C223.979 31.0596 222.994 30.2121 221.678 29.6645C222.512 29.156 223.164 28.439 223.633 27.5132C224.103 26.5875 224.337 25.4858 224.337 24.2081C224.337 22.9695 224.051 21.7439 223.477 20.5314C222.903 19.3188 221.997 18.3149 220.758 17.5196C219.52 16.7112 217.897 16.307 215.889 16.307H204.624V44.4692ZM210.022 27.2981V21.2745H215.81C216.827 21.2745 217.603 21.5679 218.138 22.1546C218.672 22.7413 218.94 23.4649 218.94 24.3254C218.94 25.3555 218.64 26.1117 218.04 26.5941C217.453 27.0634 216.71 27.2981 215.81 27.2981H210.022ZM210.022 39.4626V32.2656H216.554C217.792 32.2656 218.718 32.5981 219.331 33.263C219.957 33.9149 220.269 34.7429 220.269 35.7468C220.269 36.8811 219.917 37.7872 219.213 38.4652C218.522 39.1302 217.636 39.4626 216.554 39.4626H210.022ZM229.92 20.414H235.239V15.7203H229.92V20.414ZM229.92 44.4692H235.239V23.3476H229.92V44.4692ZM241.102 44.4692H246.461V33.6737C246.461 31.2226 247.426 29.5537 249.355 28.6671C249.981 28.3672 250.679 28.1912 251.448 28.1391C252.23 28.0739 252.915 28.1326 253.502 28.3151V23.3476C252.55 23.2302 251.598 23.2563 250.646 23.4258C249.694 23.5823 248.834 23.8952 248.065 24.3646C247.569 24.6514 247.132 24.9969 246.754 25.4011C246.389 25.8053 246.07 26.2551 245.796 26.7505V23.3476H241.102V44.4692ZM265.406 45.056C266.566 45.056 267.622 44.8995 268.574 44.5866C269.526 44.2737 270.373 43.8304 271.116 43.2567V44.4692H275.81V16.307H270.451V24.0516C269.8 23.6344 269.069 23.315 268.261 23.0933C267.466 22.8717 266.605 22.7609 265.679 22.7609C263.659 22.7609 261.898 23.2433 260.399 24.2081C258.9 25.1729 257.733 26.4963 256.898 28.1782C256.077 29.8471 255.666 31.7571 255.666 33.9084C255.666 36.0206 256.07 37.9176 256.879 39.5995C257.7 41.2814 258.841 42.6113 260.301 43.5892C261.762 44.567 263.463 45.056 265.406 45.056ZM266.266 40.3231C265.119 40.3231 264.18 40.0363 263.45 39.4626C262.72 38.889 262.179 38.1197 261.827 37.1549C261.475 36.177 261.299 35.0949 261.299 33.9084C261.299 32.735 261.481 31.6659 261.846 30.7011C262.211 29.7232 262.772 28.9474 263.528 28.3738C264.297 27.787 265.275 27.4937 266.462 27.4937C268.131 27.4937 269.324 28.0869 270.041 29.2734C270.758 30.4468 271.116 31.9918 271.116 33.9084C271.116 35.825 270.751 37.3765 270.021 38.563C269.304 39.7364 268.052 40.3231 266.266 40.3231Z" fill="#383838"/>
<path d="M216.229 77.4116L212.265 77.5681C211.9 77.5681 211.596 77.4377 211.352 77.1769C211.126 76.8988 211.013 76.6206 211.013 76.3425C211.013 76.047 211.048 75.0735 211.118 73.422C211.205 71.7705 211.248 70.0147 211.248 68.1546C211.248 66.2945 211.205 64.5996 211.118 63.0698C211.048 61.5226 211.013 60.7229 211.013 60.6708C211.013 60.3057 211.126 59.9841 211.352 59.7059C211.596 59.4104 211.9 59.2627 212.265 59.2627C212.63 59.2627 212.926 59.4104 213.152 59.7059C213.395 59.9841 213.517 60.3057 213.517 60.6708C213.517 60.7229 213.473 61.5226 213.386 63.0698C213.317 64.5996 213.282 66.1554 213.282 67.7374C213.282 69.302 213.291 70.5623 213.308 71.5184C213.343 72.4745 213.386 73.3698 213.438 74.2043C213.491 75.0387 213.517 75.5341 213.517 75.6906L220.192 75.5341C220.47 75.5341 220.714 75.6298 220.922 75.821C221.148 75.9948 221.261 76.2382 221.261 76.5511C221.261 76.864 221.148 77.1161 220.922 77.3073C220.714 77.4812 220.47 77.5681 220.192 77.5681L216.229 77.4116ZM225.574 68.7283C224.809 69.4932 224.427 70.4319 224.427 71.5445C224.427 72.6571 224.809 73.6045 225.574 74.3868C226.357 75.1517 227.295 75.5341 228.39 75.5341C229.503 75.5341 230.433 75.1517 231.181 74.3868C231.928 73.6045 232.302 72.6571 232.302 71.5445C232.302 70.4319 231.928 69.4932 231.181 68.7283C230.433 67.9634 229.503 67.5809 228.39 67.5809C227.295 67.5809 226.357 67.9634 225.574 68.7283ZM226.617 77.5681C225.505 77.5681 224.575 77.1335 223.827 76.2643C223.08 75.3951 222.706 74.3086 222.706 73.0048C222.706 71.6836 223.114 70.4145 223.931 69.1976C224.749 67.9634 225.705 67.042 226.8 66.4336C227.895 65.8251 228.999 65.5209 230.112 65.5209C231.224 65.5209 232.154 65.9555 232.902 66.8247C233.649 67.6939 234.023 68.7891 234.023 70.1103C234.023 71.4141 233.614 72.6832 232.797 73.9174C231.98 75.1343 231.024 76.047 229.929 76.6554C228.834 77.2639 227.73 77.5681 226.617 77.5681ZM241.047 67.5809C239.935 67.5809 238.987 67.9634 238.205 68.7283C237.44 69.4932 237.058 70.4319 237.058 71.5445C237.058 72.6571 237.44 73.6045 238.205 74.3868C238.987 75.1517 239.917 75.5341 240.995 75.5341C242.073 75.5341 242.968 75.1952 243.681 74.5172C244.411 73.8218 244.82 72.9613 244.906 71.9356C244.889 71.4315 244.88 70.8578 244.88 70.2146C244.88 69.5714 244.993 69.1107 245.219 68.8326C245.463 68.5371 245.75 68.3893 246.08 68.3893C246.41 68.3893 246.68 68.5284 246.888 68.8065C247.097 69.0673 247.201 69.3889 247.201 69.7713C247.201 70.1538 247.184 70.5362 247.149 70.9187C247.132 71.2837 247.097 71.7618 247.045 72.3529C246.871 74.2825 246.784 76.0904 246.784 77.7767C246.784 79.4629 246.036 81.0797 244.541 82.6268C243.046 84.1914 241.377 84.9737 239.535 84.9737C238.613 84.9737 237.814 84.7129 237.136 84.1914C236.458 83.6699 236.119 83.1049 236.119 82.4965C236.119 82.1835 236.223 81.9054 236.432 81.662C236.658 81.4186 236.918 81.297 237.214 81.297C237.527 81.297 237.805 81.3839 238.048 81.5577C238.309 81.7316 238.544 81.9228 238.752 82.1314C238.978 82.34 239.309 82.5312 239.743 82.7051C240.195 82.8789 240.7 82.9658 241.256 82.9658C242.351 82.9658 243.264 82.5573 243.994 81.7403C244.724 80.9406 245.089 79.9845 245.089 78.8719C245.089 78.7328 245.063 77.2812 245.011 74.5172C244.263 75.4559 243.368 76.2034 242.325 76.7597C241.299 77.2986 240.326 77.5681 239.404 77.5681C238.188 77.5681 237.205 77.1335 236.458 76.2643C235.71 75.3951 235.337 74.3086 235.337 73.0048C235.337 71.6836 235.745 70.4145 236.562 69.1976C237.379 67.9634 238.335 67.042 239.43 66.4336C240.526 65.8251 241.508 65.5209 242.377 65.5209C243.246 65.5209 243.855 65.66 244.202 65.9381C244.567 66.1989 244.75 66.5205 244.75 66.903C244.75 67.268 244.628 67.5722 244.385 67.8156C244.159 68.059 243.933 68.1807 243.707 68.1807C243.498 68.1807 243.116 68.0851 242.56 67.8938C242.021 67.6852 241.517 67.5809 241.047 67.5809ZM250.494 75.5081C250.494 73.3177 250.45 71.3967 250.363 69.7452C250.277 68.0938 250.233 67.1203 250.233 66.8247C250.233 66.5292 250.346 66.2424 250.572 65.9642C250.815 65.6687 251.102 65.5209 251.433 65.5209C251.763 65.5209 252.032 65.66 252.241 65.9381C252.45 66.1989 252.554 66.59 252.554 67.1116C252.554 67.6157 252.493 68.4762 252.371 69.6931C252.25 70.8926 252.189 72.1442 252.189 73.4481C252.189 73.9696 252.293 74.4737 252.502 74.9605C252.728 75.4298 252.841 75.8644 252.841 76.2643C252.841 76.6467 252.728 76.9596 252.502 77.203C252.293 77.4464 251.998 77.5681 251.615 77.5681C251.25 77.5681 250.972 77.3595 250.781 76.9423C250.589 76.525 250.494 76.047 250.494 75.5081ZM251.328 62.5743C250.946 62.5743 250.642 62.47 250.416 62.2614C250.19 62.0528 250.077 61.7486 250.077 61.3487C250.077 60.9489 250.216 60.6099 250.494 60.3318C250.772 60.0362 251.102 59.8885 251.485 59.8885C251.867 59.8885 252.171 60.0015 252.397 60.2275C252.641 60.4361 252.762 60.7403 252.762 61.1401C252.762 61.54 252.615 61.879 252.319 62.1571C252.041 62.4352 251.711 62.5743 251.328 62.5743ZM258.322 77.5681C257.679 77.5681 257.157 77.4377 256.758 77.1769C256.358 76.9162 256.158 76.5946 256.158 76.2121C256.158 75.8123 256.271 75.4994 256.497 75.2734C256.74 75.03 256.975 74.9083 257.201 74.9083C257.444 74.9083 257.835 75.0126 258.374 75.2212C258.913 75.4298 259.47 75.5341 260.043 75.5341C260.634 75.5341 261.225 75.3864 261.816 75.0908C262.407 74.7779 262.703 74.4042 262.703 73.9696C262.703 73.5176 262.477 73.1699 262.025 72.9265C261.59 72.6832 261.06 72.4919 260.434 72.3529C259.809 72.1964 259.183 72.0226 258.557 71.8313C257.931 71.6401 257.392 71.3533 256.94 70.9708C256.506 70.571 256.288 70.0842 256.288 69.5106C256.288 68.5718 256.888 67.6765 258.088 66.8247C259.287 65.9555 260.608 65.5209 262.051 65.5209C262.746 65.5209 263.277 65.6513 263.642 65.9121C264.024 66.1554 264.215 66.477 264.215 66.8769C264.215 67.2767 264.094 67.5983 263.85 67.8417C263.624 68.0677 263.39 68.1807 263.146 68.1807C262.92 68.1807 262.538 68.0764 261.999 67.8678C261.46 67.6592 260.895 67.5549 260.304 67.5549C259.73 67.5549 259.226 67.6765 258.792 67.9199C258.374 68.1633 258.166 68.4588 258.166 68.8065C258.166 69.1542 258.496 69.4584 259.157 69.7192C259.835 69.9799 260.573 70.1885 261.373 70.345C262.173 70.5015 262.903 70.8144 263.563 71.2837C264.241 71.7357 264.58 72.3268 264.58 73.0569C264.58 74.1869 263.92 75.2212 262.599 76.16C261.277 77.0987 259.852 77.5681 258.322 77.5681ZM273.179 67.4505C273.092 67.4505 272.006 67.381 269.92 67.2419C269.92 67.4679 269.885 68.3284 269.815 69.8235C269.746 71.3185 269.711 72.4311 269.711 73.1612C269.711 73.874 269.868 74.4737 270.181 74.9605C270.511 75.4298 270.676 75.8557 270.676 76.2382C270.676 76.6206 270.546 76.9423 270.285 77.203C270.024 77.4464 269.729 77.5681 269.398 77.5681C268.529 77.5681 268.094 76.8814 268.094 75.5081L267.99 70.2146C267.99 69.1368 267.964 68.172 267.912 67.3202H267.286C267.043 67.3202 266.843 67.2506 266.686 67.1116C266.53 66.9551 266.452 66.7465 266.452 66.4857C266.452 66.225 266.53 66.0251 266.686 65.886C266.843 65.7295 267.043 65.6513 267.286 65.6513H267.834C267.799 64.7473 267.782 64.0607 267.782 63.5913C267.782 63.1045 267.895 62.7221 268.12 62.4439C268.364 62.1484 268.651 62.0006 268.981 62.0006C269.311 62.0006 269.581 62.1397 269.789 62.4179C269.998 62.6786 270.102 63.1132 270.102 63.7217C270.102 64.3301 270.076 64.9994 270.024 65.7295L273.179 65.5209C273.857 65.5209 274.196 65.8425 274.196 66.4857C274.196 67.1289 273.857 67.4505 273.179 67.4505ZM276.697 75.5081C276.697 73.3177 276.654 71.3967 276.567 69.7452C276.48 68.0938 276.437 67.1203 276.437 66.8247C276.437 66.5292 276.55 66.2424 276.776 65.9642C277.019 65.6687 277.306 65.5209 277.636 65.5209C277.966 65.5209 278.236 65.66 278.444 65.9381C278.653 66.1989 278.757 66.59 278.757 67.1116C278.757 67.6157 278.696 68.4762 278.575 69.6931C278.453 70.8926 278.392 72.1442 278.392 73.4481C278.392 73.9696 278.497 74.4737 278.705 74.9605C278.931 75.4298 279.044 75.8644 279.044 76.2643C279.044 76.6467 278.931 76.9596 278.705 77.203C278.497 77.4464 278.201 77.5681 277.819 77.5681C277.453 77.5681 277.175 77.3595 276.984 76.9423C276.793 76.525 276.697 76.047 276.697 75.5081ZM277.532 62.5743C277.149 62.5743 276.845 62.47 276.619 62.2614C276.393 62.0528 276.28 61.7486 276.28 61.3487C276.28 60.9489 276.419 60.6099 276.697 60.3318C276.975 60.0362 277.306 59.8885 277.688 59.8885C278.071 59.8885 278.375 60.0015 278.601 60.2275C278.844 60.4361 278.966 60.7403 278.966 61.1401C278.966 61.54 278.818 61.879 278.523 62.1571C278.244 62.4352 277.914 62.5743 277.532 62.5743ZM287.264 67.5549C286.116 67.5549 285.178 67.9547 284.447 68.7544C283.735 69.5366 283.378 70.4754 283.378 71.5706C283.378 72.6658 283.752 73.5958 284.5 74.3607C285.264 75.1256 286.194 75.5081 287.29 75.5081C288.263 75.5081 289.141 75.1517 289.923 74.4389C290.202 74.1956 290.41 74.0739 290.549 74.0739C290.688 74.0739 290.81 74.126 290.914 74.2303C291.019 74.3346 291.071 74.4476 291.071 74.5693C291.071 75.0735 290.575 75.6993 289.584 76.4468C288.611 77.1943 287.498 77.5681 286.247 77.5681C285.012 77.5681 283.935 77.0639 283.013 76.0557C282.109 75.0474 281.657 73.7957 281.657 72.3007C281.657 70.3885 282.379 68.7804 283.822 67.4766C285.264 66.1728 286.855 65.5209 288.593 65.5209C289.324 65.5209 289.915 65.6513 290.367 65.9121C290.836 66.1554 291.071 66.477 291.071 66.8769C291.071 67.2593 290.949 67.5722 290.706 67.8156C290.48 68.059 290.254 68.1807 290.028 68.1807C289.802 68.1807 289.411 68.0764 288.854 67.8678C288.315 67.6592 287.785 67.5549 287.264 67.5549ZM294.864 77.5681C294.221 77.5681 293.7 77.4377 293.3 77.1769C292.9 76.9162 292.7 76.5946 292.7 76.2121C292.7 75.8123 292.813 75.4994 293.039 75.2734C293.282 75.03 293.517 74.9083 293.743 74.9083C293.986 74.9083 294.378 75.0126 294.917 75.2212C295.455 75.4298 296.012 75.5341 296.585 75.5341C297.176 75.5341 297.768 75.3864 298.359 75.0908C298.95 74.7779 299.245 74.4042 299.245 73.9696C299.245 73.5176 299.019 73.1699 298.567 72.9265C298.133 72.6832 297.602 72.4919 296.977 72.3529C296.351 72.1964 295.725 72.0226 295.099 71.8313C294.473 71.6401 293.934 71.3533 293.482 70.9708C293.048 70.571 292.83 70.0842 292.83 69.5106C292.83 68.5718 293.43 67.6765 294.63 66.8247C295.829 65.9555 297.15 65.5209 298.593 65.5209C299.289 65.5209 299.819 65.6513 300.184 65.9121C300.566 66.1554 300.758 66.477 300.758 66.8769C300.758 67.2767 300.636 67.5983 300.393 67.8417C300.167 68.0677 299.932 68.1807 299.688 68.1807C299.462 68.1807 299.08 68.0764 298.541 67.8678C298.002 67.6592 297.437 67.5549 296.846 67.5549C296.273 67.5549 295.768 67.6765 295.334 67.9199C294.917 68.1633 294.708 68.4588 294.708 68.8065C294.708 69.1542 295.038 69.4584 295.699 69.7192C296.377 69.9799 297.116 70.1885 297.915 70.345C298.715 70.5015 299.445 70.8144 300.106 71.2837C300.784 71.7357 301.123 72.3268 301.123 73.0569C301.123 74.1869 300.462 75.2212 299.141 76.16C297.82 77.0987 296.394 77.5681 294.864 77.5681Z" fill="black"/>
</svg>
