<svg width="218" height="67" viewBox="0 0 218 67" fill="none" xmlns="http://www.w3.org/2000/svg">
<path fill-rule="evenodd" clip-rule="evenodd" d="M38.6808 49.4848C70.957 33.9787 62.048 27.0057 30.9268 0.412109C49.3436 23.562 56.5649 33.4132 38.6808 49.4848Z" fill="#FFB640"/>
<path fill-rule="evenodd" clip-rule="evenodd" d="M45.8589 33.6978C45.9522 39.6802 43.8173 43.974 37.8676 49.3169C26.2987 54.4414 17.7514 58.5052 0.746094 62.5884C20.6757 55.4827 41.7524 45.3351 45.8589 33.6978Z" fill="#121212"/>
<path fill-rule="evenodd" clip-rule="evenodd" d="M55.0986 39.829C61.62 35.0633 58.9251 27.1152 60.9122 25.0405C63.2921 21.6124 66.5431 22.9579 67.6825 24.8494C68.7013 25.0561 69.4168 25.368 70.319 25.6683C69.6035 26.2767 68.7752 26.3157 67.7252 26.5887C64.3343 26.7525 65.2248 35.3441 55.0986 39.829Z" fill="#FFB640"/>
<path d="M82.235 31.9399H85.9577V25.2609H90.5563C90.7388 25.2609 90.9943 25.2518 91.3228 25.2336C91.6513 25.2153 91.9432 25.1879 92.1987 25.1514C93.9506 24.8777 95.2371 24.1569 96.0583 22.989C96.8795 21.8119 97.2901 20.3977 97.2901 18.7462C97.2901 17.0855 96.8841 15.6713 96.072 14.5034C95.2599 13.3354 93.9688 12.6146 92.1987 12.3409C91.9432 12.2953 91.6513 12.2679 91.3228 12.2588C91.0034 12.2405 90.748 12.2314 90.5563 12.2314H82.235V31.9399ZM85.9577 21.7846V15.7078H90.3921C90.5837 15.7078 90.7936 15.7169 91.0217 15.7351C91.2498 15.7534 91.4596 15.7899 91.6513 15.8446C92.1531 15.9815 92.5409 16.2142 92.8146 16.5426C93.0883 16.862 93.2754 17.2224 93.3758 17.6239C93.4852 18.0162 93.54 18.3903 93.54 18.7462C93.54 19.102 93.4852 19.4807 93.3758 19.8821C93.2754 20.2745 93.0883 20.6349 92.8146 20.9634C92.5409 21.2827 92.1531 21.5108 91.6513 21.6477C91.4596 21.7024 91.2498 21.7389 91.0217 21.7572C90.7936 21.7754 90.5837 21.7846 90.3921 21.7846H85.9577ZM106.422 32.3505C107.901 32.3505 109.201 32.0221 110.323 31.3651C111.454 30.699 112.335 29.782 112.965 28.6141C113.603 27.4371 113.923 26.0821 113.923 24.5492C113.923 23.0255 113.608 21.6796 112.978 20.5117C112.349 19.3347 111.468 18.4131 110.337 17.7471C109.214 17.081 107.91 16.7479 106.422 16.7479C104.963 16.7479 103.671 17.0764 102.549 17.7334C101.427 18.3903 100.546 19.3073 99.9076 20.4844C99.2689 21.6523 98.9496 23.0072 98.9496 24.5492C98.9496 26.073 99.2598 27.4234 99.8803 28.6004C100.51 29.7684 101.386 30.6853 102.508 31.3514C103.63 32.0175 104.935 32.3505 106.422 32.3505ZM106.422 28.8742C105.264 28.8742 104.383 28.4864 103.781 27.7108C103.188 26.9261 102.891 25.8723 102.891 24.5492C102.891 23.2627 103.174 22.2225 103.74 21.4287C104.315 20.6258 105.209 20.2243 106.422 20.2243C107.599 20.2243 108.484 20.6167 109.078 21.4013C109.68 22.186 109.981 23.2353 109.981 24.5492C109.981 25.8175 109.684 26.8577 109.091 27.6698C108.507 28.4727 107.618 28.8742 106.422 28.8742ZM122.307 32.3505C124.241 32.3505 125.756 31.9171 126.851 31.0503C127.946 30.1835 128.493 28.9928 128.493 27.4781C128.493 26.3285 128.138 25.4206 127.426 24.7545C126.723 24.0885 125.528 23.5364 123.84 23.0985C122.69 22.8065 121.833 22.5693 121.267 22.3868C120.71 22.2043 120.341 22.0264 120.158 21.853C119.985 21.6796 119.898 21.4652 119.898 21.2097C119.898 20.7809 120.104 20.4524 120.514 20.2243C120.934 19.9962 121.486 19.905 122.17 19.9506C123.621 20.0601 124.415 20.6805 124.552 21.8119L128.356 21.1276C128.165 19.7863 127.508 18.7234 126.386 17.9387C125.263 17.1448 123.831 16.7479 122.088 16.7479C120.3 16.7479 118.872 17.1677 117.804 18.0071C116.737 18.8465 116.203 19.978 116.203 21.4013C116.203 22.5328 116.572 23.4269 117.311 24.0839C118.051 24.7317 119.323 25.2883 121.13 25.7536C122.198 26.0365 122.982 26.2646 123.484 26.438C123.995 26.6113 124.324 26.7893 124.47 26.9717C124.616 27.1451 124.689 27.3778 124.689 27.6698C124.689 28.1351 124.506 28.5001 124.141 28.7647C123.776 29.0202 123.256 29.1479 122.581 29.1479C121.76 29.1479 121.08 28.9517 120.542 28.5594C120.012 28.167 119.67 27.6241 119.515 26.9307L115.71 27.5055C115.957 29.0475 116.65 30.2428 117.791 31.0914C118.94 31.9308 120.446 32.3505 122.307 32.3505ZM140.37 31.9399V28.8468C139.494 28.9654 138.695 29.0019 137.975 28.9563C137.254 28.9107 136.729 28.6278 136.401 28.1077C136.227 27.834 136.132 27.469 136.113 27.0128C136.104 26.5475 136.1 26.0274 136.1 25.4525V20.0327H140.37V17.1585H136.1V13.0526H132.377V17.1585H129.859V20.0327H132.377V25.6715C132.377 26.5566 132.386 27.3504 132.404 28.053C132.423 28.7464 132.614 29.4308 132.979 30.106C133.381 30.8268 133.965 31.3514 134.731 31.6799C135.507 31.9992 136.382 32.168 137.359 32.1863C138.344 32.2137 139.348 32.1316 140.37 31.9399Z" fill="#FFB640"/>
<path d="M143.664 31.9399H152.396C154.412 31.9399 155.909 31.3879 156.885 30.2839C157.87 29.1707 158.363 27.7336 158.363 25.9726C158.363 25.0237 158.13 24.1523 157.665 23.3585C157.209 22.5556 156.52 21.9625 155.598 21.5793C156.182 21.2234 156.639 20.7216 156.967 20.0738C157.296 19.4259 157.46 18.6549 157.46 17.7607C157.46 16.8939 157.259 16.0362 156.858 15.1877C156.456 14.3391 155.822 13.6365 154.955 13.08C154.088 12.5143 152.952 12.2314 151.547 12.2314H143.664V31.9399ZM147.441 19.9232V15.7078H151.492C152.204 15.7078 152.747 15.9131 153.121 16.3237C153.495 16.7343 153.682 17.2407 153.682 17.8429C153.682 18.5637 153.472 19.0929 153.053 19.4305C152.642 19.759 152.122 19.9232 151.492 19.9232H147.441ZM147.441 28.4362V23.3996H152.013C152.879 23.3996 153.527 23.6322 153.956 24.0976C154.394 24.5538 154.613 25.1332 154.613 25.8358C154.613 26.6296 154.367 27.2637 153.874 27.7382C153.39 28.2035 152.77 28.4362 152.013 28.4362H147.441ZM161.366 15.1056H165.089V11.8208H161.366V15.1056ZM161.366 31.9399H165.089V17.1585H161.366V31.9399ZM169.192 31.9399H172.942V24.385C172.942 22.6696 173.618 21.5017 174.968 20.8813C175.406 20.6714 175.894 20.5482 176.432 20.5117C176.98 20.4661 177.459 20.5072 177.87 20.6349V17.1585C177.203 17.0764 176.537 17.0947 175.871 17.2133C175.205 17.3228 174.603 17.5418 174.065 17.8702C173.718 18.071 173.412 18.3128 173.148 18.5956C172.892 18.8785 172.669 19.1933 172.477 19.54V17.1585H169.192V31.9399ZM186.2 32.3505C187.012 32.3505 187.751 32.241 188.418 32.0221C189.084 31.8031 189.677 31.4928 190.197 31.0914V31.9399H193.482V12.2314H189.731V17.6512C189.275 17.3593 188.764 17.1357 188.199 16.9806C187.642 16.8255 187.04 16.7479 186.392 16.7479C184.978 16.7479 183.746 17.0855 182.697 17.7607C181.647 18.4359 180.831 19.3621 180.247 20.5391C179.672 21.707 179.384 23.0437 179.384 24.5492C179.384 26.0274 179.667 27.355 180.233 28.532C180.808 29.709 181.606 30.6397 182.628 31.324C183.65 32.0084 184.841 32.3505 186.2 32.3505ZM186.803 29.0384C186 29.0384 185.343 28.8377 184.832 28.4362C184.321 28.0347 183.942 27.4964 183.696 26.8212C183.449 26.1369 183.326 25.3796 183.326 24.5492C183.326 23.728 183.454 22.9799 183.709 22.3047C183.965 21.6203 184.357 21.0774 184.886 20.676C185.425 20.2654 186.109 20.0601 186.939 20.0601C188.107 20.0601 188.942 20.4752 189.444 21.3055C189.946 22.1267 190.197 23.208 190.197 24.5492C190.197 25.8905 189.941 26.9763 189.43 27.8066C188.928 28.6278 188.053 29.0384 186.803 29.0384Z" fill="#121212"/>
<path d="M142.318 60.7801C141.566 60.7801 141.038 60.5321 140.734 60.0361C140.446 59.5241 140.302 58.9241 140.302 58.2361C140.302 57.4521 140.446 56.5321 140.734 55.4761C141.022 54.4201 141.398 53.3161 141.862 52.1641C142.342 50.9961 142.862 49.8601 143.422 48.7561C143.998 47.6361 144.574 46.6281 145.15 45.7321C145.726 44.8361 146.254 44.1241 146.734 43.5961C147.23 43.0521 147.63 42.7801 147.934 42.7801C148.142 42.7801 148.318 42.8921 148.462 43.1161C148.606 43.3241 148.718 43.5801 148.798 43.8841C148.894 44.1721 148.942 44.4441 148.942 44.7001C148.942 45.1321 148.83 45.7001 148.606 46.4041C148.398 47.0921 148.094 47.8521 147.694 48.6841C147.31 49.5161 146.846 50.3721 146.302 51.2521C145.774 52.1161 145.182 52.9401 144.526 53.7241C143.886 54.5081 143.198 55.1881 142.462 55.7641C142.398 56.1641 142.334 56.5641 142.27 56.9641C142.222 57.3481 142.198 57.7001 142.198 58.0201C142.198 58.5961 142.294 59.0201 142.486 59.2921C142.678 59.5481 142.926 59.6761 143.23 59.6761C143.63 59.6761 144.038 59.4921 144.454 59.1241C144.886 58.7401 145.294 58.2601 145.678 57.6841C146.078 57.0921 146.422 56.4841 146.71 55.8601L147.286 56.1721C146.598 57.5961 145.83 58.7241 144.982 59.5561C144.134 60.3721 143.246 60.7801 142.318 60.7801ZM142.894 54.2761C143.566 53.5401 144.198 52.7241 144.79 51.8281C145.382 50.9321 145.902 50.0441 146.35 49.1641C146.814 48.2681 147.174 47.4601 147.43 46.7401C147.686 46.0041 147.822 45.4361 147.838 45.0361V44.9641C147.71 44.9641 147.502 45.1481 147.214 45.5161C146.942 45.8681 146.614 46.3561 146.23 46.9801C145.846 47.6041 145.446 48.3161 145.03 49.1161C144.63 49.9161 144.238 50.7641 143.854 51.6601C143.486 52.5401 143.166 53.4121 142.894 54.2761ZM147.721 60.8281C147.001 60.8281 146.505 60.5881 146.233 60.1081C145.977 59.6441 145.849 59.1321 145.849 58.5721C145.849 58.0601 145.929 57.5401 146.089 57.0121C146.249 56.4681 146.465 55.9641 146.737 55.5001C147.025 55.0361 147.337 54.6681 147.673 54.3961C148.025 54.1081 148.377 53.9641 148.729 53.9641C148.841 53.9641 148.969 53.9881 149.113 54.0361C149.273 54.0681 149.385 54.1241 149.449 54.2041C149.193 54.5241 148.929 54.9401 148.657 55.4521C148.401 55.9481 148.185 56.4681 148.009 57.0121C147.849 57.5561 147.769 58.0521 147.769 58.5001C147.769 58.8201 147.825 59.0841 147.937 59.2921C148.065 59.5001 148.281 59.6041 148.585 59.6041C148.889 59.6041 149.249 59.4361 149.665 59.1001C150.097 58.7481 150.505 58.3481 150.889 57.9001C150.377 57.4361 150.009 56.9321 149.785 56.3881C149.561 55.8281 149.449 55.1561 149.449 54.3721C149.449 54.0361 149.529 53.6521 149.689 53.2201C149.865 52.7881 150.137 52.4121 150.505 52.0921C150.889 51.7721 151.401 51.6121 152.041 51.6121C152.729 51.6121 153.209 51.8041 153.481 52.1881C153.769 52.5721 153.913 53.0281 153.913 53.5561C153.913 54.1481 153.753 54.8121 153.433 55.5481C153.129 56.2841 152.761 56.9801 152.329 57.6361C152.521 57.7321 152.745 57.7801 153.001 57.7801C153.241 57.7801 153.529 57.7241 153.865 57.6121C154.201 57.5001 154.529 57.3161 154.849 57.0601C155.169 56.7881 155.425 56.4281 155.617 55.9801L156.049 56.2921C155.697 57.1081 155.225 57.7081 154.633 58.0921C154.057 58.4601 153.489 58.6441 152.929 58.6441C152.721 58.6441 152.513 58.6281 152.305 58.5961C152.097 58.5481 151.905 58.4921 151.729 58.4281C151.185 59.0681 150.561 59.6281 149.857 60.1081C149.153 60.5881 148.441 60.8281 147.721 60.8281ZM151.513 57.1321C151.897 56.5721 152.225 55.9721 152.497 55.3321C152.769 54.6921 152.905 54.1001 152.905 53.5561C152.905 52.8521 152.681 52.5001 152.233 52.5001C151.929 52.5001 151.617 52.7161 151.297 53.1481C150.977 53.5801 150.817 54.1241 150.817 54.7801C150.817 55.1161 150.873 55.5241 150.985 56.0041C151.113 56.4841 151.289 56.8601 151.513 57.1321ZM156.266 66.7801C155.866 66.7801 155.49 66.6601 155.138 66.4201C154.802 66.1801 154.634 65.7881 154.634 65.2441C154.634 64.7321 154.778 64.2681 155.066 63.8521C155.37 63.4521 155.762 63.0761 156.242 62.7241C156.738 62.3881 157.266 62.0761 157.826 61.7881C158.386 61.5001 158.93 61.2281 159.458 60.9721C159.634 60.5401 159.802 60.0761 159.962 59.5801C160.122 59.0841 160.274 58.5481 160.418 57.9721C159.858 58.6761 159.266 59.2601 158.642 59.7241C158.034 60.1881 157.41 60.4201 156.77 60.4201C156.13 60.4201 155.618 60.1961 155.234 59.7481C154.866 59.3001 154.682 58.7081 154.682 57.9721C154.682 57.1241 154.89 56.3321 155.306 55.5961C155.738 54.8441 156.29 54.1801 156.962 53.6041C157.634 53.0121 158.354 52.5561 159.122 52.2361C159.89 51.9001 160.626 51.7321 161.33 51.7321C161.842 51.7321 162.226 51.8281 162.482 52.0201C162.738 52.1961 162.866 52.4041 162.866 52.6441C162.866 52.8361 162.81 52.9881 162.698 53.1001C162.586 53.2121 162.514 53.2761 162.482 53.2921C162.322 53.1161 162.154 53.0041 161.978 52.9561C161.818 52.8921 161.626 52.8601 161.402 52.8601C160.778 52.8601 160.178 53.0361 159.602 53.3881C159.026 53.7401 158.514 54.1961 158.066 54.7561C157.634 55.3001 157.29 55.8681 157.034 56.4601C156.778 57.0521 156.65 57.5881 156.65 58.0681C156.65 58.3881 156.722 58.6361 156.866 58.8121C157.01 58.9721 157.186 59.0521 157.394 59.0521C157.842 59.0521 158.386 58.7641 159.026 58.1881C159.666 57.5961 160.282 56.8841 160.874 56.0521C160.922 55.8121 160.97 55.5961 161.018 55.4041C161.178 54.7641 161.37 54.2921 161.594 53.9881C161.818 53.6841 162.13 53.5321 162.53 53.5321C162.61 53.5321 162.706 53.5401 162.818 53.5561C162.946 53.5721 163.082 53.5961 163.226 53.6281C163.226 53.9161 163.146 54.3881 162.986 55.0441C162.826 55.7001 162.61 56.4681 162.338 57.3481C162.066 58.2121 161.762 59.1001 161.426 60.0121C161.922 59.8041 162.426 59.5161 162.938 59.1481C163.45 58.7641 163.922 58.3081 164.354 57.7801C164.786 57.2361 165.114 56.6361 165.338 55.9801L165.77 56.4121C165.514 57.1481 165.114 57.8201 164.57 58.4281C164.042 59.0361 163.466 59.5641 162.842 60.0121C162.218 60.4441 161.642 60.7801 161.114 61.0201C160.682 62.0761 160.21 63.0361 159.698 63.9001C159.202 64.7801 158.666 65.4761 158.09 65.9881C157.53 66.5161 156.922 66.7801 156.266 66.7801ZM156.17 65.6761C156.458 65.6761 156.85 65.4041 157.346 64.8601C157.858 64.3161 158.41 63.3961 159.002 62.1001C158.41 62.3881 157.866 62.6841 157.37 62.9881C156.874 63.2921 156.474 63.6121 156.17 63.9481C155.866 64.2841 155.714 64.6361 155.714 65.0041C155.714 65.4521 155.866 65.6761 156.17 65.6761ZM169.498 49.9561C169.194 49.9561 168.914 49.8841 168.658 49.7401C168.418 49.5801 168.298 49.3401 168.298 49.0201C168.298 48.6361 168.506 48.3081 168.922 48.0361C169.338 47.7641 169.77 47.6281 170.218 47.6281C170.506 47.6281 170.746 47.6921 170.938 47.8201C171.146 47.9481 171.25 48.1801 171.25 48.5161C171.25 48.8521 171.066 49.1801 170.698 49.5001C170.33 49.8041 169.93 49.9561 169.498 49.9561ZM166.666 60.7801C165.962 60.7801 165.434 60.5721 165.082 60.1561C164.73 59.7401 164.554 59.2361 164.554 58.6441C164.554 58.2761 164.618 57.8121 164.746 57.2521C164.874 56.6921 165.05 56.1081 165.274 55.5001C165.514 54.8761 165.786 54.2921 166.09 53.7481C166.394 53.2041 166.722 52.7641 167.074 52.4281C167.426 52.0761 167.778 51.9001 168.13 51.9001C168.322 51.9001 168.49 51.9641 168.634 52.0921C168.778 52.2041 168.85 52.3721 168.85 52.5961C168.85 52.8041 168.722 53.1161 168.466 53.5321C168.226 53.9481 167.938 54.4281 167.602 54.9721C167.282 55.5161 166.994 56.0841 166.738 56.6761C166.498 57.2521 166.378 57.8041 166.378 58.3321C166.378 58.8441 166.466 59.1881 166.642 59.3641C166.834 59.5241 167.106 59.6041 167.458 59.6041C168.002 59.6041 168.594 59.3321 169.234 58.7881C169.874 58.2441 170.538 57.2921 171.226 55.9321L171.586 56.3161C171.026 57.7241 170.314 58.8201 169.45 59.6041C168.586 60.3881 167.658 60.7801 166.666 60.7801ZM173.413 61.2841C172.613 61.2841 171.965 61.1161 171.469 60.7801C170.989 60.4601 170.645 60.0521 170.437 59.5561C170.229 59.0441 170.125 58.5241 170.125 57.9961C170.125 57.5321 170.189 57.1721 170.317 56.9161C170.445 56.6601 170.605 56.4761 170.797 56.3641C170.989 56.2361 171.165 56.1401 171.325 56.0761C171.501 56.0121 171.629 55.9401 171.709 55.8601C172.109 55.4441 172.517 54.9641 172.933 54.4201C173.365 53.8601 173.733 53.2441 174.037 52.5721V52.3321C174.037 51.6921 174.141 51.2441 174.349 50.9881C174.573 50.7161 174.829 50.5801 175.117 50.5801C175.309 50.5801 175.445 50.6281 175.525 50.7241C175.621 50.8201 175.677 50.9321 175.693 51.0601C175.693 51.1561 175.669 51.2681 175.621 51.3961C175.589 51.5241 175.573 51.7001 175.573 51.9241C175.573 52.4041 175.685 52.9561 175.909 53.5801C176.149 54.1881 176.381 54.8361 176.605 55.5241C176.845 56.2121 176.965 56.9161 176.965 57.6361C176.965 57.8281 176.957 58.0041 176.941 58.1641C176.925 58.3241 176.901 58.4761 176.869 58.6201C177.365 58.4921 177.853 58.2201 178.333 57.8041C178.813 57.3721 179.269 56.7401 179.701 55.9081L179.989 56.1241C179.685 57.0361 179.245 57.7721 178.669 58.3321C178.093 58.8761 177.421 59.2121 176.653 59.3401C176.397 59.9961 175.973 60.4841 175.381 60.8041C174.805 61.1241 174.149 61.2841 173.413 61.2841ZM174.973 58.5721C175.005 58.4601 175.021 58.3321 175.021 58.1881C175.037 58.0281 175.045 57.9081 175.045 57.8281C175.029 57.1081 174.933 56.3961 174.757 55.6921C174.581 54.9881 174.405 54.2681 174.229 53.5321C173.941 54.0281 173.605 54.5641 173.221 55.1401C172.837 55.7161 172.477 56.1801 172.141 56.5321C172.397 56.9641 172.773 57.3721 173.269 57.7561C173.765 58.1401 174.333 58.4121 174.973 58.5721ZM173.245 60.2281C173.565 60.2281 173.861 60.1481 174.133 59.9881C174.405 59.8281 174.621 59.5961 174.781 59.2921C174.125 59.1481 173.533 58.8921 173.005 58.5241C172.477 58.1561 172.069 57.7801 171.781 57.3961C171.557 57.4441 171.445 57.6601 171.445 58.0441C171.445 58.5721 171.597 59.0681 171.901 59.5321C172.205 59.9961 172.653 60.2281 173.245 60.2281ZM181.204 61.1641C180.5 61.1641 179.932 60.9561 179.5 60.5401C179.068 60.1241 178.852 59.4921 178.852 58.6441C178.852 57.9881 178.972 57.1721 179.212 56.1961C179.468 55.2201 179.788 54.2121 180.172 53.1721C180.06 53.1401 179.924 53.1161 179.764 53.1001C179.62 53.0681 179.476 53.0201 179.332 52.9561V52.2121C179.588 52.2441 179.796 52.2681 179.956 52.2841C180.132 52.3001 180.308 52.3161 180.484 52.3321C180.82 51.4841 181.18 50.6681 181.564 49.8841C181.964 49.0841 182.356 48.3721 182.74 47.7481C183.14 47.1241 183.516 46.6361 183.868 46.2841C184.22 45.9161 184.532 45.7321 184.804 45.7321C184.964 45.7321 185.116 45.7961 185.26 45.9241C185.404 46.0361 185.476 46.2041 185.476 46.4281C185.476 46.7481 185.308 47.2041 184.972 47.7961C184.652 48.3881 184.252 49.0841 183.772 49.8841C183.292 50.6681 182.828 51.5081 182.38 52.4041H183.124C183.828 52.4041 184.46 52.3961 185.02 52.3801C185.596 52.3481 186.18 52.3001 186.772 52.2361V53.0281C185.892 53.1081 185.084 53.1721 184.348 53.2201C183.612 53.2681 182.908 53.3001 182.236 53.3161H181.948C181.612 54.1001 181.316 54.9081 181.06 55.7401C180.82 56.5561 180.7 57.3561 180.7 58.1401C180.7 58.7961 180.804 59.2601 181.012 59.5321C181.22 59.8041 181.548 59.9401 181.996 59.9401C182.796 59.9401 183.612 59.5801 184.444 58.8601C185.292 58.1241 186.028 57.1321 186.652 55.8841L186.988 56.1241C186.572 57.0681 186.052 57.9241 185.428 58.6921C184.82 59.4601 184.156 60.0601 183.436 60.4921C182.716 60.9401 181.972 61.1641 181.204 61.1641ZM190.686 49.9561C190.382 49.9561 190.102 49.8841 189.846 49.7401C189.606 49.5801 189.486 49.3401 189.486 49.0201C189.486 48.6361 189.694 48.3081 190.11 48.0361C190.526 47.7641 190.958 47.6281 191.406 47.6281C191.694 47.6281 191.934 47.6921 192.126 47.8201C192.334 47.9481 192.438 48.1801 192.438 48.5161C192.438 48.8521 192.254 49.1801 191.886 49.5001C191.518 49.8041 191.118 49.9561 190.686 49.9561ZM187.854 60.7801C187.15 60.7801 186.622 60.5721 186.27 60.1561C185.918 59.7401 185.742 59.2361 185.742 58.6441C185.742 58.2761 185.806 57.8121 185.934 57.2521C186.062 56.6921 186.238 56.1081 186.462 55.5001C186.702 54.8761 186.974 54.2921 187.278 53.7481C187.582 53.2041 187.91 52.7641 188.262 52.4281C188.614 52.0761 188.966 51.9001 189.318 51.9001C189.51 51.9001 189.678 51.9641 189.822 52.0921C189.966 52.2041 190.038 52.3721 190.038 52.5961C190.038 52.8041 189.91 53.1161 189.654 53.5321C189.414 53.9481 189.126 54.4281 188.79 54.9721C188.47 55.5161 188.182 56.0841 187.926 56.6761C187.686 57.2521 187.566 57.8041 187.566 58.3321C187.566 58.8441 187.654 59.1881 187.83 59.3641C188.022 59.5241 188.294 59.6041 188.646 59.6041C189.19 59.6041 189.782 59.3321 190.422 58.7881C191.062 58.2441 191.726 57.2921 192.414 55.9321L192.774 56.3161C192.214 57.7241 191.502 58.8201 190.638 59.6041C189.774 60.3881 188.846 60.7801 187.854 60.7801ZM194.505 61.4041C193.673 61.4041 192.985 61.1401 192.441 60.6121C191.913 60.1001 191.649 59.3081 191.649 58.2361C191.649 57.4521 191.801 56.6841 192.105 55.9321C192.409 55.1801 192.817 54.5081 193.329 53.9161C193.841 53.3081 194.409 52.8281 195.033 52.4761C195.673 52.1241 196.321 51.9481 196.977 51.9481C197.649 51.9481 198.129 52.1161 198.417 52.4521C198.721 52.7881 198.873 53.1801 198.873 53.6281C198.873 54.0761 198.761 54.5161 198.537 54.9481C198.329 55.3641 198.041 55.5721 197.673 55.5721C197.369 55.5721 197.121 55.4201 196.929 55.1161C197.089 55.0041 197.257 54.7961 197.433 54.4921C197.609 54.1881 197.697 53.7961 197.697 53.3161C197.697 53.0441 197.545 52.9081 197.241 52.9081C196.841 52.9081 196.417 53.0921 195.969 53.4601C195.537 53.8121 195.129 54.2761 194.745 54.8521C194.377 55.4121 194.073 56.0121 193.833 56.6521C193.609 57.2761 193.497 57.8521 193.497 58.3801C193.497 58.8281 193.609 59.2441 193.833 59.6281C194.073 59.9961 194.529 60.1801 195.201 60.1801C195.809 60.1801 196.441 60.0041 197.097 59.6521C197.753 59.3001 198.369 58.8121 198.945 58.1881C199.521 57.5481 199.985 56.7881 200.337 55.9081L200.817 56.3401C200.433 57.3161 199.897 58.1881 199.209 58.9561C198.537 59.7081 197.785 60.3001 196.953 60.7321C196.137 61.1801 195.321 61.4041 194.505 61.4041ZM202.593 61.2841C201.793 61.2841 201.145 61.1161 200.649 60.7801C200.169 60.4601 199.825 60.0521 199.617 59.5561C199.409 59.0441 199.305 58.5241 199.305 57.9961C199.305 57.5321 199.369 57.1721 199.497 56.9161C199.625 56.6601 199.785 56.4761 199.977 56.3641C200.169 56.2361 200.345 56.1401 200.505 56.0761C200.681 56.0121 200.809 55.9401 200.889 55.8601C201.289 55.4441 201.697 54.9641 202.113 54.4201C202.545 53.8601 202.913 53.2441 203.217 52.5721V52.3321C203.217 51.6921 203.321 51.2441 203.529 50.9881C203.753 50.7161 204.009 50.5801 204.297 50.5801C204.489 50.5801 204.625 50.6281 204.705 50.7241C204.801 50.8201 204.857 50.9321 204.873 51.0601C204.873 51.1561 204.849 51.2681 204.801 51.3961C204.769 51.5241 204.753 51.7001 204.753 51.9241C204.753 52.4041 204.865 52.9561 205.089 53.5801C205.329 54.1881 205.561 54.8361 205.785 55.5241C206.025 56.2121 206.145 56.9161 206.145 57.6361C206.145 57.8281 206.137 58.0041 206.121 58.1641C206.105 58.3241 206.081 58.4761 206.049 58.6201C206.545 58.4921 207.033 58.2201 207.513 57.8041C207.993 57.3721 208.449 56.7401 208.881 55.9081L209.169 56.1241C208.865 57.0361 208.425 57.7721 207.849 58.3321C207.273 58.8761 206.601 59.2121 205.833 59.3401C205.577 59.9961 205.153 60.4841 204.561 60.8041C203.985 61.1241 203.329 61.2841 202.593 61.2841ZM204.153 58.5721C204.185 58.4601 204.201 58.3321 204.201 58.1881C204.217 58.0281 204.225 57.9081 204.225 57.8281C204.209 57.1081 204.113 56.3961 203.937 55.6921C203.761 54.9881 203.585 54.2681 203.409 53.5321C203.121 54.0281 202.785 54.5641 202.401 55.1401C202.017 55.7161 201.657 56.1801 201.321 56.5321C201.577 56.9641 201.953 57.3721 202.449 57.7561C202.945 58.1401 203.513 58.4121 204.153 58.5721ZM202.425 60.2281C202.745 60.2281 203.041 60.1481 203.313 59.9881C203.585 59.8281 203.801 59.5961 203.961 59.2921C203.305 59.1481 202.713 58.8921 202.185 58.5241C201.657 58.1561 201.249 57.7801 200.961 57.3961C200.737 57.4441 200.625 57.6601 200.625 58.0441C200.625 58.5721 200.777 59.0681 201.081 59.5321C201.385 59.9961 201.833 60.2281 202.425 60.2281Z" fill="#121212"/>
</svg>
