<svg width="224" height="81" viewBox="0 0 224 81" fill="none" xmlns="http://www.w3.org/2000/svg">
<rect x="1.75" y="1.38623" width="220.391" height="77.9649" rx="21.5335" fill="black" stroke="#FFB640" stroke-width="2.5"/>
<path d="M39.9749 60.2659C38.6688 60.1972 37.4397 59.646 36.5412 58.7261C35.4665 57.7254 34.5074 56.6147 33.6809 55.4133C32.3898 53.6242 31.3693 51.666 30.6501 49.5978C29.8356 47.3729 29.4067 45.0329 29.381 42.6727C29.3184 40.3566 29.9117 38.0682 31.0968 36.0551C31.9642 34.6039 33.2014 33.3921 34.6904 32.5352C36.1629 31.682 37.8433 31.2228 39.5595 31.2045C40.8532 31.2786 42.1246 31.5647 43.3193 32.0508C45.2116 32.8565 47.3652 32.7703 49.2823 32.0255C49.3924 31.9827 49.502 31.9389 49.6112 31.894C50.8735 31.417 52.21 31.1499 53.5642 31.104C53.745 31.104 53.9236 31.104 54.096 31.1241C58.638 31.2516 57.237 37.3962 57.1629 41.9394C57.1612 42.0441 57.1616 42.1492 57.1641 42.2545C57.1366 44.5654 58.1324 46.7772 59.8998 48.3314C60.2303 48.636 60.5832 48.9155 60.9556 49.1679C61.8413 49.7682 62.3576 50.8569 61.9335 51.8391C61.3574 53.1363 60.6468 54.3736 59.8126 55.5319C59.025 56.6921 58.1083 57.7653 57.0789 58.7321C56.1393 59.6345 54.8867 60.1668 53.5642 60.2257C52.4433 60.1776 51.3421 59.9231 50.3196 59.4759C49.217 59.011 48.0321 58.7564 46.8298 58.7261C45.5936 58.7496 44.3736 59.0027 43.2362 59.4719C42.2537 59.9008 41.2041 60.1678 40.1307 60.2619L39.9749 60.2659ZM46.5182 31.104C46.2428 31.104 46.0213 30.8952 46.0067 30.6201C46.0021 30.5349 45.9996 30.4496 45.9989 30.3642C46.0669 28.3563 46.8777 26.4388 48.2839 24.9608C49.0698 24.1117 50.0223 23.4222 51.0861 22.9325C51.8509 22.5516 52.6703 22.2876 53.5154 22.1487C53.9386 22.0792 54.3079 22.3951 54.3079 22.824C54.2785 24.8003 53.5112 26.6996 52.1476 28.1711C50.811 29.9055 48.7502 30.9791 46.5182 31.104Z" fill="white"/>
<path d="M97.8304 36.0581C101.007 36.0581 102.845 34.0881 102.845 30.8301C102.845 27.5875 101.007 25.6327 97.9373 25.6327H94.4554V36.0581H97.8304ZM96.0284 34.6837V27.0071H97.8406C100.121 27.0071 101.297 28.3714 101.297 30.8301C101.297 33.299 100.121 34.6837 97.7439 34.6837H96.0284ZM107.972 36.2159C110.176 36.2159 111.617 34.6022 111.617 32.1842C111.617 29.7509 110.176 28.1372 107.972 28.1372C105.768 28.1372 104.327 29.7509 104.327 32.1842C104.327 34.6022 105.768 36.2159 107.972 36.2159ZM107.977 34.9382C106.537 34.9382 105.865 33.6808 105.865 32.1791C105.865 30.6825 106.537 29.4099 107.977 29.4099C109.408 29.4099 110.08 30.6825 110.08 32.1791C110.08 33.6808 109.408 34.9382 107.977 34.9382ZM114.773 36.0581H116.321L117.909 30.4127H118.026L119.614 36.0581H121.167L123.463 28.2391H121.89L120.367 33.9557H120.291L118.764 28.2391H117.191L115.654 33.9812H115.577L114.045 28.2391H112.472L114.773 36.0581ZM126.429 31.4155C126.429 30.1684 127.193 29.4557 128.251 29.4557C129.285 29.4557 129.911 30.1327 129.911 31.2679V36.0581H131.433V31.0847C131.433 29.1503 130.369 28.1372 128.771 28.1372C127.595 28.1372 126.826 28.6819 126.465 29.5117H126.368V28.2391H124.907V36.0581H126.429V31.4155ZM134.996 25.6327H133.474V36.0581H134.996V25.6327ZM140.338 36.2159C142.542 36.2159 143.982 34.6022 143.982 32.1842C143.982 29.7509 142.542 28.1372 140.338 28.1372C138.133 28.1372 136.693 29.7509 136.693 32.1842C136.693 34.6022 138.133 36.2159 140.338 36.2159ZM140.343 34.9382C138.902 34.9382 138.23 33.6808 138.23 32.1791C138.23 30.6825 138.902 29.4099 140.343 29.4099C141.773 29.4099 142.445 30.6825 142.445 32.1791C142.445 33.6808 141.773 34.9382 140.343 34.9382ZM147.957 36.2312C149.25 36.2312 149.978 35.5745 150.268 34.9891H150.329V36.0581H151.816V30.8658C151.816 28.5903 150.024 28.1372 148.782 28.1372C147.366 28.1372 146.063 28.7074 145.554 30.1327L146.985 30.4585C147.209 29.9037 147.779 29.3692 148.802 29.3692C149.784 29.3692 150.288 29.8833 150.288 30.769V30.8047C150.288 31.3595 149.718 31.3494 148.313 31.5123C146.832 31.6853 145.315 32.0722 145.315 33.8488C145.315 35.3862 146.47 36.2312 147.957 36.2312ZM148.288 35.0095C147.427 35.0095 146.806 34.6226 146.806 33.8692C146.806 33.0547 147.529 32.7645 148.41 32.6475C148.904 32.5813 150.075 32.4489 150.293 32.23V33.238C150.293 34.1644 149.555 35.0095 148.288 35.0095ZM156.77 36.2108C158.195 36.2108 158.755 35.3403 159.03 34.8415H159.157V36.0581H160.644V25.6327H159.122V29.5066H159.03C158.755 29.023 158.236 28.1372 156.78 28.1372C154.891 28.1372 153.502 29.6288 153.502 32.1639C153.502 34.6938 154.871 36.2108 156.77 36.2108ZM157.106 34.9127C155.747 34.9127 155.039 33.7165 155.039 32.1486C155.039 30.596 155.731 29.4302 157.106 29.4302C158.434 29.4302 159.147 30.5145 159.147 32.1486C159.147 33.7928 158.419 34.9127 157.106 34.9127ZM169.903 36.2159C172.108 36.2159 173.548 34.6022 173.548 32.1842C173.548 29.7509 172.108 28.1372 169.903 28.1372C167.699 28.1372 166.259 29.7509 166.259 32.1842C166.259 34.6022 167.699 36.2159 169.903 36.2159ZM169.909 34.9382C168.468 34.9382 167.796 33.6808 167.796 32.1791C167.796 30.6825 168.468 29.4099 169.909 29.4099C171.339 29.4099 172.011 30.6825 172.011 32.1791C172.011 33.6808 171.339 34.9382 169.909 34.9382ZM176.769 31.4155C176.769 30.1684 177.533 29.4557 178.592 29.4557C179.625 29.4557 180.251 30.1327 180.251 31.2679V36.0581H181.773V31.0847C181.773 29.1503 180.709 28.1372 179.111 28.1372C177.935 28.1372 177.166 28.6819 176.805 29.5117H176.708V28.2391H175.247V36.0581H176.769V31.4155ZM96.3399 58.0581L97.4411 54.7676H102.458L103.566 58.0581H106.146L101.442 44.7136H98.4576L93.7597 58.0581H96.3399ZM98.0927 52.8259L99.8976 47.4503H100.002L101.807 52.8259H98.0927ZM107.8 61.8113H110.158V56.4813H110.256C110.628 57.211 111.403 58.234 113.123 58.234C115.482 58.234 117.248 56.364 117.248 53.0669C117.248 49.7308 115.43 47.9194 113.117 47.9194C111.351 47.9194 110.615 48.9815 110.256 49.7047H110.119V48.0497H107.8V61.8113ZM110.113 53.0539C110.113 51.1122 110.947 49.8546 112.465 49.8546C114.035 49.8546 114.843 51.1904 114.843 53.0539C114.843 54.9305 114.022 56.2988 112.465 56.2988C110.96 56.2988 110.113 54.9956 110.113 53.0539ZM119.268 61.8113H121.626V56.4813H121.724C122.096 57.211 122.871 58.234 124.591 58.234C126.95 58.234 128.716 56.364 128.716 53.0669C128.716 49.7308 126.898 47.9194 124.585 47.9194C122.819 47.9194 122.083 48.9815 121.724 49.7047H121.587V48.0497H119.268V61.8113ZM121.581 53.0539C121.581 51.1122 122.415 49.8546 123.933 49.8546C125.503 49.8546 126.311 51.1904 126.311 53.0539C126.311 54.9305 125.49 56.2988 123.933 56.2988C122.428 56.2988 121.581 54.9956 121.581 53.0539ZM143.197 50.6952C142.871 49.001 141.516 47.9194 139.17 47.9194C136.76 47.9194 135.118 49.1053 135.124 50.9558C135.118 52.4154 136.017 53.3797 137.939 53.7772L139.646 54.1355C140.565 54.3375 140.995 54.7089 140.995 55.2758C140.995 55.96 140.252 56.4747 139.131 56.4747C138.05 56.4747 137.346 56.0056 137.144 55.1064L134.844 55.328C135.137 57.1654 136.681 58.2536 139.138 58.2536C141.64 58.2536 143.406 56.9569 143.412 55.0608C143.406 53.6338 142.487 52.7607 140.597 52.3502L138.89 51.9853C137.874 51.7573 137.47 51.4054 137.476 50.8255C137.47 50.1478 138.219 49.6787 139.203 49.6787C140.291 49.6787 140.865 50.2716 141.047 50.9297L143.197 50.6952ZM150.355 48.0497H148.381V45.6519H146.022V48.0497H144.601V49.8742H146.022V55.4387C146.009 57.3218 147.377 58.2471 149.15 58.1949C149.821 58.1754 150.283 58.0451 150.537 57.9604L150.14 56.1164C150.01 56.149 149.742 56.2076 149.449 56.2076C148.856 56.2076 148.381 55.9991 148.381 55.0478V49.8742H150.355V48.0497ZM156.586 58.2536C159.518 58.2536 161.381 56.188 161.381 53.093C161.381 49.9914 159.518 47.9194 156.586 47.9194C153.654 47.9194 151.79 49.9914 151.79 53.093C151.79 56.188 153.654 58.2536 156.586 58.2536ZM156.599 56.364C154.976 56.364 154.181 54.9175 154.181 53.0865C154.181 51.2555 154.976 49.7895 156.599 49.7895C158.195 49.7895 158.99 51.2555 158.99 53.0865C158.99 54.9175 158.195 56.364 156.599 56.364ZM163.383 58.0581H165.742V52.1743C165.742 50.9037 166.7 50.0045 167.997 50.0045C168.394 50.0045 168.889 50.0762 169.091 50.1413V47.9715C168.876 47.9324 168.505 47.9064 168.244 47.9064C167.097 47.9064 166.14 48.558 165.775 49.7178H165.671V48.0497H163.383V58.0581ZM174.677 58.2536C177.01 58.2536 178.613 57.1133 179.03 55.3736L176.827 55.126C176.508 55.973 175.726 56.4161 174.71 56.4161C173.185 56.4161 172.175 55.4127 172.155 53.699H179.127V52.9757C179.127 49.4637 177.016 47.9194 174.553 47.9194C171.686 47.9194 169.816 50.024 169.816 53.1126C169.816 56.2532 171.66 58.2536 174.677 58.2536ZM172.162 52.1091C172.234 50.832 173.178 49.7569 174.586 49.7569C175.941 49.7569 176.853 50.7473 176.866 52.1091H172.162ZM189.033 50.6952C188.707 49.001 187.352 47.9194 185.006 47.9194C182.596 47.9194 180.954 49.1053 180.96 50.9558C180.954 52.4154 181.853 53.3797 183.775 53.7772L185.482 54.1355C186.401 54.3375 186.831 54.7089 186.831 55.2758C186.831 55.96 186.088 56.4747 184.967 56.4747C183.886 56.4747 183.182 56.0056 182.98 55.1064L180.68 55.328C180.973 57.1654 182.517 58.2536 184.974 58.2536C187.476 58.2536 189.242 56.9569 189.248 55.0608C189.242 53.6338 188.323 52.7607 186.433 52.3502L184.726 51.9853C183.71 51.7573 183.306 51.4054 183.312 50.8255C183.306 50.1478 184.055 49.6787 185.039 49.6787C186.127 49.6787 186.701 50.2716 186.883 50.9297L189.033 50.6952Z" fill="white"/>
</svg>
