<svg width="54" height="54" viewBox="0 0 54 54" fill="none" xmlns="http://www.w3.org/2000/svg">
<circle cx="27" cy="27" r="27" fill="#25D366"/>
<path d="M33.0759 13.3468C33.521 13.4803 33.9661 13.6139 34.4113 13.7919C34.8564 13.9699 35.3015 14.148 35.7021 14.3706C36.1027 14.5486 36.5478 14.7712 36.9039 15.0382C37.3491 15.3053 37.7052 15.5724 38.1058 15.8395C38.4619 16.1065 38.818 16.4181 39.1741 16.7742C39.5302 17.0858 39.8417 17.3974 40.1533 17.7535C40.4649 18.1096 40.732 18.5102 41.0436 18.8663C41.3106 19.2669 41.5777 19.6675 41.8003 20.0681C42.0228 20.4687 42.2454 20.8693 42.4234 21.3144C42.646 21.7596 42.8241 22.2047 42.9576 22.6498C43.0911 23.0949 43.2247 23.54 43.3582 23.9852C43.4472 24.4748 43.5362 24.9199 43.5808 25.365C43.6698 25.8547 43.7143 26.3443 43.7143 26.7894C43.7143 27.2791 43.7143 27.7242 43.6698 28.1693C43.6698 28.6589 43.5808 29.1041 43.5362 29.5937C43.4472 30.0833 43.3582 30.5284 43.2247 30.9736C43.0911 31.4187 42.9576 31.8638 42.7795 32.3089C42.646 32.754 42.4234 33.1992 42.2454 33.5998C42.0228 34.0004 41.8003 34.4455 41.5332 34.8461C41.3106 35.2467 41.0436 35.6028 40.732 36.0034C40.4649 36.3595 40.1533 36.7156 39.8417 37.0717C39.5302 37.4278 39.1741 37.7394 38.818 38.051C38.4619 38.3626 38.1058 38.6742 37.7052 38.9412C37.3046 39.2083 36.9039 39.4754 36.5478 39.6979L36.3253 39.8315C35.9692 40.0095 35.6131 40.1876 35.257 40.3656C34.8119 40.5437 34.3668 40.7217 33.9661 40.8552C33.521 41.0333 33.0759 41.1223 32.5863 41.2559C32.1412 41.3449 31.696 41.4339 31.2064 41.5229H31.1174H31.0729C30.6723 41.5674 30.2271 41.612 29.782 41.612C29.3369 41.612 28.8473 41.612 28.4021 41.612C27.957 41.5674 27.4674 41.5229 26.9778 41.4339C26.5326 41.3449 26.043 41.2559 25.5979 41.1223C25.3308 41.0778 25.0637 40.9888 24.7521 40.8552C24.4851 40.7662 24.1735 40.6772 23.9064 40.5437C23.5948 40.4546 23.3278 40.3211 23.0607 40.1876C22.7936 40.054 22.5265 39.9205 22.2595 39.7424C21.9924 39.6089 21.7698 39.4754 21.5918 39.3418C21.3692 39.2083 21.1912 39.1193 21.0131 38.9857L20.9241 38.8967C20.7461 38.7632 20.5235 38.6296 20.3455 38.4516C20.2119 38.3626 20.0784 38.2735 19.9448 38.14L13.001 38.4516H12.4668L11.7546 38.4961H11.265L10.2857 38.5406L10.7754 37.6949L10.9979 37.2498L11.3095 36.7156L11.354 36.6711L11.6211 36.1815L15.2266 29.9498C15.182 29.7717 15.1375 29.5937 15.1375 29.4602L15.093 29.1041L15.0485 28.8815V28.748C15.004 28.4809 15.004 28.2138 14.9595 27.9913L15.004 27.9467C14.9595 27.7242 14.9595 27.4571 14.9595 27.19C14.9595 26.8785 14.9595 26.5669 15.004 26.2553C15.004 25.9882 15.0485 25.6766 15.093 25.365C15.1375 25.0535 15.182 24.7419 15.2266 24.4303C15.3156 24.1187 15.3601 23.8071 15.4491 23.54C15.5827 23.0949 15.7162 22.6498 15.8942 22.2047C16.0723 21.7151 16.2503 21.3144 16.4284 20.9138C16.6509 20.4687 16.8735 20.0681 17.1406 19.6675C17.3631 19.2669 17.6302 18.8663 17.9418 18.5102C18.2089 18.1096 18.5205 17.7535 18.832 17.4419C19.1881 17.0858 19.4997 16.7742 19.8558 16.4626C20.2119 16.151 20.568 15.8395 20.9686 15.5724C21.3692 15.2608 21.7698 15.0382 22.1704 14.8157C22.5711 14.5486 22.9717 14.3706 23.4168 14.148C23.8174 13.9699 24.2625 13.7919 24.7076 13.6584C25.1528 13.4803 25.5979 13.3468 26.0875 13.2578C26.5326 13.1242 27.0223 13.0352 27.4674 12.9907C27.9125 12.9462 28.4021 12.9017 28.8918 12.9017V12.8571C29.3369 12.8571 29.8265 12.8571 30.2716 12.9017C30.7613 12.9462 31.2064 12.9907 31.696 13.0797C32.1412 13.1242 32.6308 13.2578 33.0759 13.3468ZM20.0339 35.1132H20.568H20.7461H20.8351L21.0576 35.0687L21.2357 35.2467L21.3247 35.3358L21.4583 35.4248C21.6363 35.6028 21.8143 35.7809 21.9924 35.9144C22.1704 36.0925 22.3485 36.226 22.5265 36.3595C22.7046 36.4931 22.9272 36.6266 23.1497 36.7601C23.3278 36.9382 23.5503 37.0272 23.7284 37.1607C23.9509 37.2498 24.1735 37.3833 24.396 37.4723C24.5296 37.5614 24.7076 37.6504 24.8412 37.6949H24.8857L25.0192 37.7839C25.2418 37.8729 25.5089 37.962 25.6869 38.0065C25.9095 38.0955 26.132 38.14 26.3991 38.229C26.7552 38.3181 27.1558 38.4071 27.5119 38.4516C27.868 38.5406 28.2241 38.5851 28.6247 38.5851C28.9808 38.6296 29.3369 38.6296 29.7375 38.6296C30.0936 38.5851 30.4497 38.5851 30.8058 38.5406C31.2064 38.4961 31.5625 38.4071 31.9186 38.3181C32.2747 38.229 32.6308 38.14 32.9869 38.0065C33.343 37.9175 33.6991 37.7839 34.0107 37.6059C34.3668 37.4723 34.6783 37.2943 35.0344 37.1162C35.346 36.8937 35.6576 36.7156 35.9692 36.4931C36.2808 36.2705 36.5478 36.0479 36.8594 35.7809C37.1265 35.5583 37.3936 35.2912 37.6606 35.0242C37.8832 34.7571 38.1503 34.49 38.3728 34.1784C38.5954 33.8669 38.818 33.5553 38.996 33.2437C39.1741 32.9321 39.3521 32.6205 39.5302 32.2644C39.7082 31.9528 39.8417 31.5967 39.9753 31.2406C40.1088 30.9291 40.1978 30.573 40.3314 30.1723C40.4204 29.8163 40.5094 29.4602 40.5539 29.1041C40.5984 28.748 40.643 28.3474 40.6875 27.9913C40.732 27.6352 40.732 27.2346 40.6875 26.8785C40.6875 26.5224 40.6875 26.2108 40.643 25.8547L40.5984 25.7657C40.5539 25.4096 40.5094 25.0535 40.4204 24.6529C40.3314 24.2968 40.2423 23.9407 40.1088 23.5846C39.9753 23.2285 39.8417 22.9169 39.7082 22.5608C39.5747 22.2492 39.3966 21.8931 39.1741 21.5815C38.818 20.9138 38.3728 20.2907 37.8832 19.7565C37.4381 19.2224 36.9039 18.7327 36.3698 18.2876L36.2808 18.2431C35.9692 18.0205 35.6576 17.798 35.346 17.5754C35.0344 17.3974 34.7229 17.2193 34.3668 17.0413C34.0552 16.9077 33.6991 16.7297 33.343 16.5962C33.0314 16.5071 32.6753 16.3736 32.2747 16.2846C31.9186 16.151 31.518 16.1065 31.2064 16.0175C30.8058 15.973 30.4497 15.9285 30.0936 15.884C29.693 15.884 29.3369 15.884 28.9808 15.884C28.5802 15.884 28.2241 15.9285 27.868 15.973C27.4674 16.0175 27.1113 16.1065 26.7552 16.151C26.3991 16.2401 26.043 16.3736 25.6869 16.4626C25.3308 16.5962 24.9747 16.7297 24.6631 16.9077C24.307 17.0413 23.9954 17.2193 23.6393 17.3974C23.3278 17.5754 23.0162 17.798 22.7046 18.0205C22.393 18.2431 22.1259 18.4657 21.8143 18.6882C21.5473 18.9553 21.2802 19.2224 21.0576 19.4894C20.7906 19.7565 20.5235 20.0236 20.3009 20.3352L20.2119 20.4687C20.0339 20.6913 19.8558 20.9583 19.6778 21.2254C19.4997 21.537 19.3217 21.8931 19.1436 22.2047C18.9656 22.5608 18.832 22.9169 18.6985 23.2285C18.565 23.5846 18.4759 23.9407 18.3424 24.2968C18.2979 24.5638 18.2534 24.7864 18.2089 25.0089C18.1644 25.2315 18.1198 25.4541 18.0753 25.7211C18.0308 25.9882 18.0308 26.2108 17.9863 26.4333C17.9863 26.6559 17.9863 26.923 17.9863 27.1455C17.9418 27.3681 17.9863 27.6352 17.9863 27.8577C17.9863 28.0803 18.0308 28.3474 18.0308 28.5699C18.0753 28.7925 18.1198 29.015 18.1644 29.2821C18.2089 29.5047 18.2534 29.7272 18.2979 29.9498L18.3424 30.0833V30.1278V30.2169L18.3869 30.4394L18.2979 30.6175L18.2534 30.7065L18.2089 30.7955L18.1644 30.84L17.7638 31.5967L17.4077 32.1754L16.918 33.0656L15.5827 35.3358L19.7668 35.1577L19.9894 35.1132H20.0339Z" fill="white"/>
<path fill-rule="evenodd" clip-rule="evenodd" d="M24.8416 18.5104C22.4379 19.5341 21.6812 21.7152 22.1263 24.1634C22.3934 25.6323 22.9276 27.1012 23.8623 28.8817C24.7971 30.6622 25.9989 32.3536 27.2897 33.689C30.7617 37.2499 36.3702 36.6268 34.5007 33.5109C33.5659 32.042 33.0318 30.8402 33.0318 30.8402C33.0318 30.8402 32.6312 29.9945 31.83 30.4841C30.9842 31.0183 30.183 31.5969 29.7824 31.5079C29.1592 31.4189 24.2629 25.1427 26.1324 24.1634C26.9781 23.7628 28.447 23.2732 27.8239 22.2494C27.3788 21.4927 25.7763 18.7774 25.7763 18.7774C25.7763 18.7774 25.4647 18.1988 24.8416 18.5104Z" fill="white"/>
</svg>
