<svg width="42" height="42" viewBox="0 0 42 42" fill="none" xmlns="http://www.w3.org/2000/svg">
<circle cx="21" cy="21" r="21" fill="#FEBC52"/>
<path d="M14.188 16.376C15.3964 16.376 16.376 15.3964 16.376 14.188C16.376 12.9796 15.3964 12 14.188 12C12.9796 12 12 12.9796 12 14.188C12 15.3964 12.9796 16.376 14.188 16.376Z" fill="white"/>
<path d="M18.442 18.0344V30.1734H22.211V24.1704C22.211 22.5864 22.509 21.0524 24.473 21.0524C26.41 21.0524 26.434 22.8634 26.434 24.2704V30.1744H30.205V23.5174C30.205 20.2474 29.501 17.7344 25.679 17.7344C23.844 17.7344 22.614 18.7414 22.111 19.6944H22.06V18.0344H18.442ZM12.3 18.0344H16.075V30.1734H12.3V18.0344Z" fill="white"/>
</svg>
