<svg width="42" height="42" viewBox="0 0 42 42" fill="none" xmlns="http://www.w3.org/2000/svg">
<circle cx="21" cy="21" r="21" fill="#FEBC52"/>
<path d="M32.706 14.1895C31.871 14.5595 30.974 14.8095 30.031 14.9225C31.004 14.3403 31.7319 13.424 32.079 12.3445C31.1648 12.8875 30.1643 13.2697 29.121 13.4745C28.4194 12.7254 27.4901 12.2288 26.4773 12.062C25.4646 11.8951 24.4251 12.0673 23.5202 12.5518C22.6154 13.0362 21.8958 13.8059 21.4732 14.7412C21.0505 15.6766 20.9485 16.7253 21.183 17.7245C19.3307 17.6315 17.5186 17.1501 15.8644 16.3114C14.2102 15.4728 12.7508 14.2957 11.581 12.8565C11.181 13.5465 10.951 14.3465 10.951 15.1985C10.9506 15.9655 11.1394 16.7208 11.5009 17.3973C11.8623 18.0737 12.3852 18.6506 13.023 19.0765C12.2833 19.053 11.5599 18.8531 10.913 18.4935V18.5535C10.9129 19.6293 11.285 20.6719 11.9662 21.5045C12.6473 22.3371 13.5956 22.9084 14.65 23.1215C13.9638 23.3072 13.2443 23.3346 12.546 23.2015C12.8435 24.1271 13.423 24.9365 14.2034 25.5164C14.9837 26.0963 15.9259 26.4177 16.898 26.4355C15.2478 27.7309 13.2099 28.4336 11.112 28.4305C10.7404 28.4306 10.3691 28.4089 10 28.3655C12.1295 29.7347 14.6083 30.4613 17.14 30.4585C25.71 30.4585 30.395 23.3605 30.395 17.2045C30.395 17.0045 30.39 16.8025 30.381 16.6025C31.2923 15.9435 32.0789 15.1274 32.704 14.1925L32.706 14.1895Z" fill="white"/>
</svg>
