<svg width="224" height="81" viewBox="0 0 224 81" fill="none" xmlns="http://www.w3.org/2000/svg">
<rect x="1.64111" y="1.38623" width="220.391" height="77.9649" rx="21.5335" fill="black" stroke="#FFB640" stroke-width="2.5"/>
<path d="M89.4928 36.0581L90.4498 33.299H94.5223L95.4742 36.0581H97.1439L93.3922 25.6327H91.5749L87.8231 36.0581H89.4928ZM90.908 31.9755L92.4453 27.5264H92.5268L94.0641 31.9755H90.908ZM100.049 31.4155C100.049 30.1684 100.813 29.4557 101.872 29.4557C102.905 29.4557 103.531 30.1327 103.531 31.2679V36.0581H105.053V31.0847C105.053 29.1503 103.989 28.1372 102.391 28.1372C101.215 28.1372 100.446 28.6819 100.085 29.5117H99.9882V28.2391H98.5272V36.0581H100.049V31.4155ZM110.022 36.2108C111.447 36.2108 112.007 35.3403 112.282 34.8415H112.409V36.0581H113.896V25.6327H112.373V29.5066H112.282C112.007 29.023 111.488 28.1372 110.032 28.1372C108.143 28.1372 106.754 29.6288 106.754 32.1639C106.754 34.6938 108.123 36.2108 110.022 36.2108ZM110.358 34.9127C108.998 34.9127 108.291 33.7165 108.291 32.1486C108.291 30.596 108.983 29.4302 110.358 29.4302C111.686 29.4302 112.399 30.5145 112.399 32.1486C112.399 33.7928 111.671 34.9127 110.358 34.9127ZM116.068 36.0581H117.59V31.2832C117.59 30.26 118.379 29.5219 119.458 29.5219C119.774 29.5219 120.13 29.5779 120.252 29.6135V28.1576C120.1 28.1372 119.799 28.122 119.606 28.122C118.69 28.122 117.906 28.6412 117.621 29.4811H117.539V28.2391H116.068V36.0581ZM124.583 36.2159C126.787 36.2159 128.228 34.6022 128.228 32.1842C128.228 29.7509 126.787 28.1372 124.583 28.1372C122.379 28.1372 120.938 29.7509 120.938 32.1842C120.938 34.6022 122.379 36.2159 124.583 36.2159ZM124.588 34.9382C123.148 34.9382 122.476 33.6808 122.476 32.1791C122.476 30.6825 123.148 29.4099 124.588 29.4099C126.019 29.4099 126.691 30.6825 126.691 32.1791C126.691 33.6808 126.019 34.9382 124.588 34.9382ZM129.927 36.0581H131.449V28.2391H129.927V36.0581ZM130.696 27.0326C131.22 27.0326 131.658 26.6254 131.658 26.1265C131.658 25.6276 131.22 25.2153 130.696 25.2153C130.166 25.2153 129.733 25.6276 129.733 26.1265C129.733 26.6254 130.166 27.0326 130.696 27.0326ZM136.424 36.2108C137.849 36.2108 138.409 35.3403 138.684 34.8415H138.811V36.0581H140.298V25.6327H138.776V29.5066H138.684C138.409 29.023 137.89 28.1372 136.434 28.1372C134.545 28.1372 133.156 29.6288 133.156 32.1639C133.156 34.6938 134.525 36.2108 136.424 36.2108ZM136.76 34.9127C135.4 34.9127 134.693 33.7165 134.693 32.1486C134.693 30.596 135.385 29.4302 136.76 29.4302C138.088 29.4302 138.801 30.5145 138.801 32.1486C138.801 33.7928 138.073 34.9127 136.76 34.9127ZM148.539 36.2312C149.832 36.2312 150.56 35.5745 150.85 34.9891H150.911V36.0581H152.398V30.8658C152.398 28.5903 150.606 28.1372 149.364 28.1372C147.949 28.1372 146.645 28.7074 146.136 30.1327L147.567 30.4585C147.791 29.9037 148.361 29.3692 149.384 29.3692C150.367 29.3692 150.871 29.8833 150.871 30.769V30.8047C150.871 31.3595 150.3 31.3494 148.895 31.5123C147.414 31.6853 145.897 32.0722 145.897 33.8488C145.897 35.3862 147.053 36.2312 148.539 36.2312ZM148.87 35.0095C148.01 35.0095 147.389 34.6226 147.389 33.8692C147.389 33.0547 148.112 32.7645 148.992 32.6475C149.486 32.5813 150.657 32.4489 150.876 32.23V33.238C150.876 34.1644 150.138 35.0095 148.87 35.0095ZM154.425 38.9903H155.947V34.8415H156.039C156.314 35.3403 156.874 36.2108 158.299 36.2108C160.193 36.2108 161.567 34.6938 161.567 32.1639C161.567 29.6288 160.172 28.1372 158.284 28.1372C156.833 28.1372 156.309 29.023 156.039 29.5066H155.912V28.2391H154.425V38.9903ZM155.917 32.1486C155.917 30.5145 156.629 29.4302 157.958 29.4302C159.337 29.4302 160.03 30.596 160.03 32.1486C160.03 33.7165 159.317 34.9127 157.958 34.9127C156.65 34.9127 155.917 33.7928 155.917 32.1486ZM163.272 38.9903H164.794V34.8415H164.886C165.161 35.3403 165.721 36.2108 167.146 36.2108C169.04 36.2108 170.414 34.6938 170.414 32.1639C170.414 29.6288 169.02 28.1372 167.131 28.1372C165.68 28.1372 165.156 29.023 164.886 29.5066H164.759V28.2391H163.272V38.9903ZM164.764 32.1486C164.764 30.5145 165.477 29.4302 166.805 29.4302C168.185 29.4302 168.877 30.596 168.877 32.1486C168.877 33.7165 168.164 34.9127 166.805 34.9127C165.497 34.9127 164.764 33.7928 164.764 32.1486ZM179.207 36.2159C181.411 36.2159 182.852 34.6022 182.852 32.1842C182.852 29.7509 181.411 28.1372 179.207 28.1372C177.003 28.1372 175.562 29.7509 175.562 32.1842C175.562 34.6022 177.003 36.2159 179.207 36.2159ZM179.212 34.9382C177.772 34.9382 177.1 33.6808 177.1 32.1791C177.1 30.6825 177.772 29.4099 179.212 29.4099C180.643 29.4099 181.315 30.6825 181.315 32.1791C181.315 33.6808 180.643 34.9382 179.212 34.9382ZM186.073 31.4155C186.073 30.1684 186.836 29.4557 187.895 29.4557C188.929 29.4557 189.555 30.1327 189.555 31.2679V36.0581H191.077V31.0847C191.077 29.1503 190.013 28.1372 188.415 28.1372C187.239 28.1372 186.47 28.6819 186.109 29.5117H186.012V28.2391H184.551V36.0581H186.073V31.4155ZM97.7228 48.975H100.186C99.7753 46.3556 97.5078 44.5311 94.5561 44.5311C91.0636 44.5311 88.4442 47.0984 88.4442 51.3989C88.4442 55.6212 90.9463 58.2406 94.6277 58.2406C97.9313 58.2406 100.297 56.1164 100.297 52.676V51.0731H94.8819V52.9627H97.9574C97.9183 54.8653 96.6477 56.0708 94.6408 56.0708C92.4058 56.0708 90.8746 54.3962 90.8746 51.3728C90.8746 48.369 92.4319 46.7009 94.5887 46.7009C96.1981 46.7009 97.2927 47.561 97.7228 48.975ZM106.896 58.2536C109.828 58.2536 111.691 56.188 111.691 53.093C111.691 49.9914 109.828 47.9194 106.896 47.9194C103.963 47.9194 102.1 49.9914 102.1 53.093C102.1 56.188 103.963 58.2536 106.896 58.2536ZM106.909 56.364C105.286 56.364 104.491 54.9175 104.491 53.0865C104.491 51.2555 105.286 49.7895 106.909 49.7895C108.505 49.7895 109.3 51.2555 109.3 53.0865C109.3 54.9175 108.505 56.364 106.909 56.364ZM118.059 58.2536C120.991 58.2536 122.855 56.188 122.855 53.093C122.855 49.9914 120.991 47.9194 118.059 47.9194C115.127 47.9194 113.263 49.9914 113.263 53.093C113.263 56.188 115.127 58.2536 118.059 58.2536ZM118.072 56.364C116.449 56.364 115.654 54.9175 115.654 53.0865C115.654 51.2555 116.449 49.7895 118.072 49.7895C119.668 49.7895 120.463 51.2555 120.463 53.0865C120.463 54.9175 119.668 56.364 118.072 56.364ZM129.209 62.0198C131.913 62.0198 133.907 60.7817 133.907 58.221V48.0497H131.581V49.7047H131.451C131.092 48.9815 130.343 47.9194 128.577 47.9194C126.264 47.9194 124.446 49.7308 124.446 53.0213C124.446 56.2858 126.264 57.9148 128.571 57.9148C130.284 57.9148 131.086 56.996 131.451 56.2597H131.568V58.1558C131.568 59.6284 130.591 60.2344 129.248 60.2344C127.828 60.2344 127.202 59.5633 126.916 58.9768L124.791 59.4916C125.221 60.8925 126.661 62.0198 129.209 62.0198ZM129.229 56.0642C127.671 56.0642 126.85 54.8523 126.85 53.0083C126.85 51.1904 127.658 49.8546 129.229 49.8546C130.747 49.8546 131.581 51.1122 131.581 53.0083C131.581 54.9175 130.734 56.0642 129.229 56.0642ZM138.683 44.7136H136.324V58.0581H138.683V44.7136ZM145.54 58.2536C147.872 58.2536 149.475 57.1133 149.892 55.3736L147.69 55.126C147.371 55.973 146.589 56.4161 145.572 56.4161C144.047 56.4161 143.037 55.4127 143.018 53.699H149.99V52.9757C149.99 49.4637 147.879 47.9194 145.416 47.9194C142.549 47.9194 140.679 50.024 140.679 53.1126C140.679 56.2532 142.523 58.2536 145.54 58.2536ZM143.024 52.1091C143.096 50.832 144.041 49.7569 145.448 49.7569C146.804 49.7569 147.716 50.7473 147.729 52.1091H143.024ZM156.641 58.0581H159.058V53.5491H161.613C164.695 53.5491 166.35 51.6986 166.35 49.1314C166.35 46.5836 164.714 44.7136 161.645 44.7136H156.641V58.0581ZM159.058 51.5618V46.7335H161.274C163.085 46.7335 163.887 47.7109 163.887 49.1314C163.887 50.5518 163.085 51.5618 161.287 51.5618H159.058ZM170.704 44.7136H168.345V58.0581H170.704V44.7136ZM176.009 58.2601C177.58 58.2601 178.518 57.5238 178.948 56.6833H179.026V58.0581H181.294V51.3598C181.294 48.7143 179.137 47.9194 177.228 47.9194C175.123 47.9194 173.507 48.8577 172.986 50.6821L175.188 50.9949C175.423 50.3107 176.088 49.7243 177.241 49.7243C178.336 49.7243 178.935 50.2847 178.935 51.2686V51.3077C178.935 51.9853 178.225 52.0179 176.459 52.2068C174.517 52.4154 172.66 52.9953 172.66 55.2498C172.66 57.2176 174.1 58.2601 176.009 58.2601ZM176.622 56.5269C175.638 56.5269 174.934 56.0773 174.934 55.2107C174.934 54.305 175.723 53.927 176.778 53.7772C177.397 53.6925 178.635 53.5361 178.942 53.2885V54.4679C178.942 55.5821 178.042 56.5269 176.622 56.5269ZM184.773 61.8113C186.611 61.8113 187.673 60.8664 188.24 59.2701L192.26 48.0627L189.738 48.0497L187.425 55.6081H187.321L185.014 48.0497H182.512L186.142 58.2666L185.94 58.8074C185.503 59.9477 184.812 60.0259 183.783 59.7262L183.236 61.5636C183.555 61.694 184.128 61.8113 184.773 61.8113Z" fill="white"/>
<path d="M29.5883 25.3399C29.1628 25.8341 28.9475 26.4665 28.9864 27.1086V55.0048C28.9497 55.6466 29.1647 56.2783 29.5883 56.7734C29.6432 56.8266 29.7304 56.8265 29.7853 56.7734L45.6962 41.3656C45.7813 41.2832 45.8293 41.1699 45.8293 41.0514C45.8293 40.9329 45.7812 40.8195 45.6961 40.7371L29.7853 25.3399C29.7304 25.2868 29.6433 25.2868 29.5883 25.3399Z" fill="url(#paint0_linear)"/>
<path d="M51.3344 46.3839C51.2626 46.4218 51.1746 46.4092 51.1162 46.3528L45.9627 41.3656C45.8776 41.2832 45.8296 41.1699 45.8296 41.0516C45.8296 40.933 45.8777 40.8196 45.963 40.7373L51.1161 35.7606C51.1746 35.7042 51.2626 35.6916 51.3344 35.7296L57.7148 39.2351C59.5425 40.2306 59.5425 41.8722 57.7148 42.8783L51.3344 46.3839Z" fill="url(#paint1_linear)"/>
<path d="M51.3347 46.3838C48.2822 43.4298 43.4384 43.425 40.38 46.3727L30.6233 55.7763C30.0754 56.3044 30.1558 57.2334 30.9164 57.2545C31.4018 57.2679 31.8781 57.1247 32.2702 56.8475L51.3019 46.3838" fill="url(#paint2_linear)"/>
<path d="M48.1231 38.8373C49.7184 37.2935 49.3634 34.6463 47.4177 33.5774L32.2702 25.2551C31.8823 24.9665 31.4029 24.8172 30.9138 24.8326C30.1395 24.8571 30.0711 25.8065 30.6278 26.3452L43.5366 38.8373C44.8151 40.0746 46.8446 40.0746 48.1231 38.8373Z" fill="url(#paint3_linear)"/>
<path opacity="0.1" d="M51.2538 46.3242C51.2314 46.2918 51.1881 46.2815 51.1536 46.3005L32.2703 56.6672C31.8924 56.9397 31.4337 57.0869 30.9625 57.0869C30.5119 57.0869 30.0728 56.9524 29.7049 56.7024C29.6755 56.6825 29.6361 56.6852 29.6106 56.7099C29.5808 56.7387 29.5808 56.7864 29.6106 56.8152L29.6482 56.8517C29.6525 56.8558 29.6571 56.8596 29.6619 56.8631C30.0384 57.1323 30.4942 57.2776 30.9625 57.2776C31.4337 57.2776 31.8924 57.1304 32.2703 56.8579L51.2276 46.4351C51.2674 46.4132 51.2796 46.3617 51.2538 46.3242Z" fill="black"/>
<path opacity="0.07" d="M29.5965 56.6104C29.5909 56.6061 29.5857 56.6012 29.5811 56.5958C29.1613 56.0981 28.949 55.4664 28.9861 54.8247V55.0048C28.9506 55.6252 29.1503 56.236 29.5462 56.7233C29.5685 56.7507 29.6095 56.7526 29.6349 56.728C29.662 56.7018 29.6593 56.6576 29.6291 56.6349L29.5965 56.6104Z" fill="black"/>
<path opacity="0.07" d="M57.7146 42.6875L51.3087 46.215C51.2616 46.2409 51.253 46.3051 51.2916 46.3425C51.3169 46.3669 51.3553 46.372 51.3861 46.3549L57.7146 42.8358C58.0889 42.6765 58.4127 42.424 58.6531 42.1039C58.8934 41.7839 59.0417 41.4078 59.0826 41.0142C59.008 41.378 58.845 41.7195 58.6071 42.0105C58.3693 42.3014 58.0634 42.5335 57.7146 42.6875Z" fill="black"/>
<path opacity="0.3" d="M32.2705 25.4464L57.7154 39.4157C58.0608 39.5659 58.3646 39.7929 58.6023 40.0781C58.84 40.3633 59.0049 40.6988 59.0834 41.0572C59.0447 40.6629 58.8973 40.2859 58.6567 39.9655C58.4161 39.6451 58.091 39.393 57.7154 39.2356L32.2705 25.2558C30.4757 24.2602 28.9873 25.0863 28.9873 27.1092V27.2892C28.9873 25.277 30.4757 24.4403 32.2705 25.4464Z" fill="black"/>
<defs>
<linearGradient id="paint0_linear" x1="44.4066" y1="26.8121" x2="23.247" y2="48.6775" gradientUnits="userSpaceOnUse">
<stop stop-color="#008EFF"/>
<stop offset="0.01" stop-color="#008FFF"/>
<stop offset="0.26" stop-color="#00ACFF"/>
<stop offset="0.51" stop-color="#00C0FF"/>
<stop offset="0.76" stop-color="#00CDFF"/>
<stop offset="1" stop-color="#00D1FF"/>
</linearGradient>
<linearGradient id="paint1_linear" x1="57.9337" y1="41.0567" x2="26.393" y2="41.0567" gradientUnits="userSpaceOnUse">
<stop stop-color="#FFD800"/>
<stop offset="1" stop-color="#FF8A00"/>
</linearGradient>
<linearGradient id="paint2_linear" x1="48.347" y1="43.9479" x2="19.6614" y2="73.5903" gradientUnits="userSpaceOnUse">
<stop stop-color="#FF3A44"/>
<stop offset="1" stop-color="#B11162"/>
</linearGradient>
<linearGradient id="paint3_linear" x1="25.4958" y1="16.0517" x2="38.3147" y2="29.2872" gradientUnits="userSpaceOnUse">
<stop stop-color="#328E71"/>
<stop offset="0.07" stop-color="#2D9571"/>
<stop offset="0.48" stop-color="#15BD74"/>
<stop offset="0.8" stop-color="#06D575"/>
<stop offset="1" stop-color="#00DE76"/>
</linearGradient>
</defs>
</svg>
