<svg width="91" height="70" viewBox="0 0 91 70" fill="none" xmlns="http://www.w3.org/2000/svg">
<path d="M16.8843 21.0655L19.6165 19.1951L22.3486 21.0655C22.8336 21.3842 23.4064 21.5446 23.9873 21.5242C24.5682 21.5039 25.1283 21.3038 25.5895 20.9519C26.0508 20.6 26.3904 20.1138 26.5609 19.5608C26.7315 19.0079 26.7246 18.4159 26.5412 17.867L25.5839 15.0858L28.1064 13.3614C28.6059 13.034 28.9867 12.5557 29.1928 11.9969C29.3988 11.4381 29.4193 10.8283 29.2511 10.257C29.083 9.68581 28.7351 9.18333 28.2586 8.82347C27.7821 8.46361 27.2022 8.26534 26.6041 8.25783H23.264L22.2578 5.35142C22.0692 4.80248 21.7129 4.32595 21.2386 3.98854C20.7644 3.65113 20.196 3.46973 19.613 3.46973C19.03 3.46973 18.4615 3.65113 17.9873 3.98854C17.5131 4.32595 17.1567 4.80248 16.9681 5.35142L15.9689 8.25087H12.6288C12.0314 8.24946 11.4492 8.43858 10.9677 8.79049C10.4861 9.1424 10.1306 9.63858 9.95321 10.2063C9.77581 10.774 9.78588 11.3833 9.98194 11.9448C10.178 12.5064 10.5497 12.9907 11.0426 13.3267L13.6141 15.0858L12.6288 17.867C12.4454 18.4159 12.4385 19.0079 12.6091 19.5608C12.7796 20.1138 13.1192 20.6 13.5805 20.9519C14.0418 21.3038 14.6018 21.5039 15.1827 21.5242C15.7636 21.5446 16.3364 21.3842 16.8214 21.0655H16.8843ZM12.6288 11.0391H17.9674L19.6165 6.25533L21.2655 11.0391H26.6041L22.2857 13.9942L23.9348 18.771L19.6165 15.8159L15.2981 18.771L16.9472 13.9872L12.6288 11.0391Z" fill="#FFB640"/>
<path d="M76.9149 8.25771H73.5678L72.5686 5.35826C72.38 4.80931 72.0237 4.33279 71.5494 3.99538C71.0752 3.65797 70.5068 3.47656 69.9238 3.47656C69.3408 3.47656 68.7723 3.65797 68.2981 3.99538C67.8238 4.33279 67.4675 4.80931 67.2789 5.35826L66.2797 8.25771H62.9396C62.3422 8.2563 61.76 8.44542 61.2785 8.79733C60.7969 9.14924 60.4414 9.64542 60.264 10.2131C60.0866 10.7808 60.0967 11.3901 60.2927 11.9517C60.4888 12.5132 60.8605 12.9975 61.3534 13.3335L63.9249 15.0926L62.9396 17.8669C62.7562 18.4158 62.7493 19.0078 62.9199 19.5607C63.0904 20.1136 63.43 20.5999 63.8913 20.9518C64.3525 21.3037 64.9126 21.5037 65.4935 21.5241C66.0744 21.5445 66.6472 21.3841 67.1322 21.0654L69.9272 19.195L72.6594 21.0654C73.1444 21.3841 73.7172 21.5445 74.2981 21.5241C74.879 21.5037 75.4391 21.3037 75.9003 20.9518C76.3616 20.5999 76.7012 20.1136 76.8717 19.5607C77.0423 19.0078 77.0354 18.4158 76.852 17.8669L75.8947 15.0857L78.4172 13.3613C78.9167 13.0339 79.2975 12.5556 79.5036 11.9968C79.7096 11.438 79.7301 10.8281 79.5619 10.2569C79.3938 9.68569 79.0459 9.18321 78.5694 8.82335C78.0929 8.46349 77.513 8.26523 76.9149 8.25771ZM72.5895 13.994L74.2456 18.7708L69.9272 15.8158L65.6089 18.7708L67.258 13.9871L62.9396 11.039H68.2782L69.9272 6.25521L71.5763 11.039H76.9149L72.5895 13.994Z" fill="#FFB640"/>
<path d="M57.0533 9.68285C57.0533 8.94521 56.7588 8.23779 56.2346 7.7162C55.7105 7.19462 54.9995 6.9016 54.2582 6.9016H48.8009L47.1309 1.9023C46.9454 1.34838 46.5895 0.866579 46.1136 0.525154C45.6377 0.183729 45.0658 0 44.4791 0C43.8923 0 43.3205 0.183729 42.8445 0.525154C42.3686 0.866579 42.0127 1.34838 41.8273 1.9023L40.1572 6.9016H34.6929C34.1007 6.90275 33.5241 7.09106 33.0464 7.43937C32.5687 7.78768 32.2145 8.27798 32.0349 8.83955C31.8553 9.40113 31.8597 10.0049 32.0473 10.5639C32.2349 11.1229 32.5961 11.6081 33.0788 11.9496L37.439 15.0228L35.783 19.9735C35.5958 20.53 35.5904 21.1312 35.7675 21.6911C35.9446 22.2509 36.2951 22.7406 36.7689 23.0901C37.2427 23.4397 37.8155 23.6311 38.4053 23.6371C38.995 23.643 39.5716 23.4632 40.0524 23.1232L44.4756 20.0013L48.9057 23.1302C49.3865 23.4701 49.9631 23.65 50.5529 23.644C51.1426 23.6381 51.7154 23.4466 52.1892 23.0971C52.663 22.7475 53.0135 22.2578 53.1906 21.698C53.3677 21.1382 53.3623 20.537 53.1752 19.9804L51.5191 15.0298L55.8305 11.9843C56.2075 11.7291 56.5161 11.3859 56.7292 10.9847C56.9424 10.5836 57.0536 10.1366 57.0533 9.68285Z" fill="#FFB640"/>
<path d="M0.749512 35.458V54.9268C0.749512 55.2956 0.896751 55.6493 1.15884 55.9101C1.42093 56.1709 1.77639 56.3174 2.14704 56.3174H11.9297V34.0674H2.14704C1.77639 34.0674 1.42093 34.2139 1.15884 34.4747C0.896751 34.7355 0.749512 35.0892 0.749512 35.458H0.749512ZM7.73715 39.6299C8.01356 39.6299 8.28375 39.7114 8.51357 39.8642C8.7434 40.017 8.92252 40.2342 9.0283 40.4883C9.13407 40.7424 9.16175 41.0221 9.10783 41.2918C9.0539 41.5616 8.9208 41.8093 8.72535 42.0038C8.5299 42.1983 8.28089 42.3308 8.00979 42.3844C7.7387 42.4381 7.4577 42.4105 7.20234 42.3053C6.94697 42.2 6.72871 42.0218 6.57515 41.7931C6.42159 41.5644 6.33962 41.2955 6.33962 41.0205C6.33962 40.6517 6.48686 40.298 6.74895 40.0372C7.01104 39.7764 7.3665 39.6299 7.73715 39.6299Z" fill="#FFB640"/>
<path d="M74.4691 31.2863H70.9753C70.3925 31.2902 69.8223 31.4555 69.3286 31.7638C68.8349 32.072 68.4373 32.511 68.1803 33.0316C63.2889 32.225 57.5521 29.4299 57.4682 29.3881C54.0862 27.782 51.927 26.9823 51.8362 26.9476C51.7565 26.9202 51.6747 26.8993 51.5916 26.885C44.4782 25.6195 41.809 27.2744 41.2569 27.7541L33.6404 33.3723H24.4517C24.3525 32.6193 23.9873 31.926 23.4214 31.4165C22.8556 30.9069 22.126 30.6143 21.3631 30.591H17.8693C17.0062 30.6218 16.1905 30.9919 15.6011 31.6201C15.0117 32.2483 14.6966 33.0834 14.7249 33.9424V56.4497C14.6985 57.3075 15.0144 58.1408 15.6036 58.7675C16.1928 59.3942 17.0074 59.7633 17.8693 59.7941H21.3631C22.1342 59.7694 22.8707 59.4702 23.4387 58.9509C24.0068 58.4315 24.3687 57.7266 24.4587 56.9642H25.0596L39.5799 68.2909C40.5069 69.0396 41.6505 69.4733 42.8431 69.5285C43.8582 69.5108 44.8301 69.1165 45.5683 68.423C45.9719 68.0638 46.3038 67.6321 46.5466 67.1506C47.3626 67.7105 48.3438 67.9819 49.3332 67.9214C50.3225 67.8609 51.2629 67.4719 52.0039 66.8168C52.3696 66.4908 52.6767 66.1051 52.9123 65.6765C53.7279 66.2376 54.7093 66.5097 55.699 66.4492C56.6887 66.3887 57.6292 65.999 58.3696 65.3427C59.0458 64.7542 59.5178 63.9682 59.7183 63.0969C60.4222 63.3801 61.1939 63.4527 61.9386 63.3058C62.6834 63.1588 63.3689 62.7986 63.9108 62.2695C64.6955 61.567 65.193 60.6018 65.3084 59.5577L68.2501 58.8624C68.5161 59.3406 68.9044 59.7404 69.3756 60.0212C69.8468 60.3021 70.3842 60.454 70.9334 60.4616H74.4272C75.2829 60.438 76.0943 60.0778 76.6836 59.4601C77.273 58.8424 77.5923 58.0174 77.5717 57.1659V34.5821C77.5925 33.7376 77.2789 32.9187 76.6985 32.3021C76.1181 31.6856 75.3174 31.3207 74.4691 31.2863ZM21.7125 56.4497C21.7125 56.7904 21.5029 57.0129 21.3631 57.0129H17.8693C17.7296 57.0129 17.52 56.7904 17.52 56.4497V53.5363H21.7125V56.4497ZM21.7125 50.7551H17.52V46.5832H21.7125V50.7551ZM21.7125 43.802H17.52V39.6301H21.7125V43.802ZM21.7125 36.8488H17.52V33.9424C17.52 33.5948 17.7296 33.3723 17.8693 33.3723H21.3631C21.5029 33.3723 21.7125 33.5948 21.7125 33.9424V36.8488ZM62.0661 60.1974C61.6678 60.552 61.1647 60.997 59.5995 59.9123L59.0335 59.3352L53.059 52.9592C52.8037 52.7027 52.4582 52.555 52.0954 52.5475C51.7327 52.5399 51.3812 52.673 51.1153 52.9186C50.8493 53.1642 50.6899 53.5032 50.6705 53.8637C50.6512 54.2242 50.7735 54.5781 51.0117 54.8505L56.3293 60.4895C56.5529 60.712 57.2097 61.5533 57.028 62.1513C56.9696 62.5668 56.7898 62.956 56.5109 63.2707C56.1915 63.5511 55.7747 63.6963 55.3492 63.6755C54.9238 63.6548 54.5233 63.4696 54.233 63.1595L53.2687 62.1026C53.212 61.9901 53.1416 61.885 53.059 61.7897L46.5815 54.927C46.325 54.6729 45.9794 54.5278 45.6175 54.5221C45.2556 54.5165 44.9056 54.6508 44.6412 54.8968C44.3768 55.1428 44.2186 55.4812 44.2 55.8409C44.1813 56.2005 44.3036 56.5534 44.5411 56.8252L50.6134 63.2707C50.6709 63.5368 50.658 63.8132 50.5759 64.0728C50.4939 64.3324 50.3454 64.5663 50.1452 64.7517C49.8256 65.0329 49.4079 65.178 48.9819 65.1559C48.5559 65.1338 48.1557 64.9462 47.8672 64.6335L46.3579 62.9856C46.2641 62.8845 46.1558 62.7978 46.0365 62.7284L39.5729 56.3176C39.445 56.1787 39.2901 56.0672 39.1176 55.9896C38.9451 55.9121 38.7586 55.8703 38.5693 55.8667C38.3801 55.8631 38.1921 55.8978 38.0167 55.9687C37.8413 56.0395 37.6822 56.1451 37.5491 56.279C37.416 56.4129 37.3116 56.5723 37.2422 56.7475C37.1729 56.9228 37.14 57.1102 37.1456 57.2985C37.1513 57.4868 37.1953 57.6719 37.275 57.8427C37.3547 58.0136 37.4685 58.1665 37.6094 58.2923L44.0729 64.71C44.0992 64.7331 44.1272 64.754 44.1568 64.7726C44.2374 65.0505 44.2375 65.3454 44.1572 65.6234C44.0768 65.9014 43.9193 66.1512 43.7026 66.344C43.3113 66.6986 42.7732 67.1714 41.2569 66.0728L26.4082 54.482C26.1633 54.2896 25.8607 54.1844 25.5487 54.183H24.5076V36.1535H29.937C29.4641 36.6365 29.1602 37.2582 29.0705 37.9266C29.0276 38.4141 29.0924 38.905 29.2601 39.365C29.4279 39.825 29.6947 40.2429 30.0418 40.5896C32.753 43.3709 37.7282 42.1541 37.9168 42.1054C39.2235 41.7856 42.2492 39.5327 44.2057 38.017L62.5413 58.6886C62.5786 58.8268 62.595 58.9697 62.5902 59.1127C62.5799 59.3192 62.5282 59.5215 62.4382 59.7077C62.3482 59.894 62.2217 60.0605 62.0661 60.1974ZM67.8309 56.1438L64.6515 56.8391L45.3167 35.1801C45.1857 35.047 45.0291 34.9415 44.8562 34.8698C44.6833 34.7982 44.4978 34.7618 44.3105 34.7629C43.9905 34.7616 43.6797 34.8696 43.4301 35.0688C41.0333 37.0018 37.9727 39.2407 37.2321 39.4145C36.2398 39.6649 33.3609 40.0125 32.0123 38.6288C32.0123 38.6288 31.8306 38.3855 31.8446 38.2742C31.8586 38.163 32.0333 37.9127 32.6132 37.5789C32.6624 37.5529 32.7091 37.5226 32.753 37.4885L42.9899 29.9652C42.9899 29.9652 42.9899 29.9652 43.0388 29.9235C43.0877 29.8818 44.9744 28.5329 51.0117 29.5967C51.4938 29.7845 53.4643 30.5563 56.2803 31.8913C56.5808 32.0373 62.4784 34.9159 67.8309 35.785V56.1438ZM74.8185 57.1937C74.8185 57.4857 74.6368 57.7082 74.4691 57.7082H70.9753C70.8076 57.7082 70.6259 57.4857 70.6259 57.1937V53.5363H74.8185V57.1937ZM74.8185 50.7551H70.6259V46.5832H74.8185V50.7551ZM74.8185 43.802H70.6259V39.6301H74.8185V43.802ZM74.8185 36.8488H70.6259V34.5821C70.6259 34.2901 70.8076 34.0676 70.9753 34.0676H74.4691C74.6368 34.0676 74.8185 34.2901 74.8185 34.5821V36.8488Z" fill="#FFB640"/>
<path d="M88.7936 34.7627H80.4084V57.0127H88.7936C89.1643 57.0127 89.5197 56.8662 89.7818 56.6054C90.0439 56.3446 90.1911 55.9909 90.1911 55.6221V36.1533C90.1911 35.7845 90.0439 35.4308 89.7818 35.17C89.5197 34.9092 89.1643 34.7627 88.7936 34.7627ZM84.601 42.4111C84.3246 42.4111 84.0544 42.3296 83.8246 42.1768C83.5948 42.024 83.4157 41.8068 83.3099 41.5527C83.2041 41.2986 83.1764 41.019 83.2304 40.7492C83.2843 40.4795 83.4174 40.2317 83.6128 40.0372C83.8083 39.8427 84.0573 39.7103 84.3284 39.6566C84.5995 39.6029 84.8805 39.6305 85.1358 39.7357C85.3912 39.841 85.6095 40.0192 85.763 40.2479C85.9166 40.4766 85.9986 40.7455 85.9986 41.0205C85.9986 41.3893 85.8513 41.743 85.5892 42.0038C85.3271 42.2646 84.9717 42.4111 84.601 42.4111Z" fill="#FFB640"/>
</svg>
