<svg width="89" height="89" viewBox="0 0 89 89" fill="none" xmlns="http://www.w3.org/2000/svg">
<circle cx="44.5" cy="44.5" r="44.5" fill="#FFB640"/>
<path d="M40.0899 54.5282C42.2963 54.5282 44.0913 52.7332 44.0913 50.5268C44.0913 48.3627 41.6882 46.3248 40.0899 44.6855C38.4711 46.345 36.0884 48.3733 36.0884 50.5268C36.0884 52.7332 37.8834 54.5282 40.0899 54.5282Z" fill="white"/>
<path d="M28.2024 41.09H32.8541C33.1395 41.09 33.3709 41.3215 33.3709 41.6069C33.3709 41.8924 33.1395 42.1237 32.8541 42.1237H28.2024V58.6631H43.1912C43.4766 58.6631 43.708 58.8944 43.708 59.1799C43.708 59.4654 43.4766 59.6968 43.1912 59.6968H28.2024V62.7979H51.9777V46.2586H48.3597C48.0742 46.2586 47.8428 46.0272 47.8428 45.7417C47.8428 45.4562 48.0742 45.2249 48.3597 45.2249H51.9777V35.9214H28.2024V41.09ZM39.7112 43.5852C39.9155 43.365 40.2644 43.3648 40.4689 43.5852C42.238 45.4917 45.1252 47.7215 45.1252 50.5269C45.1252 53.3032 42.8665 55.5619 40.09 55.5619C37.3136 55.5619 35.0548 53.3032 35.0548 50.5269C35.0548 47.7181 37.9547 45.4779 39.7112 43.5852Z" fill="white"/>
<path d="M33.1403 27.6519L28.6179 34.8877H52.2079L56.7303 27.6519H33.1403ZM41.1235 31.7867H36.9887C36.7033 31.7867 36.4718 31.5553 36.4718 31.2698C36.4718 30.9844 36.7033 30.753 36.9887 30.753H41.1235C41.4089 30.753 41.6404 30.9844 41.6404 31.2698C41.6404 31.5553 41.4089 31.7867 41.1235 31.7867ZM46.292 32.8204H44.2246C43.9392 32.8204 43.7078 32.5891 43.7078 32.3035C43.7078 32.0181 43.9392 31.7867 44.2246 31.7867H46.292C46.5776 31.7867 46.8089 32.0181 46.8089 32.3035C46.8089 32.5891 46.5776 32.8204 46.292 32.8204Z" fill="white"/>
<path d="M51.9777 63.8315H28.2024V66.9327H51.9777V63.8315Z" fill="white"/>
<path d="M61.899 34.8878L57.663 28.1104L53.427 34.8878H61.899Z" fill="white"/>
<path d="M57.1461 23.5166H33.3708V26.6177H57.1461V23.5166Z" fill="white"/>
<path d="M62.3146 63.8315H53.0112V66.9327H62.3146V63.8315Z" fill="white"/>
<path d="M67.4832 25.5845C67.4832 24.4446 66.5558 23.5171 65.4158 23.5171C64.2758 23.5171 63.3484 24.4446 63.3484 25.5845C63.3484 26.7245 64.2758 27.6519 65.4158 27.6519C66.5558 27.6519 67.4832 26.7245 67.4832 25.5845Z" fill="white"/>
<path d="M25.1011 31.2698C25.1011 30.4148 24.4055 29.7192 23.5506 29.7192C22.6956 29.7192 22 30.4148 22 31.2698C22 32.1248 22.6956 32.8204 23.5506 32.8204C24.4055 32.8204 25.1011 32.1248 25.1011 31.2698Z" fill="white"/>
<path d="M62.3146 35.9214H53.0112V62.7979H62.3146V35.9214Z" fill="white"/>
<path d="M66.9663 34.3706C67.5372 34.3706 68 33.9078 68 33.3369C68 32.766 67.5372 32.3032 66.9663 32.3032C66.3954 32.3032 65.9326 32.766 65.9326 33.3369C65.9326 33.9078 66.3954 34.3706 66.9663 34.3706Z" fill="white"/>
<path d="M66.9663 52.9776C67.5372 52.9776 68 52.5148 68 51.9439C68 51.373 67.5372 50.9102 66.9663 50.9102C66.3954 50.9102 65.9326 51.373 65.9326 51.9439C65.9326 52.5148 66.3954 52.9776 66.9663 52.9776Z" fill="white"/>
<path d="M23.5506 44.708C24.1215 44.708 24.5843 44.2452 24.5843 43.6743C24.5843 43.1034 24.1215 42.6406 23.5506 42.6406C22.9797 42.6406 22.5168 43.1034 22.5168 43.6743C22.5168 44.2452 22.9797 44.708 23.5506 44.708Z" fill="white"/>
<path d="M24.5842 61.2471C25.1551 61.2471 25.618 60.7843 25.618 60.2134C25.618 59.6425 25.1551 59.1797 24.5842 59.1797C24.0133 59.1797 23.5505 59.6425 23.5505 60.2134C23.5505 60.7843 24.0133 61.2471 24.5842 61.2471Z" fill="white"/>
<path d="M27.6853 25.0674C28.2562 25.0674 28.719 24.6046 28.719 24.0337C28.719 23.4628 28.2562 23 27.6853 23C27.1144 23 26.6516 23.4628 26.6516 24.0337C26.6516 24.6046 27.1144 25.0674 27.6853 25.0674Z" fill="white"/>
</svg>
