<svg width="89" height="89" viewBox="0 0 89 89" fill="none" xmlns="http://www.w3.org/2000/svg">
<circle cx="44.5" cy="44.5" r="44.5" fill="#FEBC52"/>
<path fill-rule="evenodd" clip-rule="evenodd" d="M62.5664 62.3673C61.5623 63.8693 59.8503 64.8604 57.9091 64.8604C55.9675 64.8604 54.2555 63.8693 53.2514 62.3669H62.5664V62.3673ZM39.9862 62.3594C38.983 63.8667 37.2685 64.8608 35.3239 64.8608C33.3794 64.8608 31.6649 63.8667 30.6617 62.3594H39.9862ZM52.8125 35.0659C52.9037 34.7128 53.2246 34.4522 53.6062 34.4522H61.8836C63.5537 34.4522 64.9075 35.806 64.9075 37.4757V37.5736C64.9075 39.2437 63.5537 40.5976 61.8836 40.5976H61.0084V50.3878C61.0084 50.8907 60.9615 51.3885 60.8699 51.8755C63.3064 52.9976 65 55.4626 65 58.3196C65 58.7313 64.9644 59.1421 64.8929 59.5475C64.7553 60.3311 64.0742 60.9026 63.2784 60.903H52.5393C51.7436 60.903 51.0625 60.3315 50.9249 59.5475C50.86 59.1785 50.8245 58.8049 50.8186 58.4305H45.3346C45.3392 58.3087 45.3413 58.187 45.3413 58.0648C45.3413 52.5361 40.8527 48.0474 35.3239 48.0474C29.7952 48.0474 25.3066 52.5361 25.3066 58.0648C25.3066 58.187 25.3087 58.3087 25.3133 58.4305H24.8196C24.3669 58.4305 24 58.0636 24 57.6109V50.9434C24 48.9762 24.6711 47.0777 25.8864 45.5544C25.8831 45.5498 25.8831 45.5456 25.8868 45.5414C25.5668 45.1088 25.3911 44.5829 25.3911 44.0386V42.4714C25.3911 41.8021 25.6576 41.159 26.1312 40.6854C26.6052 40.2118 27.2478 39.9449 27.9176 39.9449H41.1422C41.812 39.9449 42.4546 40.2118 42.9286 40.6854C43.4022 41.159 43.6683 41.8016 43.6683 42.4714V44.0386C43.6683 44.6202 43.4679 45.1808 43.1056 45.6284C43.1085 45.633 43.1081 45.6376 43.1043 45.6422C44.2084 47.099 44.8155 48.885 44.8155 50.7338V50.7342C44.8155 51.2103 45.0046 51.6667 45.3413 52.0035C45.6777 52.3403 46.1346 52.5294 46.6107 52.5294H53.0983C54.2082 52.5294 55.1077 51.6295 55.1077 50.52V40.5972H53.6062C53.2246 40.5972 52.9037 40.3365 52.8125 39.9834V35.0659ZM42.1408 60.8955C42.9332 60.8959 43.611 60.3265 43.7478 59.5463C43.8335 59.0572 43.8771 58.5614 43.8771 58.0653C43.8771 53.3448 40.0444 49.5121 35.3239 49.5121C30.6035 49.5121 26.7708 53.3448 26.7708 58.0653C26.7708 58.5623 26.8139 59.0585 26.9001 59.5475C27.0378 60.3274 27.7155 60.8955 28.5071 60.8955H42.1408ZM51.3483 39.9838H50.3341C48.9991 39.9838 47.9172 38.9019 47.9172 37.5669V37.4824C47.9172 36.1478 48.9991 35.0659 50.3341 35.0659H51.3483V39.9838ZM37.5321 25H40.4992C41.11 25 41.6957 25.2427 42.1274 25.6744C42.5592 26.1066 42.8018 26.6919 42.8018 27.3027V38.8429C42.2856 38.607 41.7204 38.4811 41.1422 38.4811H27.9176C27.3394 38.4811 26.7742 38.607 26.2579 38.8429V27.3027C26.2579 26.6919 26.5002 26.1066 26.9323 25.6744C27.3641 25.2427 27.9498 25 28.5602 25H31.5273V29.8577C31.5273 30.4388 31.8707 30.9647 32.4025 31.1985C32.9342 31.432 33.5538 31.3295 33.9818 30.9366L34.5299 30.4333L35.0775 30.9362C35.5051 31.3295 36.1251 31.432 36.6569 31.1985C37.1886 30.9647 37.5321 30.4388 37.5321 29.8577V25ZM29.6446 37.336H33.184C33.6363 37.336 34.0036 36.9687 34.0036 36.5164C34.0036 36.0641 33.6363 35.6968 33.184 35.6968H29.6446C29.1919 35.6968 28.825 36.0641 28.825 36.5164C28.825 36.9687 29.1919 37.336 29.6446 37.336ZM29.6446 34.794H33.184C33.6363 34.794 34.0036 34.4267 34.0036 33.9744C34.0036 33.5221 33.6363 33.1548 33.184 33.1548H29.6446C29.1919 33.1548 28.825 33.5221 28.825 33.9744C28.825 34.4267 29.1919 34.794 29.6446 34.794ZM36.0678 25V29.8577L34.5299 28.4453L32.9916 29.8577V25H36.0678Z" fill="white"/>
</svg>
