<svg width="89" height="89" viewBox="0 0 89 89" fill="none" xmlns="http://www.w3.org/2000/svg">
<circle cx="44.5" cy="44.5" r="44.5" fill="#FEBC52"/>
<path d="M57.286 53.3219C56.3516 53.3205 55.4379 53.5962 54.6602 54.1141C53.8826 54.6321 53.276 55.369 52.9172 56.2317C52.5584 57.0943 52.4634 58.0441 52.6444 58.9607C52.8253 59.8773 53.274 60.7197 53.9337 61.3814C54.5934 62.043 55.4345 62.4941 56.3506 62.6777C57.2668 62.8613 58.2167 62.7692 59.0805 62.4128C59.9442 62.0565 60.6828 61.4521 61.203 60.6759C61.7232 59.8998 62.0016 58.9868 62.0029 58.0525C62.0027 56.8003 61.5061 55.5992 60.622 54.7125C59.7378 53.8258 58.5382 53.3257 57.286 53.3219ZM57.286 60.355C56.8287 60.3564 56.3813 60.222 56.0005 59.9688C55.6196 59.7157 55.3226 59.3551 55.1469 58.9329C54.9712 58.5107 54.9249 58.0459 55.0137 57.5973C55.1026 57.1487 55.3226 56.7366 55.6459 56.4132C55.9692 56.0898 56.3813 55.8697 56.8299 55.7808C57.2784 55.6919 57.7433 55.7381 58.1655 55.9137C58.5878 56.0893 58.9484 56.3863 59.2016 56.7671C59.4549 57.1478 59.5894 57.5952 59.5881 58.0525C59.5868 58.6627 59.3438 59.2475 58.9124 59.679C58.481 60.1106 57.8962 60.3536 57.286 60.355Z" fill="white"/>
<path d="M30.7185 53.3219C29.7844 53.3214 28.871 53.5978 28.094 54.1163C27.3169 54.6348 26.711 55.372 26.3529 56.2348C25.9948 57.0975 25.9005 58.0471 26.0819 58.9635C26.2634 59.8798 26.7124 60.7218 27.3723 61.383C28.0322 62.0441 28.8733 62.4948 29.7893 62.6781C30.7053 62.8613 31.6551 62.7689 32.5185 62.4124C33.382 62.0559 34.1204 61.4515 34.6404 60.6755C35.1603 59.8994 35.4386 58.9866 35.4399 58.0525C35.4397 56.7995 34.9425 55.5978 34.0574 54.7109C33.1722 53.8241 31.9715 53.3245 30.7185 53.3219ZM30.7185 60.355C30.2614 60.3555 29.8144 60.2204 29.4342 59.9667C29.054 59.7129 28.7576 59.3521 28.5826 58.9298C28.4077 58.5075 28.362 58.0428 28.4513 57.5945C28.5407 57.1462 28.761 56.7346 29.0845 56.4116C29.408 56.0887 29.8201 55.869 30.2685 55.7805C30.717 55.6919 31.1816 55.7384 31.6036 55.9142C32.0256 56.0899 32.3859 56.3869 32.6389 56.7675C32.892 57.1482 33.0264 57.5954 33.0251 58.0525C33.0238 58.6635 32.7802 59.249 32.3478 59.6806C31.9154 60.1123 31.3295 60.3548 30.7185 60.355Z" fill="white"/>
<path d="M70.2686 52.9034H68.4885V46.6524C68.4889 46.3607 68.429 46.0721 68.3127 45.8046C68.1963 45.537 68.026 45.2964 67.8124 45.0978L62.9965 40.5993L61.98 39.6517L59.579 32.0209C59.4425 31.5887 59.1718 31.2112 58.8062 30.9433C58.4407 30.6753 57.9992 30.5308 57.546 30.5306H48.526C48.1382 30.5308 47.7662 30.685 47.492 30.9593C47.2177 31.2335 47.0635 31.6055 47.0633 31.9933V52.9034H33.5449C34.2471 53.2908 34.863 53.8174 35.3549 54.4509C35.8468 55.0843 36.2044 55.8114 36.4059 56.5877H51.5986C51.9212 55.3248 52.6551 54.2052 53.6845 53.4056C54.7139 52.6061 55.9803 52.172 57.2838 52.172C58.5872 52.172 59.8536 52.6061 60.883 53.4056C61.9125 54.2052 62.6464 55.3248 62.9689 56.5877H70.2686C70.4617 56.5875 70.6469 56.511 70.7839 56.3749C70.9209 56.2388 70.9985 56.0541 71 55.861V53.6347C70.9987 53.4412 70.9213 53.2559 70.7844 53.119C70.6475 52.9821 70.4622 52.9046 70.2686 52.9034ZM49.5932 40.5993V33.0605H57.2516L59.625 40.5993H49.5932Z" fill="white"/>
<path d="M27.892 52.9033H17.7314C17.5375 52.9038 17.3518 52.981 17.2148 53.1181C17.0777 53.2551 17.0005 53.4409 17 53.6347V55.8609C17.0007 56.0543 17.0781 56.2394 17.2152 56.3757C17.3524 56.512 17.538 56.5882 17.7314 56.5877H25.031C25.2325 55.8114 25.5901 55.0843 26.082 54.4508C26.5739 53.8173 27.1898 53.2908 27.892 52.9033Z" fill="white"/>
<path d="M19.5297 50.7185H44.2437C44.4375 50.718 44.6232 50.6408 44.7603 50.5038C44.8973 50.3667 44.9745 50.181 44.975 49.9872V28.194C44.9754 27.9057 44.919 27.6202 44.8089 27.3539C44.6988 27.0875 44.5372 26.8454 44.3333 26.6416C44.1295 26.4378 43.8875 26.2762 43.6211 26.1661C43.3547 26.056 43.0692 25.9995 42.781 25.9999H20.9924C20.7041 25.9995 20.4186 26.056 20.1523 26.1661C19.8859 26.2762 19.6438 26.4378 19.44 26.6416C19.2362 26.8454 19.0746 27.0875 18.9645 27.3538C18.8544 27.6202 18.7979 27.9057 18.7983 28.194V49.9872C18.7982 50.0833 18.817 50.1784 18.8537 50.2672C18.8904 50.356 18.9443 50.4367 19.0122 50.5046C19.0802 50.5726 19.1608 50.6264 19.2496 50.6631C19.3384 50.6998 19.4336 50.7187 19.5297 50.7185Z" fill="white"/>
</svg>
