<svg width="18" height="25" viewBox="0 0 18 25" fill="none" xmlns="http://www.w3.org/2000/svg">
<path d="M18 8.70949C18 7.56575 17.7672 6.4332 17.3149 5.37651C16.8626 4.31983 16.1997 3.3597 15.364 2.55095C14.5282 1.7422 13.5361 1.10066 12.4442 0.662971C11.3522 0.225278 10.1819 0 9 0C7.8181 0 6.64778 0.225278 5.55585 0.662971C4.46392 1.10066 3.47177 1.7422 2.63604 2.55095C1.80031 3.3597 1.13738 4.31983 0.685084 5.37651C0.232792 6.4332 -1.76116e-08 7.56575 0 8.70949C0 10.4352 0.527143 12.0403 1.42071 13.394H1.41043C4.44471 17.9913 9 24.8843 9 24.8843L16.5896 13.394H16.5806C17.5068 11.9959 17.9994 10.3702 18 8.70949ZM9 12.4421C7.97702 12.4421 6.99594 12.0489 6.27259 11.3489C5.54923 10.6489 5.14286 9.69945 5.14286 8.70949C5.14286 7.71954 5.54923 6.77012 6.27259 6.07012C6.99594 5.37011 7.97702 4.97685 9 4.97685C10.023 4.97685 11.0041 5.37011 11.7274 6.07012C12.4508 6.77012 12.8571 7.71954 12.8571 8.70949C12.8571 9.69945 12.4508 10.6489 11.7274 11.3489C11.0041 12.0489 10.023 12.4421 9 12.4421Z" fill="#C9C9C9"/>
</svg>
