<svg width="60" height="76" viewBox="0 0 60 76" fill="none" xmlns="http://www.w3.org/2000/svg">
<path fill-rule="evenodd" clip-rule="evenodd" d="M42.562 75.8173H2.29542C1.74269 75.8173 1.22047 75.5624 0.879504 75.1264C0.54033 74.6921 0.420109 74.1232 0.552907 73.5884L2.69023 65.0408H42.562V75.8173ZM57.3098 65.0408L59.4471 73.5866C59.5799 74.1232 59.4597 74.6921 59.1205 75.1264C58.7795 75.5624 58.2573 75.8173 57.7046 75.8173H46.1511V65.0408H57.3098ZM14.6277 50.6933H7.67913C6.85542 50.6933 6.13761 51.2532 5.93662 52.0518L3.58751 61.4517H24.1282C21.4543 58.7778 17.9764 55.0433 14.6277 50.6933ZM45.3723 50.6933C42.0236 55.0451 38.5457 58.7778 35.87 61.4517H56.4125L54.0634 52.0518C53.8624 51.2532 53.1446 50.6933 52.3209 50.6933H45.3723ZM30 0.445312C42.876 0.445312 53.3294 10.8987 53.3294 23.7747C53.3294 29.6842 50.7937 35.8019 47.4199 41.3974C42.2031 50.0508 34.9351 57.4534 31.2149 60.9744C30.5294 61.6096 29.4706 61.6096 28.7833 60.9762C25.0649 57.4534 17.7969 50.0508 12.5801 41.3974C9.20632 35.8019 6.67059 29.6842 6.67059 23.7747C6.67059 10.8987 17.124 0.445312 30 0.445312ZM30 11.2127C23.0676 11.2127 17.438 16.8423 17.438 23.7747C17.438 30.7071 23.0676 36.3367 30 36.3367C36.9324 36.3367 42.562 30.7071 42.562 23.7747C42.562 16.8423 36.9324 11.2127 30 11.2127Z" fill="white"/>
</svg>
