<svg width="90" height="90" viewBox="0 0 90 90" fill="none" xmlns="http://www.w3.org/2000/svg">
<path d="M77.3806 16.4682L50.7981 11.1634C50.5027 11.1059 50.1994 11.1811 49.968 11.3705C49.7366 11.561 49.6023 11.8442 49.6023 12.144V77.8548C49.6023 78.1546 49.7366 78.4379 49.968 78.6283C50.1487 78.7757 50.3728 78.8548 50.6023 78.8548C50.6672 78.8548 50.7331 78.8481 50.7981 78.8354L77.3806 73.5307C77.8479 73.4379 78.1848 73.0268 78.1848 72.5502V17.4487C78.1848 16.9721 77.8479 16.561 77.3806 16.4682ZM59.1628 47.4692C59.1628 48.0218 58.7151 48.4692 58.1628 48.4692H54.9294V46.4692H57.1628V43.5297H54.9294V41.5297H58.1628C58.7151 41.5297 59.1628 41.977 59.1628 42.5297V47.4692Z" fill="white"/>
<path d="M15.0278 48.2894H35.6074L35.4512 48.4085C33.71 49.7318 33.7769 51.9808 34.8481 53.39C35.4584 54.1937 36.2875 54.6087 37.1459 54.6087C37.7631 54.6087 38.3956 54.3939 38.9727 53.9554L47.1104 47.7728C48.0693 47.0443 48.5977 46.0588 48.5977 44.9993C48.5977 43.9398 48.0693 42.9544 47.1104 42.2258L38.9727 36.0433C38.0883 35.3724 37.0497 35.2103 36.1205 35.5999C35.0634 36.0433 34.2773 37.1439 34.1182 38.4036C33.9584 39.6633 34.4443 40.8245 35.4512 41.5892L35.6088 41.7092H15.0278C12.9189 41.7092 11.8154 43.3655 11.8154 45.0003C11.8154 46.6351 12.9189 48.2894 15.0278 48.2894Z" fill="white"/>
<path d="M47.624 74.622V66.665C47.624 66.1122 47.1762 65.665 46.624 65.665H32.6601V52.2979C32.6601 51.7451 32.2123 51.2979 31.6601 51.2979H23.7036C23.1513 51.2979 22.7036 51.7451 22.7036 52.2979V70.6436C22.7036 73.3886 24.937 75.622 27.6821 75.622H46.624C47.1762 75.622 47.624 75.1747 47.624 74.622Z" fill="white"/>
<path d="M31.6601 38.7021C32.2123 38.7021 32.6601 38.2548 32.6601 37.7021V24.3349H46.624C47.1762 24.3349 47.624 23.8876 47.624 23.3349V15.3779C47.624 14.8251 47.1762 14.3779 46.624 14.3779H27.6821C24.937 14.3779 22.7036 16.6113 22.7036 19.3564V37.7021C22.7036 38.2548 23.1513 38.7021 23.7036 38.7021H31.6601Z" fill="white"/>
</svg>
