<svg width="124" height="37" viewBox="0 0 124 37" fill="none" xmlns="http://www.w3.org/2000/svg">
<path fill-rule="evenodd" clip-rule="evenodd" d="M22.6154 28.6064C41.4304 19.5673 36.237 15.5024 18.0952 0C28.8311 13.495 33.0407 19.2376 22.6154 28.6064Z" fill="#FEBC52"/>
<path fill-rule="evenodd" clip-rule="evenodd" d="M26.7994 19.4033C26.8539 22.8907 25.6093 25.3938 22.141 28.5083C15.3971 31.4956 10.4145 33.8645 0.501465 36.2448C12.1192 32.1026 24.4056 26.1872 26.7994 19.4033Z" fill="white"/>
<path fill-rule="evenodd" clip-rule="evenodd" d="M32.1855 22.9772C35.9871 20.1991 34.4161 15.5658 35.5745 14.3564C36.9618 12.3581 38.857 13.1424 39.5211 14.245C40.1151 14.3655 40.5322 14.5473 41.0581 14.7224C40.641 15.0771 40.1581 15.0998 39.5461 15.2589C37.5694 15.3544 38.0885 20.3627 32.1855 22.9772Z" fill="#FEBC52"/>
<path d="M47.92 16.4155H50.7249V12.8117H52.6289C55.2864 12.8117 56.9467 11.2364 56.9467 8.82814C56.9467 6.44256 55.3204 4.81061 52.7139 4.81061H47.92V16.4155ZM50.7249 10.6017V7.07153H52.1076C53.3655 7.07153 54.0398 7.75151 54.0398 8.82814C54.0398 9.8991 53.3655 10.6017 52.1076 10.6017H50.7249ZM62.2208 16.5799C64.9577 16.5799 66.618 14.7723 66.618 12.092C66.618 9.40611 64.9577 7.59851 62.2208 7.59851C59.4839 7.59851 57.8236 9.40611 57.8236 12.092C57.8236 14.7723 59.4839 16.5799 62.2208 16.5799ZM62.2378 14.4889C61.2122 14.4889 60.6455 13.5143 60.6455 12.075C60.6455 10.6301 61.2122 9.64977 62.2378 9.64977C63.2294 9.64977 63.7961 10.6301 63.7961 12.075C63.7961 13.5143 63.2294 14.4889 62.2378 14.4889ZM75.6361 10.3694C75.4888 8.64681 74.0779 7.59851 71.7206 7.59851C69.3634 7.59851 67.8617 8.62414 67.8731 10.3694C67.8617 11.7067 68.7174 12.568 70.457 12.891L71.9756 13.18C72.6952 13.3216 73.0239 13.5483 73.0352 13.9336C73.0239 14.3699 72.5366 14.6589 71.8283 14.6589C71.0406 14.6589 70.508 14.3189 70.389 13.6843L67.6521 13.7523C67.8504 15.4749 69.3294 16.5799 71.8169 16.5799C74.1458 16.5799 75.8401 15.4182 75.8515 13.6276C75.8401 12.3583 75.0015 11.6047 73.2675 11.2704L71.5903 10.9531C70.8536 10.8057 70.6156 10.5451 70.6213 10.2108C70.6156 9.76877 71.1313 9.49678 71.7716 9.49678C72.5026 9.49678 73.0126 9.88776 73.0919 10.4374L75.6361 10.3694ZM82.1285 7.71184H80.5589V5.62659H77.788V7.71184H76.6377V9.75177H77.788V13.9846C77.771 15.7469 78.9156 16.6309 80.8705 16.5402C81.5392 16.5062 82.0208 16.3702 82.2871 16.2909L81.8678 14.2906C81.7488 14.3189 81.4712 14.3756 81.2615 14.3756C80.8139 14.3756 80.5589 14.1943 80.5589 13.6786V9.75177H82.1285V7.71184Z" fill="#FEBC52"/>
<path d="M83.5423 16.4155H88.7497C91.3166 16.4155 92.7899 15.0442 92.7899 13.1686C92.7899 11.4914 91.5716 10.4374 90.1664 10.3751V10.2618C91.4413 9.99543 92.3366 9.07179 92.3366 7.74584C92.3366 5.9949 90.988 4.81061 88.3814 4.81061H83.5423V16.4155ZM86.3472 14.1546V11.3894H88.1321C89.2031 11.3894 89.8604 11.956 89.8604 12.8457C89.8604 13.6673 89.2937 14.1546 88.0811 14.1546H86.3472ZM86.3472 9.58177V7.03753H87.9451C88.8801 7.03753 89.475 7.51918 89.475 8.28982C89.475 9.10579 88.8177 9.58177 87.8998 9.58177H86.3472ZM94.1385 16.4155H96.9094V7.71184H94.1385V16.4155ZM95.5268 6.69755C96.3145 6.69755 96.9491 6.10257 96.9491 5.37159C96.9491 4.64062 96.3145 4.05131 95.5268 4.05131C94.7449 4.05131 94.1045 4.64062 94.1045 5.37159C94.1045 6.10257 94.7449 6.69755 95.5268 6.69755ZM98.6731 16.4155H101.444V11.6897C101.444 10.6527 102.181 9.95576 103.172 9.95576C103.501 9.95576 103.994 10.0124 104.26 10.1031V7.69484C104.028 7.63251 103.739 7.59285 103.484 7.59285C102.532 7.59285 101.773 8.14816 101.455 9.29845H101.365V7.71184H98.6731V16.4155ZM108.116 16.5402C109.431 16.5402 110.213 15.8092 110.564 15.0046H110.649V16.4155H113.392V4.81061H110.621V9.20212H110.564C110.236 8.40315 109.476 7.59851 108.105 7.59851C106.286 7.59851 104.637 8.99813 104.637 12.0694C104.637 15.0329 106.195 16.5402 108.116 16.5402ZM109.08 14.3813C108.054 14.3813 107.482 13.469 107.482 12.0637C107.482 10.6641 108.048 9.7631 109.08 9.7631C110.094 9.7631 110.683 10.6414 110.683 12.0637C110.683 13.4746 110.088 14.3813 109.08 14.3813Z" fill="white"/>
<path d="M88.7024 32.1968L87.0854 32.2606C86.9365 32.2606 86.8124 32.2074 86.7131 32.101C86.6209 31.9876 86.5748 31.8741 86.5748 31.7606C86.5748 31.6401 86.589 31.2429 86.6173 30.5692C86.6528 29.8955 86.6705 29.1792 86.6705 28.4203C86.6705 27.6615 86.6528 26.9701 86.6173 26.346C86.589 25.7148 86.5748 25.3886 86.5748 25.3673C86.5748 25.2184 86.6209 25.0872 86.7131 24.9737C86.8124 24.8531 86.9365 24.7928 87.0854 24.7928C87.2343 24.7928 87.3549 24.8531 87.4471 24.9737C87.5464 25.0872 87.596 25.2184 87.596 25.3673C87.596 25.3886 87.5783 25.7148 87.5428 26.346C87.5145 26.9701 87.5003 27.6048 87.5003 28.2501C87.5003 28.8884 87.5038 29.4026 87.5109 29.7926C87.5251 30.1827 87.5428 30.5479 87.5641 30.8883C87.5854 31.2287 87.596 31.4309 87.596 31.4947L90.3193 31.4309C90.4328 31.4309 90.5321 31.4699 90.6172 31.5479C90.7094 31.6188 90.7555 31.7181 90.7555 31.8457C90.7555 31.9734 90.7094 32.0762 90.6172 32.1542C90.5321 32.2251 90.4328 32.2606 90.3193 32.2606L88.7024 32.1968ZM92.5149 28.6544C92.2029 28.9664 92.0469 29.3494 92.0469 29.8033C92.0469 30.2571 92.2029 30.6437 92.5149 30.9628C92.8341 31.2748 93.217 31.4309 93.6638 31.4309C94.1177 31.4309 94.4971 31.2748 94.8021 30.9628C95.107 30.6437 95.2595 30.2571 95.2595 29.8033C95.2595 29.3494 95.107 28.9664 94.8021 28.6544C94.4971 28.3423 94.1177 28.1863 93.6638 28.1863C93.217 28.1863 92.8341 28.3423 92.5149 28.6544ZM92.9405 32.2606C92.4866 32.2606 92.1072 32.0833 91.8022 31.7287C91.4973 31.3741 91.3448 30.9309 91.3448 30.399C91.3448 29.86 91.5114 29.3423 91.8448 28.8459C92.1781 28.3423 92.5681 27.9665 93.0149 27.7182C93.4617 27.47 93.912 27.3459 94.3659 27.3459C94.8198 27.3459 95.1992 27.5232 95.5042 27.8778C95.8091 28.2324 95.9616 28.6792 95.9616 29.2182C95.9616 29.7501 95.7949 30.2678 95.4616 30.7713C95.1283 31.2677 94.7383 31.6401 94.2915 31.8883C93.8447 32.1365 93.3943 32.2606 92.9405 32.2606ZM98.8272 28.1863C98.3733 28.1863 97.9868 28.3423 97.6676 28.6544C97.3556 28.9664 97.1996 29.3494 97.1996 29.8033C97.1996 30.2571 97.3556 30.6437 97.6676 30.9628C97.9868 31.2748 98.3662 31.4309 98.8059 31.4309C99.2456 31.4309 99.6108 31.2926 99.9016 31.016C100.199 30.7323 100.366 30.3813 100.402 29.9628C100.394 29.7572 100.391 29.5231 100.391 29.2607C100.391 28.9983 100.437 28.8104 100.529 28.6969C100.629 28.5764 100.746 28.5161 100.88 28.5161C101.015 28.5161 101.125 28.5728 101.21 28.6863C101.295 28.7927 101.338 28.9239 101.338 29.0799C101.338 29.2359 101.331 29.3919 101.316 29.548C101.309 29.6969 101.295 29.8919 101.274 30.133C101.203 30.9202 101.167 31.6578 101.167 32.3457C101.167 33.0336 100.863 33.6932 100.253 34.3243C99.6427 34.9626 98.9619 35.2818 98.2102 35.2818C97.8343 35.2818 97.5081 35.1754 97.2315 34.9626C96.9549 34.7499 96.8166 34.5194 96.8166 34.2712C96.8166 34.1435 96.8592 34.03 96.9443 33.9307C97.0365 33.8315 97.1428 33.7818 97.2634 33.7818C97.3911 33.7818 97.5045 33.8173 97.6038 33.8882C97.7102 33.9591 97.8059 34.0371 97.891 34.1222C97.9832 34.2073 98.118 34.2853 98.2953 34.3563C98.4797 34.4272 98.6853 34.4626 98.9123 34.4626C99.3591 34.4626 99.7314 34.296 100.029 33.9627C100.327 33.6364 100.476 33.2464 100.476 32.7925C100.476 32.7358 100.465 32.1436 100.444 31.016C100.139 31.3989 99.7739 31.7039 99.3484 31.9308C98.93 32.1507 98.5329 32.2606 98.157 32.2606C97.6606 32.2606 97.2599 32.0833 96.9549 31.7287C96.65 31.3741 96.4975 30.9309 96.4975 30.399C96.4975 29.86 96.6641 29.3423 96.9975 28.8459C97.3308 28.3423 97.7208 27.9665 98.1676 27.7182C98.6144 27.47 99.0151 27.3459 99.3697 27.3459C99.7243 27.3459 99.9725 27.4027 100.114 27.5161C100.263 27.6225 100.338 27.7537 100.338 27.9097C100.338 28.0587 100.288 28.1828 100.189 28.2821C100.097 28.3813 100.004 28.431 99.9122 28.431C99.8271 28.431 99.6711 28.392 99.4442 28.314C99.2243 28.2289 99.0187 28.1863 98.8272 28.1863ZM102.681 31.4202C102.681 30.5266 102.663 29.743 102.628 29.0693C102.592 28.3955 102.575 27.9984 102.575 27.8778C102.575 27.7573 102.621 27.6402 102.713 27.5268C102.812 27.4062 102.929 27.3459 103.064 27.3459C103.199 27.3459 103.309 27.4027 103.394 27.5161C103.479 27.6225 103.521 27.7821 103.521 27.9948C103.521 28.2005 103.497 28.5515 103.447 29.048C103.397 29.5373 103.372 30.0479 103.372 30.5798C103.372 30.7926 103.415 30.9982 103.5 31.1968C103.592 31.3883 103.638 31.5656 103.638 31.7287C103.638 31.8847 103.592 32.0124 103.5 32.1117C103.415 32.211 103.294 32.2606 103.138 32.2606C102.989 32.2606 102.876 32.1755 102.798 32.0053C102.72 31.8351 102.681 31.6401 102.681 31.4202ZM103.021 26.1438C102.865 26.1438 102.741 26.1013 102.649 26.0162C102.557 25.9311 102.511 25.807 102.511 25.6439C102.511 25.4808 102.568 25.3425 102.681 25.229C102.794 25.1084 102.929 25.0482 103.085 25.0482C103.241 25.0482 103.365 25.0942 103.458 25.1864C103.557 25.2715 103.606 25.3957 103.606 25.5588C103.606 25.7219 103.546 25.8602 103.426 25.9736C103.312 26.0871 103.177 26.1438 103.021 26.1438ZM105.875 32.2606C105.612 32.2606 105.399 32.2074 105.236 32.101C105.073 31.9947 104.992 31.8635 104.992 31.7074C104.992 31.5443 105.038 31.4167 105.13 31.3245C105.229 31.2252 105.325 31.1755 105.417 31.1755C105.516 31.1755 105.676 31.2181 105.896 31.3032C106.116 31.3883 106.343 31.4309 106.577 31.4309C106.818 31.4309 107.059 31.3706 107.3 31.25C107.541 31.1224 107.662 30.9699 107.662 30.7926C107.662 30.6082 107.57 30.4664 107.385 30.3671C107.208 30.2678 106.992 30.1898 106.736 30.133C106.481 30.0692 106.226 29.9983 105.97 29.9203C105.715 29.8423 105.495 29.7253 105.311 29.5692C105.133 29.4061 105.045 29.2075 105.045 28.9735C105.045 28.5906 105.289 28.2253 105.779 27.8778C106.268 27.5232 106.807 27.3459 107.396 27.3459C107.679 27.3459 107.896 27.3991 108.045 27.5055C108.201 27.6048 108.279 27.736 108.279 27.8991C108.279 28.0622 108.229 28.1934 108.13 28.2927C108.038 28.3849 107.942 28.431 107.843 28.431C107.75 28.431 107.594 28.3884 107.375 28.3033C107.155 28.2182 106.924 28.1757 106.683 28.1757C106.449 28.1757 106.243 28.2253 106.066 28.3246C105.896 28.4239 105.811 28.5445 105.811 28.6863C105.811 28.8281 105.945 28.9522 106.215 29.0586C106.492 29.165 106.793 29.2501 107.119 29.3139C107.445 29.3778 107.743 29.5054 108.013 29.6969C108.289 29.8813 108.428 30.1224 108.428 30.4203C108.428 30.8812 108.158 31.3032 107.619 31.6862C107.08 32.0691 106.499 32.2606 105.875 32.2606ZM111.936 28.1331C111.9 28.1331 111.457 28.1048 110.606 28.048C110.606 28.1402 110.592 28.4913 110.563 29.1012C110.535 29.7111 110.521 30.165 110.521 30.4628C110.521 30.7536 110.585 30.9982 110.712 31.1968C110.847 31.3883 110.914 31.5621 110.914 31.7181C110.914 31.8741 110.861 32.0053 110.755 32.1117C110.648 32.211 110.528 32.2606 110.393 32.2606C110.038 32.2606 109.861 31.9805 109.861 31.4202L109.819 29.2607C109.819 28.821 109.808 28.4274 109.787 28.0799H109.531C109.432 28.0799 109.351 28.0516 109.287 27.9948C109.223 27.931 109.191 27.8459 109.191 27.7395C109.191 27.6331 109.223 27.5516 109.287 27.4949C109.351 27.431 109.432 27.3991 109.531 27.3991H109.755C109.741 27.0303 109.734 26.7502 109.734 26.5587C109.734 26.3602 109.78 26.2041 109.872 26.0907C109.971 25.9701 110.088 25.9098 110.223 25.9098C110.358 25.9098 110.468 25.9666 110.553 26.08C110.638 26.1864 110.68 26.3637 110.68 26.6119C110.68 26.8601 110.67 27.1332 110.648 27.431L111.936 27.3459C112.212 27.3459 112.35 27.4771 112.35 27.7395C112.35 28.0019 112.212 28.1331 111.936 28.1331ZM113.371 31.4202C113.371 30.5266 113.353 29.743 113.318 29.0693C113.282 28.3955 113.264 27.9984 113.264 27.8778C113.264 27.7573 113.31 27.6402 113.403 27.5268C113.502 27.4062 113.619 27.3459 113.754 27.3459C113.888 27.3459 113.998 27.4027 114.083 27.5161C114.169 27.6225 114.211 27.7821 114.211 27.9948C114.211 28.2005 114.186 28.5515 114.137 29.048C114.087 29.5373 114.062 30.0479 114.062 30.5798C114.062 30.7926 114.105 30.9982 114.19 31.1968C114.282 31.3883 114.328 31.5656 114.328 31.7287C114.328 31.8847 114.282 32.0124 114.19 32.1117C114.105 32.211 113.984 32.2606 113.828 32.2606C113.679 32.2606 113.566 32.1755 113.488 32.0053C113.41 31.8351 113.371 31.6401 113.371 31.4202ZM113.711 26.1438C113.555 26.1438 113.431 26.1013 113.339 26.0162C113.247 25.9311 113.201 25.807 113.201 25.6439C113.201 25.4808 113.257 25.3425 113.371 25.229C113.484 25.1084 113.619 25.0482 113.775 25.0482C113.931 25.0482 114.055 25.0942 114.147 25.1864C114.247 25.2715 114.296 25.3957 114.296 25.5588C114.296 25.7219 114.236 25.8602 114.115 25.9736C114.002 26.0871 113.867 26.1438 113.711 26.1438ZM117.681 28.1757C117.213 28.1757 116.83 28.3388 116.532 28.665C116.242 28.9842 116.096 29.3671 116.096 29.8139C116.096 30.2607 116.249 30.6401 116.554 30.9522C116.866 31.2642 117.245 31.4202 117.692 31.4202C118.089 31.4202 118.447 31.2748 118.766 30.9841C118.88 30.8848 118.965 30.8351 119.022 30.8351C119.078 30.8351 119.128 30.8564 119.171 30.899C119.213 30.9415 119.234 30.9876 119.234 31.0373C119.234 31.2429 119.032 31.4982 118.628 31.8032C118.231 32.1081 117.777 32.2606 117.266 32.2606C116.763 32.2606 116.323 32.0549 115.947 31.6436C115.579 31.2323 115.394 30.7217 115.394 30.1118C115.394 29.3317 115.689 28.6757 116.277 28.1438C116.866 27.6119 117.515 27.3459 118.224 27.3459C118.522 27.3459 118.763 27.3991 118.947 27.5055C119.139 27.6048 119.234 27.736 119.234 27.8991C119.234 28.0551 119.185 28.1828 119.086 28.2821C118.993 28.3813 118.901 28.431 118.809 28.431C118.717 28.431 118.557 28.3884 118.33 28.3033C118.11 28.2182 117.894 28.1757 117.681 28.1757ZM120.782 32.2606C120.52 32.2606 120.307 32.2074 120.144 32.101C119.981 31.9947 119.899 31.8635 119.899 31.7074C119.899 31.5443 119.945 31.4167 120.037 31.3245C120.137 31.2252 120.232 31.1755 120.325 31.1755C120.424 31.1755 120.584 31.2181 120.803 31.3032C121.023 31.3883 121.25 31.4309 121.484 31.4309C121.725 31.4309 121.966 31.3706 122.208 31.25C122.449 31.1224 122.569 30.9699 122.569 30.7926C122.569 30.6082 122.477 30.4664 122.293 30.3671C122.115 30.2678 121.899 30.1898 121.644 30.133C121.388 30.0692 121.133 29.9983 120.878 29.9203C120.623 29.8423 120.403 29.7253 120.218 29.5692C120.041 29.4061 119.952 29.2075 119.952 28.9735C119.952 28.5906 120.197 28.2253 120.686 27.8778C121.176 27.5232 121.715 27.3459 122.303 27.3459C122.587 27.3459 122.803 27.3991 122.952 27.5055C123.108 27.6048 123.186 27.736 123.186 27.8991C123.186 28.0622 123.137 28.1934 123.037 28.2927C122.945 28.3849 122.849 28.431 122.75 28.431C122.658 28.431 122.502 28.3884 122.282 28.3033C122.062 28.2182 121.832 28.1757 121.591 28.1757C121.357 28.1757 121.151 28.2253 120.974 28.3246C120.803 28.4239 120.718 28.5445 120.718 28.6863C120.718 28.8281 120.853 28.9522 121.123 29.0586C121.399 29.165 121.7 29.2501 122.027 29.3139C122.353 29.3778 122.651 29.5054 122.92 29.6969C123.197 29.8813 123.335 30.1224 123.335 30.4203C123.335 30.8812 123.066 31.3032 122.527 31.6862C121.988 32.0691 121.406 32.2606 120.782 32.2606Z" fill="white"/>
</svg>
