<svg width="198" height="198" viewBox="0 0 198 198" fill="none" xmlns="http://www.w3.org/2000/svg">
<path d="M139.839 69.3C132.129 51.084 112.321 37.9645 93.1348 32.1908C43.4566 17.028 20.845 87.3616 36.4315 102.726C49.6738 119.39 65.9731 109.268 78.0393 112.955C145.945 133.987 146.52 84.4351 139.839 69.3Z" fill="#FEBC52"/>
<path opacity="0.9" d="M139.839 69.3C132.129 51.084 112.321 37.9645 93.1348 32.1908C43.4566 17.028 20.845 87.3616 36.4315 102.726C49.6738 119.39 65.9731 109.268 78.0393 112.955C145.945 133.987 146.52 84.4351 139.839 69.3Z" fill="white"/>
<path d="M99.0002 169.314C141.405 169.314 175.781 167.307 175.781 164.831C175.781 162.355 141.405 160.348 99.0002 160.348C56.5955 160.348 22.2197 162.355 22.2197 164.831C22.2197 167.307 56.5955 169.314 99.0002 169.314Z" fill="#F5F5F5"/>
<path d="M158.474 88.8109L161.246 120.919C161.468 123.532 159.872 125.825 157.682 126.011L96.7538 131.238C94.5758 131.428 92.6077 129.441 92.3978 126.831L89.6258 94.7192C89.5708 94.1164 89.6177 93.5086 89.7644 92.9214C90.2 91.1275 91.5227 89.7534 93.178 89.6306L154.107 84.3995C155.758 84.2569 157.275 85.3697 158.031 87.0566C158.275 87.6129 158.424 88.2057 158.474 88.8109Z" fill="#FEBC52"/>
<path opacity="0.1" d="M158.474 88.8109L161.246 120.919C161.468 123.532 159.872 125.825 157.682 126.011L96.7538 131.238C94.5758 131.428 92.6077 129.441 92.3978 126.831L89.6258 94.7192C89.5708 94.1164 89.6177 93.5086 89.7644 92.9214C90.2 91.1275 91.5227 89.7534 93.178 89.6306L154.107 84.3995C155.758 84.2569 157.275 85.3697 158.031 87.0566C158.275 87.6129 158.424 88.2057 158.474 88.8109Z" fill="black"/>
<path d="M165.707 107.738L165.274 107.791L165.449 109.237L165.882 109.185L165.707 107.738Z" fill="#FEBC52"/>
<path d="M164.866 100.753L164.434 100.806L165.085 106.196L165.517 106.143L164.866 100.753Z" fill="#FEBC52"/>
<path d="M161.203 83.0689L165.186 116C165.507 118.677 163.947 121.093 161.713 121.362L99.2286 128.922C96.9952 129.191 94.9004 127.219 94.5756 124.538L90.5919 91.6106C90.5161 90.9914 90.5428 90.3639 90.6711 89.7534C91.0671 87.8961 92.366 86.4507 94.0648 86.2448L156.55 78.6892C158.248 78.4832 159.864 79.5722 160.684 81.2829C160.954 81.8456 161.129 82.4491 161.203 83.0689Z" fill="#FEBC52"/>
<path opacity="0.1" d="M160.684 81.2829L132.342 100.366C130.955 101.314 129.36 101.915 127.692 102.117C126.024 102.319 124.332 102.116 122.759 101.526L90.6826 89.7534C91.0786 87.8961 92.3775 86.4507 94.0763 86.2448L156.561 78.6892C158.248 78.4832 159.864 79.5722 160.684 81.2829Z" fill="black"/>
<path d="M150.11 88.3991L141.968 93.8797L139.303 95.6776L132.342 100.366C130.991 101.293 129.44 101.889 127.816 102.105C126.191 102.321 124.539 102.151 122.992 101.61L122.743 101.526L118.838 100.093L110.047 96.8656L105.936 95.3568L101.279 93.6461L100.943 85.4133L100.187 67.1181L135.957 65.6647L149.591 75.9964L149.734 79.5089L150.11 88.3991Z" fill="#FEBC52"/>
<path opacity="0.7" d="M150.11 88.3991L141.968 93.8797L139.303 95.6776L132.342 100.366C130.991 101.293 129.44 101.889 127.816 102.105C126.191 102.321 124.539 102.151 122.992 101.61L122.743 101.526L118.838 100.093L110.047 96.8656L105.936 95.3568L101.279 93.6461L100.943 85.4133L100.187 67.1181L135.957 65.6647L149.591 75.9964L149.734 79.5089L150.11 88.3991Z" fill="#FAFAFA"/>
<g opacity="0.9">
<path opacity="0.9" d="M145.069 79.6356L105.469 81.2434C105.249 81.2521 105.033 81.1742 104.869 81.0262C104.705 80.8782 104.605 80.672 104.59 80.4514C104.583 80.2312 104.661 80.0166 104.809 79.8532C104.957 79.6899 105.162 79.5905 105.382 79.5762L144.982 77.9684C145.203 77.9597 145.419 78.0377 145.583 78.1856C145.747 78.3336 145.847 78.5399 145.861 78.7604C145.87 78.9809 145.792 79.196 145.644 79.3596C145.496 79.5232 145.29 79.6223 145.069 79.6356Z" fill="white"/>
<path opacity="0.9" d="M145.28 84.8985L105.68 86.5062C105.46 86.5149 105.244 86.437 105.08 86.2891C104.916 86.1411 104.816 85.9348 104.801 85.7142C104.794 85.4936 104.872 85.2786 105.02 85.1146C105.167 84.9506 105.373 84.8504 105.593 84.8351L145.193 83.2273C145.414 83.2196 145.629 83.2979 145.793 83.4457C145.957 83.5934 146.057 83.7991 146.072 84.0193C146.079 84.2397 146.001 84.4542 145.853 84.6179C145.705 84.7817 145.5 84.8822 145.28 84.8985Z" fill="white"/>
<path opacity="0.9" d="M145.495 90.1574L105.895 91.7651C105.675 91.7738 105.459 91.6959 105.295 91.548C105.13 91.4 105.031 91.1937 105.016 90.9731C105.008 90.7526 105.086 90.5375 105.234 90.3739C105.382 90.2103 105.588 90.1113 105.808 90.098L145.408 88.4902C145.629 88.4815 145.844 88.5596 146.007 88.7076C146.171 88.8557 146.27 89.062 146.283 89.2822C146.292 89.502 146.215 89.7166 146.067 89.8801C145.92 90.0436 145.715 90.1431 145.495 90.1574Z" fill="white"/>
<path opacity="0.9" d="M141.971 93.8797L139.305 95.6776L110.049 96.8656L105.938 95.3568C105.973 95.3527 106.007 95.3527 106.041 95.3568L141.971 93.8797Z" fill="white"/>
<path opacity="0.9" d="M131.131 100.434V100.465C131.132 100.681 131.05 100.888 130.903 101.046C130.756 101.203 130.554 101.299 130.339 101.313L123.01 101.61L122.76 101.527L118.855 100.093L130.272 99.6257C130.492 99.6224 130.705 99.7048 130.865 99.8556C131.026 100.006 131.121 100.214 131.131 100.434Z" fill="white"/>
</g>
<path opacity="0.1" d="M149.609 75.9964L140.137 75.5885L135.975 65.6647L149.609 75.9964Z" fill="#263238"/>
<path d="M149.609 75.9964L140.418 74.4243L135.975 65.6647L149.609 75.9964Z" fill="#FEBC52"/>
<path d="M167.829 37.5923C167.829 45.6469 159.002 53.563 157.68 53.563C156.357 53.563 147.53 45.643 147.53 37.5923C147.53 32.1948 152.072 27.815 157.68 27.815C163.287 27.815 167.829 32.1948 167.829 37.5923Z" fill="#FEBC52"/>
<path opacity="0.1" d="M155.794 35.5846C153.957 37.6002 151.462 38.3209 150.222 37.1686C148.983 36.0162 149.466 33.4897 151.3 31.4741C153.133 29.4585 155.632 28.7377 156.875 29.8663C158.119 30.9949 157.632 33.5689 155.794 35.5846Z" fill="white"/>
<path opacity="0.1" d="M150.381 43.6986C150.139 43.0967 150.203 42.5106 150.524 42.376C150.844 42.2413 151.316 42.6294 151.541 43.2313C151.767 43.8333 151.719 44.4193 151.399 44.55C151.078 44.6807 150.623 44.2966 150.381 43.6986Z" fill="white"/>
<path d="M157.242 78.907C157.199 78.906 157.159 78.8885 157.128 78.8583C157.098 78.8281 157.081 78.7873 157.08 78.7446C157.068 78.2105 157.229 77.6868 157.539 77.2517C157.805 76.8618 157.947 76.4009 157.947 75.929C157.947 75.4572 157.805 74.9963 157.539 74.6064C157.24 74.166 157.08 73.6459 157.08 73.1135C157.08 72.5811 157.24 72.061 157.539 71.6206C157.805 71.2315 157.947 70.7712 157.947 70.2999C157.947 69.8286 157.805 69.3683 157.539 68.9792C157.24 68.5396 157.08 68.0201 157.08 67.4883C157.08 66.9565 157.24 66.437 157.539 65.9974C157.805 65.6083 157.947 65.148 157.947 64.6767C157.947 64.2054 157.805 63.7451 157.539 63.356C157.24 62.9164 157.08 62.3969 157.08 61.8651C157.08 61.3333 157.24 60.8138 157.539 60.3742C157.805 59.9851 157.947 59.5248 157.947 59.0535C157.947 58.5822 157.805 58.1219 157.539 57.7328C157.24 57.2932 157.08 56.7737 157.08 56.2419C157.08 55.7101 157.24 55.1906 157.539 54.751C157.81 54.3658 157.949 53.9031 157.935 53.4323C157.941 53.3931 157.961 53.3573 157.991 53.3315C158.021 53.3057 158.06 53.2915 158.099 53.2915C158.139 53.2915 158.177 53.3057 158.208 53.3315C158.238 53.3573 158.258 53.3931 158.264 53.4323C158.275 53.9651 158.114 54.4873 157.804 54.9212C157.534 55.3083 157.395 55.7719 157.408 56.2439C157.394 56.7147 157.533 57.1774 157.804 57.5626C158.104 58.0022 158.264 58.5217 158.264 59.0535C158.264 59.5853 158.104 60.1048 157.804 60.5444C157.536 60.9327 157.393 61.3933 157.393 61.8651C157.393 62.3369 157.536 62.7975 157.804 63.1858C158.104 63.6254 158.264 64.1449 158.264 64.6767C158.264 65.2085 158.104 65.728 157.804 66.1676C157.536 66.5559 157.393 67.0165 157.393 67.4883C157.393 67.9601 157.536 68.4207 157.804 68.809C158.104 69.2486 158.264 69.7681 158.264 70.2999C158.264 70.8317 158.104 71.3512 157.804 71.7908C157.536 72.1797 157.392 72.641 157.392 73.1135C157.392 73.586 157.536 74.0473 157.804 74.4361C158.103 74.8765 158.263 75.3967 158.263 75.929C158.263 76.4614 158.103 76.9815 157.804 77.422C157.533 77.8084 157.394 78.2725 157.408 78.7446C157.408 78.7663 157.404 78.7877 157.396 78.8077C157.387 78.8276 157.375 78.8457 157.359 78.8608C157.344 78.876 157.326 78.8878 157.305 78.8958C157.285 78.9037 157.264 78.9075 157.242 78.907Z" fill="#263238"/>
<path d="M157.678 53.1828C157.365 53.1828 155.302 55.044 155.302 56.9369H160.062C160.062 55.044 158.002 53.1828 157.678 53.1828Z" fill="#FEBC52"/>
<path d="M158.146 53.2462H157.212C157.135 53.2462 157.073 53.3082 157.073 53.3848V53.4838C157.073 53.5603 157.135 53.6224 157.212 53.6224H158.146C158.223 53.6224 158.285 53.5603 158.285 53.4838V53.3848C158.285 53.3082 158.223 53.2462 158.146 53.2462Z" fill="#263238"/>
<path d="M104.148 45.1203C104.148 53.1709 95.3207 61.087 93.9981 61.087C92.6755 61.087 83.8486 53.167 83.8486 45.1203C83.8486 39.7188 88.3907 35.3391 93.9981 35.3391C99.6055 35.3391 104.148 39.7188 104.148 45.1203Z" fill="#263238"/>
<path opacity="0.1" d="M92.3523 43.4385C94.1888 41.4223 94.6723 38.8721 93.4322 37.7425C92.1921 36.6129 89.698 37.3317 87.8615 39.3479C86.0249 41.3641 85.5414 43.9142 86.7816 45.0438C88.0217 46.1734 90.5158 45.4547 92.3523 43.4385Z" fill="white"/>
<path opacity="0.1" d="M86.9376 51.5513C86.6961 50.9493 86.7594 50.3633 87.0802 50.2286C87.401 50.094 87.8722 50.4821 88.0979 51.084C88.3236 51.6859 88.2761 52.272 87.9554 52.4066C87.6346 52.5413 87.1792 52.1532 86.9376 51.5513Z" fill="white"/>
<path d="M93.5467 86.431C93.5037 86.431 93.4624 86.4139 93.4319 86.3834C93.4015 86.353 93.3844 86.3117 93.3844 86.2686C93.3726 85.7345 93.5337 85.2108 93.8437 84.7757C94.1095 84.3858 94.2517 83.9249 94.2517 83.4531C94.2517 82.9812 94.1095 82.5203 93.8437 82.1304C93.5446 81.69 93.3847 81.1699 93.3847 80.6375C93.3847 80.1051 93.5446 79.585 93.8437 79.1446C94.1149 78.7594 94.2538 78.2967 94.2397 77.8259C94.253 77.354 94.1141 76.8903 93.8437 76.5032C93.5444 76.0636 93.3844 75.5441 93.3844 75.0123C93.3844 74.4805 93.5444 73.961 93.8437 73.5214C94.1149 73.1362 94.2538 72.6735 94.2397 72.2027C94.253 71.7308 94.1141 71.2671 93.8437 70.8801C93.5444 70.4404 93.3844 69.9209 93.3844 69.3891C93.3844 68.8573 93.5444 68.3378 93.8437 67.8982C94.1093 67.5097 94.2515 67.0501 94.2515 66.5795C94.2515 66.1089 94.1093 65.6493 93.8437 65.2608C93.5444 64.8212 93.3844 64.3017 93.3844 63.7699C93.3844 63.238 93.5444 62.7185 93.8437 62.2789C94.1141 61.8919 94.253 61.4282 94.2397 60.9563C94.2408 60.9135 94.2582 60.8728 94.2884 60.8426C94.3187 60.8124 94.3594 60.7949 94.4021 60.7939C94.4452 60.7939 94.4865 60.811 94.5169 60.8415C94.5474 60.8719 94.5645 60.9132 94.5645 60.9563C94.5768 61.4899 94.4171 62.0133 94.1091 62.4492C93.8408 62.8366 93.6971 63.2967 93.6971 63.7679C93.6971 64.2391 93.8408 64.6991 94.1091 65.0866C94.4058 65.5272 94.5643 66.0463 94.5643 66.5775C94.5643 67.1087 94.4058 67.6278 94.1091 68.0684C93.8387 68.4555 93.6998 68.9192 93.7131 69.3911C93.699 69.8619 93.8379 70.3246 94.1091 70.7098C94.4058 71.1504 94.5643 71.6695 94.5643 72.2007C94.5643 72.7319 94.4058 73.251 94.1091 73.6916C93.8387 74.0787 93.6998 74.5424 93.7131 75.0143C93.699 75.4851 93.8379 75.9478 94.1091 76.333C94.4058 76.7736 94.5643 77.2927 94.5643 77.8239C94.5643 78.3551 94.4058 78.8742 94.1091 79.3148C93.8407 79.7037 93.6969 80.165 93.6969 80.6375C93.6969 81.11 93.8407 81.5713 94.1091 81.9601C94.4061 82.4013 94.5648 82.9211 94.5648 83.4531C94.5648 83.985 94.4061 84.5048 94.1091 84.946C93.8382 85.3327 93.6993 85.7966 93.7131 86.2686C93.7131 86.2903 93.7087 86.3117 93.7003 86.3317C93.6919 86.3516 93.6796 86.3697 93.6641 86.3848C93.6486 86.4 93.6303 86.4118 93.6101 86.4198C93.5899 86.4277 93.5684 86.4315 93.5467 86.431Z" fill="#FEBC52"/>
<path d="M93.9824 60.7108C93.6696 60.7108 91.6064 62.568 91.6064 64.4609H96.3584C96.3664 62.568 94.2913 60.7108 93.9824 60.7108Z" fill="#263238"/>
<path d="M94.4511 60.7702H93.5165C93.44 60.7702 93.3779 60.8322 93.3779 60.9088V61.0078C93.3779 61.0843 93.44 61.1464 93.5165 61.1464H94.4511C94.5276 61.1464 94.5897 61.0843 94.5897 61.0078V60.9088C94.5897 60.8322 94.5276 60.7702 94.4511 60.7702Z" fill="#FEBC52"/>
<path d="M163.174 86.2589C165.573 84.0564 165.731 80.3263 163.529 77.9277C161.326 75.529 157.596 75.3701 155.198 77.5727C152.799 79.7753 152.64 83.5053 154.843 85.9039C157.045 88.3026 160.775 88.4615 163.174 86.2589Z" fill="#DE5753"/>
<path d="M160.356 79.0693V85.0093H158.717V81.1206C158.474 81.3072 158.216 81.4716 157.944 81.6117C157.643 81.755 157.33 81.8742 157.01 81.9681V80.6415C157.475 80.5085 157.911 80.2911 158.297 79.9999C158.601 79.7495 158.846 79.4343 159.014 79.0773L160.356 79.0693Z" fill="white"/>
</svg>
