<svg width="90" height="75" viewBox="0 0 90 75" fill="none" xmlns="http://www.w3.org/2000/svg">
<path fill-rule="evenodd" clip-rule="evenodd" d="M31.294 15.9844C29.819 15.9324 28.512 16.9174 28.169 18.3384C26.216 25.8334 28.794 33.7764 34.711 38.5734L37.571 49.8954C38.924 55.2804 51.038 55.2804 52.399 49.8954L55.253 38.5734C61.17 33.7754 63.749 25.8334 61.801 18.3384C61.451 16.9174 60.144 15.9334 58.676 15.9844C56.681 16.0624 55.28 17.9684 55.811 19.8864C57.223 25.3184 55.311 31.2654 50.765 34.2454C46.833 36.8184 43.144 36.8184 39.207 34.2454C34.656 31.2664 32.745 25.3184 34.161 19.8864C34.69 17.9694 33.288 16.0624 31.294 15.9844Z" fill="#FFB640"/>
<path fill-rule="evenodd" clip-rule="evenodd" d="M50.8768 21.9794C51.7098 25.4584 49.5588 28.9424 46.0698 29.7754C42.5798 30.6054 39.0698 28.4584 38.2368 24.9794C37.4038 21.5044 39.5538 18.0154 43.0438 17.1874C46.5378 16.3594 50.0428 18.5054 50.8768 21.9794Z" fill="#FFB640"/>
<path d="M77.4599 11.0941C80.1729 13.6461 81.4539 16.5621 81.3079 19.2201C81.1579 21.8601 79.5839 24.1831 77.1379 25.2501C74.6899 26.3241 72.5229 25.9691 70.9389 24.6361C69.3399 23.2911 68.3089 21.0001 68.3199 18.1091C68.3199 17.5211 68.7619 17.4471 69.0899 17.5671C71.2669 18.3901 73.0699 19.0931 74.5759 20.4951C73.9239 17.1761 75.5179 13.7961 76.5489 11.2861C76.7259 10.8431 77.1789 10.8291 77.4599 11.0941Z" fill="#FFB640"/>
<path d="M83.299 39.2969C84.138 42.9269 83.575 46.0619 81.975 48.1879C80.387 50.3029 77.783 51.3599 75.158 50.8869C72.527 50.4119 70.918 48.9179 70.346 46.9279C69.768 44.9229 70.179 42.4429 71.8 40.0489C72.128 39.5579 72.538 39.7409 72.742 40.0279C74.09 41.9189 75.199 43.5069 75.674 45.5069C76.976 42.3879 80.18 40.4659 82.43 38.9489C82.83 38.6829 83.21 38.9169 83.299 39.2969Z" fill="#FFB640"/>
<path d="M77.507 53.755C76.71 57.395 74.861 59.99 72.501 61.228C70.163 62.452 67.356 62.291 65.185 60.739C63.012 59.187 62.199 57.145 62.538 55.104C62.871 53.041 64.309 50.979 66.8 49.509C67.305 49.208 67.596 49.552 67.659 49.895C68.071 52.182 68.388 54.088 67.956 56.104C70.472 53.837 74.191 53.473 76.872 53.072C77.345 53 77.589 53.381 77.507 53.755Z" fill="#FFB640"/>
<path fill-rule="evenodd" clip-rule="evenodd" d="M48.4041 65.7971C48.4041 67.6831 46.8711 69.2201 44.9811 69.2201C43.0911 69.2201 41.5601 67.6831 41.5601 65.7971C41.5601 63.9061 43.0911 62.3701 44.9811 62.3701C46.8711 62.3701 48.4041 63.9061 48.4041 65.7971Z" fill="#FFB640"/>
<path d="M71.0841 15.8126C66.2361 14.2806 65.8081 11.0416 65.8081 5.8336C65.8081 4.7666 65.9861 4.6576 66.8081 4.8296C72.2721 5.9846 74.4711 11.0166 72.4601 15.3296C72.1271 16.0306 71.7201 16.0156 71.0841 15.8126Z" fill="#FFB640"/>
<path d="M82.5268 24.2343C84.6168 27.3243 85.2258 30.4473 84.4968 33.0053C83.7778 35.5533 81.7308 37.4743 79.1058 37.9803C76.4798 38.4853 74.4448 37.6673 73.1938 36.0163C71.9338 34.3553 71.4228 31.8913 72.0698 29.0743C72.2048 28.5003 72.6468 28.5273 72.9448 28.7203C74.8828 29.9963 76.4858 31.0783 77.6528 32.7763C77.7418 29.3913 80.0378 26.4433 81.5948 24.2243C81.8708 23.8333 82.3138 23.9123 82.5268 24.2343Z" fill="#FFB640"/>
<path d="M66.7941 64.964C64.3821 67.802 61.5371 69.229 58.8711 69.22C56.2311 69.203 53.8301 67.75 52.6381 65.36C51.4451 62.969 51.6851 60.787 52.9341 59.141C54.1991 57.474 56.4341 56.324 59.3201 56.193C59.9091 56.162 60.0081 56.599 59.8981 56.939C59.1941 59.147 58.5811 60.985 57.2561 62.557C60.5371 61.74 63.9961 63.162 66.5541 64.057C67.0071 64.22 67.0431 64.666 66.7941 64.964Z" fill="#FFB640"/>
<path d="M12.5011 11.0941C9.78809 13.6461 8.51209 16.5621 8.65709 19.2201C8.80309 21.8601 10.3761 24.1831 12.8291 25.2501C15.2771 26.3241 17.4441 25.9691 19.0231 24.6361C20.6211 23.2911 21.6581 21.0001 21.6411 18.1091C21.6411 17.5211 21.1991 17.4471 20.8701 17.5671C18.6981 18.3901 16.8961 19.0931 15.3861 20.4951C16.0421 17.1761 14.4431 13.7961 13.4161 11.2861C13.2371 10.8431 12.7831 10.8291 12.5011 11.0941Z" fill="#FFB640"/>
<path d="M6.66314 39.2969C5.83014 42.9269 6.38714 46.0619 7.98614 48.1879C9.57514 50.3029 12.1791 51.3599 14.8081 50.8869C17.4391 50.4119 19.0431 48.9179 19.6161 46.9279C20.1941 44.9229 19.7831 42.4429 18.1631 40.0489C17.8351 39.5579 17.4291 39.7409 17.2211 40.0279C15.8711 41.9189 14.7631 43.5069 14.2941 45.5069C12.9911 42.3879 9.78314 40.4659 7.53214 38.9489C7.13814 38.6829 6.75114 38.9169 6.66314 39.2969Z" fill="#FFB640"/>
<path d="M12.455 53.755C13.257 57.395 15.106 59.99 17.461 61.228C19.805 62.452 22.606 62.291 24.778 60.739C26.955 59.187 27.762 57.145 27.429 55.104C27.09 53.041 25.658 50.979 23.169 49.509C22.664 49.208 22.372 49.552 22.309 49.895C21.898 52.182 21.576 54.088 22.007 56.104C19.491 53.837 15.773 53.473 13.095 53.072C12.622 53 12.371 53.381 12.455 53.755Z" fill="#FFB640"/>
<path d="M18.8772 15.8126C23.7262 14.2806 24.1582 11.0416 24.1582 5.8336C24.1582 4.7666 23.9752 4.6576 23.1582 4.8296C17.6902 5.9846 15.4912 11.0166 17.5072 15.3296C17.8352 16.0306 18.2422 16.0156 18.8772 15.8126Z" fill="#FFB640"/>
<path d="M7.43396 24.2343C5.34496 27.3243 4.74196 30.4473 5.46596 33.0053C6.18996 35.5533 8.23696 37.4743 10.861 37.9803C13.481 38.4853 15.519 37.6673 16.773 36.0163C18.033 34.3553 18.538 31.8913 17.893 29.0743C17.763 28.5003 17.314 28.5273 17.024 28.7203C15.081 29.9963 13.476 31.0783 12.314 32.7763C12.221 29.3913 9.92296 26.4433 8.37096 24.2243C8.09496 23.8333 7.65296 23.9123 7.43396 24.2343Z" fill="#FFB640"/>
<path d="M23.1681 64.964C25.5801 67.802 28.4281 69.229 31.0891 69.22C33.7301 69.203 36.1371 67.75 37.3291 65.36C38.5221 62.969 38.2771 60.787 37.0261 59.141C35.7611 57.474 33.5311 56.324 30.6401 56.193C30.0521 56.162 29.9591 56.599 30.0631 56.939C30.7711 59.147 31.3801 60.985 32.7091 62.557C29.4221 61.74 25.9701 63.162 23.4131 64.057C22.9611 64.22 22.9181 64.666 23.1681 64.964Z" fill="#FFB640"/>
</svg>
