<svg width="44" height="46" viewBox="0 0 44 46" fill="none" xmlns="http://www.w3.org/2000/svg">
<path d="M22.0107 11.7776C22.7501 11.7776 23.3495 12.4025 23.3495 13.1734V21.5484H31.3823C32.1217 21.5484 32.7211 22.1734 32.7211 22.9443C32.7211 23.7152 32.1217 24.3401 31.3823 24.3401H23.3495V32.7151C23.3495 33.486 22.7501 34.1109 22.0107 34.1109C21.2712 34.1109 20.6718 33.486 20.6718 32.7151V24.3401H12.639C11.8996 24.3401 11.3002 23.7152 11.3002 22.9443C11.3002 22.1734 11.8996 21.5484 12.639 21.5484H20.6718V13.1734C20.6718 12.4025 21.2712 11.7776 22.0107 11.7776Z" fill="#FEBC52"/>
</svg>
