<svg width="61" height="60" viewBox="0 0 61 60" fill="none" xmlns="http://www.w3.org/2000/svg">
<path d="M22.9995 13.8462C23.6116 13.8462 24.1985 14.0893 24.6313 14.5221C25.0641 14.9548 25.3072 15.5418 25.3072 16.1538C25.3905 17.4519 25.9825 18.6647 26.9546 19.5289C27.9268 20.393 29.2007 20.8388 30.4995 20.7692C31.7984 20.8388 33.0723 20.393 34.0444 19.5289C35.0166 18.6647 35.6086 17.4519 35.6918 16.1538C35.6918 15.5418 35.935 14.9548 36.3678 14.5221C36.8005 14.0893 37.3875 13.8462 37.9995 13.8462H59.6226L53.3226 1.26923C53.1308 0.888659 52.8374 0.568622 52.4749 0.344592C52.1124 0.120563 51.6949 0.00129163 51.2688 0H9.73031C9.30415 0.00129163 8.88668 0.120563 8.52416 0.344592C8.16164 0.568622 7.86823 0.888659 7.67647 1.26923L1.37646 13.8462H22.9995Z" fill="white"/>
<path d="M30.5 25.385C28.3781 25.4214 26.3021 24.7653 24.5865 23.5161C22.8709 22.2669 21.6091 20.4925 20.9923 18.4619H0.5V57.6927C0.5 58.3047 0.743131 58.8917 1.17591 59.3245C1.60868 59.7572 2.19565 60.0004 2.80769 60.0004H58.1923C58.8043 60.0004 59.3913 59.7572 59.8241 59.3245C60.2569 58.8917 60.5 58.3047 60.5 57.6927V18.4619H40.0077C39.3909 20.4925 38.1291 22.2669 36.4135 23.5161C34.6979 24.7653 32.6219 25.4214 30.5 25.385Z" fill="white"/>
</svg>
