<svg width="25" height="26" viewBox="0 0 25 26" fill="none" xmlns="http://www.w3.org/2000/svg">
<path d="M12.5 0.0229645C5.60526 0.0229645 0 5.62823 0 12.523C0 19.4177 5.60526 25.023 12.5 25.023C19.3947 25.023 25 19.4177 25 12.523C25 5.62823 19.3947 0.0229645 12.5 0.0229645ZM18.5526 9.70718L11.3684 17.6282C11.1842 17.8388 10.8421 17.8388 10.6316 17.6545L6.1579 13.1545C5.94737 12.944 5.94737 12.6282 6.1579 12.444L7.47368 11.1282C7.68421 10.9177 8 10.9177 8.18421 11.1282L10.9211 13.8914L16.4474 7.78612C16.6316 7.5756 16.9474 7.5756 17.1579 7.75981L18.5263 8.99665C18.7368 9.18086 18.7368 9.49665 18.5526 9.70718Z" fill="#22B02E"/>
</svg>
