<svg width="77" height="74" viewBox="0 0 77 74" fill="none" xmlns="http://www.w3.org/2000/svg">
<path d="M4.91682 66.3359H8.66178C9.43007 68.3823 10.8019 70.1471 12.5955 71.3964C14.3891 72.6458 16.52 73.3209 18.7058 73.3322C20.8986 73.3511 23.0432 72.689 24.8436 71.4372C26.6441 70.1855 28.0117 68.4058 28.7577 66.3437H38.9427C39.7142 68.3936 41.0913 70.1602 42.891 71.4085C44.6908 72.6569 46.8278 73.3278 49.0181 73.3322C51.2109 73.3511 53.3555 72.689 55.1559 71.4372C56.9564 70.1855 58.324 68.4058 59.07 66.3437H63.4887C64.7092 66.3416 65.8789 65.8554 66.7412 64.9917C67.6034 64.1279 68.0877 62.9574 68.0877 61.7369V42.9338C66.2668 44.4395 63.9521 45.2161 61.5915 45.1133C59.231 45.0106 56.9925 44.0357 55.3093 42.3775C50.4597 37.614 42.5859 28.377 41.2696 17.6748H32.0482C30.8284 17.6748 29.6582 18.1577 28.7935 19.0181C27.9288 19.8784 27.4398 21.0461 27.4336 22.2659V22.7987H16.1517C15.3293 22.7964 14.5198 23.0029 13.799 23.3989C13.0782 23.7949 12.4697 24.3675 12.0307 25.0629L1.46173 41.7115C0.716685 42.8824 0.319969 44.241 0.317871 45.6289V61.7369C0.319943 62.956 0.805138 64.1246 1.66716 64.9866C2.52918 65.8486 3.69774 66.3338 4.91682 66.3359ZM49.0181 58.6031C50.0763 58.6212 51.0861 59.0496 51.8345 59.798C52.5829 60.5464 53.0113 61.5562 53.0295 62.6144C53.0295 63.4078 52.7942 64.1833 52.3534 64.843C51.9127 65.5027 51.2862 66.0168 50.5532 66.3204C49.8202 66.624 49.0137 66.7035 48.2355 66.5487C47.4574 66.3939 46.7427 66.0119 46.1817 65.4509C45.6207 64.8899 45.2386 64.1751 45.0838 63.397C44.9291 62.6189 45.0085 61.8123 45.3121 61.0793C45.6157 60.3464 46.1299 59.7199 46.7895 59.2791C47.4492 58.8383 48.2247 58.6031 49.0181 58.6031ZM18.7058 66.6493C17.6414 66.6311 16.6256 66.2002 15.8728 65.4474C15.12 64.6946 14.6891 63.6789 14.671 62.6144C14.6813 61.5497 15.1104 60.5318 15.8655 59.7811C16.6207 59.0303 17.641 58.6071 18.7058 58.6031C19.7703 58.6212 20.786 59.0521 21.5388 59.8049C22.2916 60.5577 22.7225 61.5735 22.7407 62.6379C22.7304 63.7027 22.3012 64.7206 21.5461 65.4713C20.791 66.222 19.7706 66.6452 18.7058 66.6493ZM9.14753 41.8761L16.614 30.1241C16.6965 29.9921 16.8124 29.8842 16.95 29.8113C17.0875 29.7384 17.2419 29.7031 17.3974 29.7088H24.1666C24.4014 29.7088 24.6266 29.8021 24.7926 29.9681C24.9586 30.1342 25.0519 30.3594 25.0519 30.5942V42.3461C25.0519 42.5809 24.9586 42.8061 24.7926 42.9722C24.6266 43.1382 24.4014 43.2315 24.1666 43.2315H9.89182C9.73421 43.2304 9.57973 43.1873 9.44435 43.1066C9.30896 43.0259 9.19758 42.9105 9.12172 42.7723C9.04585 42.6341 9.00824 42.4782 9.01278 42.3207C9.01732 42.1631 9.06384 42.0096 9.14753 41.8761Z" fill="white"/>
<path d="M62.0002 8.37113e-06C61.6869 8.37113e-06 61.3709 8.37113e-06 61.0522 8.37113e-06C57.3121 0.274188 53.816 1.95948 51.2718 4.71461C48.7276 7.46974 47.3255 11.0888 47.3494 14.8389C47.4434 24.6635 55.6072 33.9006 59.7125 37.9354C60.328 38.5407 61.1566 38.8799 62.0198 38.8799C62.883 38.8799 63.7117 38.5407 64.3271 37.9354C68.456 33.8771 76.6824 24.546 76.6824 14.6665C76.6824 12.7391 76.3025 10.8307 75.5645 9.05025C74.8264 7.26981 73.7447 5.65229 72.3811 4.29018C71.0176 2.92806 69.3989 1.84807 67.6177 1.11193C65.8364 0.37579 63.9276 -0.00205076 62.0002 8.37113e-06ZM62.0002 20.5268C60.8396 20.5268 59.7051 20.1827 58.7401 19.5379C57.775 18.8931 57.0229 17.9766 56.5788 16.9043C56.1346 15.832 56.0184 14.6522 56.2448 13.5138C56.4713 12.3755 57.0301 11.3299 57.8508 10.5092C58.6715 9.68857 59.7171 9.12968 60.8554 8.90325C61.9937 8.67683 63.1736 8.79304 64.2459 9.23719C65.3182 9.68133 66.2346 10.4335 66.8794 11.3985C67.5242 12.3635 67.8684 13.498 67.8684 14.6587C67.8694 15.4299 67.7184 16.1939 67.424 16.9067C67.1295 17.6196 66.6974 18.2674 66.1524 18.8131C65.6074 19.3589 64.9602 19.7918 64.2477 20.0872C63.5352 20.3826 62.7715 20.5347 62.0002 20.5347V20.5268Z" fill="white"/>
</svg>
