<svg width="20" height="20" viewBox="0 0 20 20" fill="none" xmlns="http://www.w3.org/2000/svg">
<path d="M20 9.67722C20 4.3271 15.5143 0 10 0C4.47143 0 0 4.3271 0 9.67722C0 15.0273 4.47143 19.3544 10 19.3544C15.5143 19.3544 20 15.0273 20 9.67722ZM11 11.7233H8.77143V11.1288C8.77143 10.6035 8.88571 10.1611 9.11429 9.77399C9.34286 9.3869 9.77143 8.98599 10.3714 8.5436C10.9571 8.14269 11.3429 7.8109 11.5286 7.56205C11.7286 7.31321 11.8143 7.02289 11.8143 6.70493C11.8143 6.35931 11.6857 6.09665 11.4143 5.9031C11.1429 5.72338 10.7714 5.64043 10.2857 5.64043C9.45714 5.64043 8.5 5.9031 7.42857 6.42844L6.51429 4.65889C7.75714 3.98148 9.08571 3.63587 10.4714 3.63587C11.6286 3.63587 12.5429 3.91236 13.2143 4.43769C13.9 4.97685 14.2286 5.69573 14.2286 6.58051C14.2286 7.17496 14.1 7.68647 13.8143 8.11504C13.5429 8.55742 13 9.04128 12.2286 9.58044C11.6857 9.96753 11.3571 10.2578 11.2143 10.4514C11.0714 10.6588 11 10.9214 11 11.2394V11.7233ZM8.9 15.5112C8.64286 15.2762 8.51429 14.9306 8.51429 14.502C8.51429 14.0458 8.62857 13.7002 8.88571 13.4652C9.14286 13.2301 9.5 13.1195 9.98571 13.1195C10.4429 13.1195 10.8 13.244 11.0571 13.479C11.3143 13.714 11.4429 14.0596 11.4429 14.502C11.4429 14.9167 11.3143 15.2624 11.0571 15.4974C10.8 15.7462 10.4429 15.8706 9.98571 15.8706C9.51429 15.8706 9.15714 15.7462 8.9 15.5112Z" fill="#C9C9C9"/>
</svg>
