<svg width="75" height="69" viewBox="0 0 75 69" fill="none" xmlns="http://www.w3.org/2000/svg">
<path d="M65.7924 30.9003C65.4841 30.669 65.0986 30.5148 64.7132 30.4377C64.7132 30.4377 64.7131 30.3606 64.6361 30.3606C64.8673 28.4334 65.5611 24.733 66.1008 22.8057C66.3321 21.8806 66.9488 21.1868 67.8739 20.8014C67.6426 21.4952 67.5655 22.1119 67.4113 22.8057C67.0259 24.9643 66.5633 28.8188 66.4862 30.8232C66.4862 31.0545 66.4862 31.2086 66.4862 31.4399C66.3321 31.2857 66.1008 31.0545 65.7924 30.9003ZM0.958839 19.3366C0.265019 19.9534 -0.120436 20.8784 0.0337463 21.8035L1.96102 40.6908L2.03811 41.3847C2.42357 43.7745 3.50284 45.7018 5.12176 47.4749L16.3 60.8887L16.5312 67.056C16.5312 67.5956 16.9938 68.0582 17.5334 68.0582L29.2513 68.1353C29.7909 68.1353 30.2534 67.6727 30.2534 67.1331L30.6389 59.6553C30.716 58.8843 30.7931 58.1134 30.7931 57.4967C30.7931 56.7258 30.716 56.1862 30.716 56.1862C30.1764 53.8734 29.3284 49.248 23.084 44.7767C22.4672 44.3141 21.6192 43.4661 21.1567 42.9265L14.2185 33.9839C13.5247 32.7505 11.7516 32.365 10.441 33.1359C9.13049 33.9068 8.74504 35.6799 9.43886 36.8363L16.1458 47.7061C16.3771 48.0916 16.2229 48.5541 15.8374 48.7083C15.529 48.8625 15.0665 48.7854 14.9123 48.477L14.604 48.0916C14.604 48.0916 9.51595 41.1534 7.04903 35.6799C6.58649 34.6777 6.35521 33.6756 6.27812 32.5963C6.27812 32.4421 6.27812 32.2108 6.27812 32.0567C6.20103 29.5897 5.81558 26.0436 5.35303 23.5766C5.19885 22.8828 4.89048 20.3388 4.11957 19.4908C3.27157 18.4115 1.88393 18.6428 0.958839 19.3366ZM8.82213 22.8057C9.36177 24.733 9.97849 28.4334 10.2869 30.3606C10.2869 30.3606 10.2869 30.4377 10.2098 30.4377C9.82431 30.5919 9.51595 30.7461 9.13049 30.9003C8.82213 31.0545 8.59085 31.2857 8.35958 31.4399C8.35958 31.2086 8.35958 31.0545 8.35958 30.8232C8.28249 28.7417 7.81994 24.9643 7.43449 22.8057C7.3574 22.189 7.20322 21.4952 6.97194 20.8014C8.05122 21.1868 8.59085 21.8806 8.82213 22.8057ZM12.5996 25.5039C12.908 26.6603 13.756 29.2043 13.9101 30.4377C13.3705 30.2065 12.8309 30.1294 12.2141 30.1294C12.2141 30.0523 12.2141 29.9752 12.2141 29.8981L12.06 28.973C11.9058 27.5854 11.0578 25.0414 10.7494 23.5766C11.7516 23.885 12.2912 24.5788 12.5996 25.5039ZM74.0412 19.3366C74.735 19.9534 75.1204 20.8784 74.9663 21.8035L73.039 40.6908L72.9619 41.3847C72.5764 43.7745 71.4972 45.7018 69.8012 47.4749L58.623 60.8887L58.3917 67.056C58.3917 67.5956 57.9291 68.0582 57.3895 68.0582L45.6717 68.1353C45.132 68.1353 44.6695 67.6727 44.6695 67.1331L44.284 59.6553C44.2069 58.8843 44.1298 58.1134 44.1298 57.4967C44.1298 56.7258 44.2069 56.1862 44.2069 56.1862C44.7466 53.8734 45.5946 49.248 51.8389 44.7767C52.4557 44.3141 53.3037 43.4661 53.7662 42.9265L60.7044 33.9839C61.3982 32.7505 63.1713 32.365 64.4819 33.1359C65.7924 33.9068 66.1779 35.6799 65.4841 36.8363L58.7771 47.7061C58.5459 48.0916 58.7 48.5541 59.0855 48.7083C59.3939 48.8625 59.8564 48.7854 60.0106 48.477L60.319 48.0916C60.319 48.0916 65.407 41.1534 67.8739 35.6799C68.3364 34.6777 68.5677 33.6756 68.6448 32.5963C68.6448 32.4421 68.6448 32.2108 68.6448 32.0567C68.7219 29.5897 69.1073 26.0436 69.5699 23.5766C69.7241 22.8828 70.0324 20.3388 70.8033 19.4908C71.7284 18.4115 73.1161 18.6428 74.0412 19.3366ZM62.7859 29.8981C62.7859 29.9752 62.7859 30.0523 62.7859 30.1294C62.2462 30.1294 61.6295 30.2836 61.0899 30.4377C61.244 29.2043 62.0921 26.6603 62.4004 25.5039C62.6317 24.5788 63.1713 23.885 64.1735 23.5766C63.8651 24.9643 63.0942 27.5854 62.863 28.973L62.7859 29.8981ZM17.7647 21.6494C17.7647 10.7795 26.6302 1.91405 37.5 1.91405V0.218046C37.5 0.0638642 37.7313 -0.0903178 37.8855 0.0638644L42.5109 3.2246C42.6651 3.30169 42.6651 3.53296 42.5109 3.61005L37.8855 6.77079C37.7313 6.84788 37.5 6.77079 37.5 6.6166V4.9206C28.2491 4.9206 20.6942 12.4755 20.6942 21.7264C20.6942 27.0457 23.3153 32.1337 27.6323 35.2945L25.9363 37.6072C20.8483 33.9068 17.7647 27.9708 17.7647 21.6494ZM28.0178 29.5897L29.5596 31.1316C29.868 31.4399 30.4076 31.4399 30.716 31.1316L32.0265 29.821C33.1058 30.5148 34.2622 31.0545 35.5727 31.2857V33.1359C35.5727 33.5985 35.9582 33.9839 36.4207 33.9839H38.6564C39.1189 33.9839 39.5044 33.5985 39.5044 33.1359V31.2857C40.8149 31.0545 41.9713 30.5148 43.0506 29.821L44.3611 31.1316C44.6695 31.4399 45.2091 31.4399 45.5175 31.1316L47.0593 29.5897C47.3677 29.2814 47.3677 28.7417 47.0593 28.4334L45.7487 27.1228C46.4426 26.0435 46.9822 24.8872 47.2135 23.5766H49.0637C49.5262 23.5766 49.9117 23.1912 49.9117 22.7286V20.493C49.9117 20.0304 49.5262 19.645 49.0637 19.645H47.2135C46.9822 18.3344 46.4426 17.101 45.7487 16.0988L47.0593 14.7883C47.3677 14.4799 47.3677 13.9403 47.0593 13.6319L45.5175 12.0901C45.2091 11.7817 44.6695 11.7817 44.3611 12.0901L43.0506 13.4006C41.9713 12.7068 40.8149 12.1672 39.5044 11.9359V10.0857C39.5044 9.62315 39.1189 9.2377 38.6564 9.2377H36.4207C35.9582 9.2377 35.5727 9.62315 35.5727 10.0857V11.9359C34.2622 12.1672 33.1058 12.7068 32.0265 13.4006L30.716 12.0901C30.4076 11.7817 29.868 11.7817 29.5596 12.0901L28.0178 13.6319C27.7094 13.9403 27.7094 14.4799 28.0178 14.7883L29.3284 16.0988C28.6345 17.1781 28.0949 18.3344 27.8636 19.645H25.9363C25.4738 19.645 25.0883 20.0304 25.0883 20.493V22.7286C25.0883 23.1912 25.4738 23.5766 25.9363 23.5766H27.7865C28.0178 24.8872 28.5574 26.0435 29.2513 27.1228L27.9407 28.4334C27.6323 28.7417 27.6323 29.2814 28.0178 29.5897ZM37.5 17.1781C39.9669 17.1781 41.9713 19.1824 41.9713 21.6494C41.9713 24.1163 39.9669 26.1206 37.5 26.1206C35.0331 26.1206 33.0287 24.1163 33.0287 21.6494C33.0287 19.1824 35.0331 17.1781 37.5 17.1781ZM37.5 41.3847V43.0807C37.5 43.2349 37.2687 43.389 37.1145 43.2349L32.4891 40.0741C32.3349 39.997 32.3349 39.7658 32.4891 39.6887L37.1145 36.5279C37.2687 36.4508 37.5 36.5279 37.5 36.6821V38.3781C46.7509 38.3781 54.3059 30.8232 54.3059 21.5723C54.3059 16.253 51.6848 11.165 47.3677 8.00424L49.0637 5.61442C54.1517 9.31479 57.2353 15.2508 57.2353 21.5723C57.2353 32.5192 48.3698 41.3847 37.5 41.3847Z" fill="#FFB640"/>
</svg>
